<?xml version="1.0" encoding="UTF-8" standalone="no"?>
<!DOCTYPE svg PUBLIC "-//W3C//DTD SVG 1.1//EN"
 "http://www.w3.org/Graphics/SVG/1.1/DTD/svg11.dtd">
<!-- Generated by graphviz version 2.48.0 (0)
 -->
<!-- Title: Camera.hpp Pages: 1 -->
<svg width="353pt" height="146pt"
 viewBox="0.00 0.00 352.50 146.00" xmlns="http://www.w3.org/2000/svg" xmlns:xlink="http://www.w3.org/1999/xlink">
<g id="graph0" class="graph" transform="scale(1 1) rotate(0) translate(4 142)">
<title>Camera.hpp</title>
<!-- Node1 -->
<g id="node1" class="node">
<title>Node1</title>
<g id="a_node1"><a xlink:title="Class ASGE::Camera, Struct ASGE::Camera::CameraView.">
<polygon fill="#bfbfbf" stroke="black" points="120.5,-116.5 120.5,-137.5 201.5,-137.5 201.5,-116.5 120.5,-116.5"/>
<text text-anchor="middle" x="161" y="-123.9" font-family="Ubuntu" font-size="12.00">Camera.hpp</text>
</a>
</g>
</g>
<!-- Node2 -->
<g id="node2" class="node">
<title>Node2</title>
<g id="a_node2"><a xlink:href="_game_time_8hpp.html" target="_top" xlink:title="Struct ASGE::GameTime.">
<polygon fill="none" stroke="black" points="0,-58.5 0,-79.5 98,-79.5 98,-58.5 0,-58.5"/>
<text text-anchor="middle" x="49" y="-65.9" font-family="Ubuntu" font-size="12.00">GameTime.hpp</text>
</a>
</g>
</g>
<!-- Node1&#45;&gt;Node2 -->
<g id="edge1" class="edge">
<title>Node1&#45;&gt;Node2</title>
<path fill="none" stroke="midnightblue" d="M141.75,-116.37C123.93,-107.46 97.23,-94.11 77.04,-84.02"/>
<polygon fill="midnightblue" stroke="midnightblue" points="78.51,-80.84 68,-79.5 75.38,-87.1 78.51,-80.84"/>
</g>
<!-- Node4 -->
<g id="node4" class="node">
<title>Node4</title>
<g id="a_node4"><a xlink:href="_point2_d_8hpp.html" target="_top" xlink:title="Class ASGE::Point2D.">
<polygon fill="none" stroke="black" points="154.5,-58.5 154.5,-79.5 237.5,-79.5 237.5,-58.5 154.5,-58.5"/>
<text text-anchor="middle" x="196" y="-65.9" font-family="Ubuntu" font-size="12.00">Point2D.hpp</text>
</a>
</g>
</g>
<!-- Node1&#45;&gt;Node4 -->
<g id="edge3" class="edge">
<title>Node1&#45;&gt;Node4</title>
<path fill="none" stroke="midnightblue" d="M167.1,-116.25C171.91,-108.54 178.78,-97.56 184.6,-88.23"/>
<polygon fill="midnightblue" stroke="midnightblue" points="187.64,-89.98 189.97,-79.64 181.71,-86.27 187.64,-89.98"/>
</g>
<!-- Node5 -->
<g id="node5" class="node">
<title>Node5</title>
<g id="a_node5"><a xlink:title=" ">
<polygon fill="none" stroke="#bfbfbf" points="107,-0.5 107,-21.5 151,-21.5 151,-0.5 107,-0.5"/>
<text text-anchor="middle" x="129" y="-7.9" font-family="Ubuntu" font-size="12.00">array</text>
</a>
</g>
</g>
<!-- Node1&#45;&gt;Node5 -->
<g id="edge8" class="edge">
<title>Node1&#45;&gt;Node5</title>
<path fill="none" stroke="midnightblue" d="M157.27,-116.22C153.82,-106.98 148.68,-92.67 145,-80 140.34,-63.99 136.07,-45.56 133.12,-31.93"/>
<polygon fill="midnightblue" stroke="midnightblue" points="136.46,-30.82 130.97,-21.77 129.61,-32.27 136.46,-30.82"/>
</g>
<!-- Node7 -->
<g id="node7" class="node">
<title>Node7</title>
<g id="a_node7"><a xlink:href="_viewport_8hpp.html" target="_top" xlink:title="Struct ASGE::Viewport.">
<polygon fill="none" stroke="black" points="255.5,-58.5 255.5,-79.5 344.5,-79.5 344.5,-58.5 255.5,-58.5"/>
<text text-anchor="middle" x="300" y="-65.9" font-family="Ubuntu" font-size="12.00">Viewport.hpp</text>
</a>
</g>
</g>
<!-- Node1&#45;&gt;Node7 -->
<g id="edge6" class="edge">
<title>Node1&#45;&gt;Node7</title>
<path fill="none" stroke="midnightblue" d="M184.89,-116.37C207.51,-107.26 241.65,-93.51 266.89,-83.34"/>
<polygon fill="midnightblue" stroke="midnightblue" points="268.45,-86.48 276.42,-79.5 265.83,-79.99 268.45,-86.48"/>
</g>
<!-- Node3 -->
<g id="node3" class="node">
<title>Node3</title>
<g id="a_node3"><a xlink:title=" ">
<polygon fill="none" stroke="#bfbfbf" points="22.5,-0.5 22.5,-21.5 75.5,-21.5 75.5,-0.5 22.5,-0.5"/>
<text text-anchor="middle" x="49" y="-7.9" font-family="Ubuntu" font-size="12.00">chrono</text>
</a>
</g>
</g>
<!-- Node2&#45;&gt;Node3 -->
<g id="edge2" class="edge">
<title>Node2&#45;&gt;Node3</title>
<path fill="none" stroke="midnightblue" d="M49,-58.25C49,-50.94 49,-40.69 49,-31.7"/>
<polygon fill="midnightblue" stroke="midnightblue" points="52.5,-31.64 49,-21.64 45.5,-31.64 52.5,-31.64"/>
</g>
<!-- Node4&#45;&gt;Node5 -->
<g id="edge4" class="edge">
<title>Node4&#45;&gt;Node5</title>
<path fill="none" stroke="midnightblue" d="M184.33,-58.25C174.43,-49.97 160.04,-37.94 148.41,-28.22"/>
<polygon fill="midnightblue" stroke="midnightblue" points="150.45,-25.37 140.54,-21.64 145.97,-30.74 150.45,-25.37"/>
</g>
<!-- Node6 -->
<g id="node6" class="node">
<title>Node6</title>
<g id="a_node6"><a xlink:title=" ">
<polygon fill="none" stroke="#bfbfbf" points="172.5,-0.5 172.5,-21.5 219.5,-21.5 219.5,-0.5 172.5,-0.5"/>
<text text-anchor="middle" x="196" y="-7.9" font-family="Ubuntu" font-size="12.00">string</text>
</a>
</g>
</g>
<!-- Node4&#45;&gt;Node6 -->
<g id="edge5" class="edge">
<title>Node4&#45;&gt;Node6</title>
<path fill="none" stroke="midnightblue" d="M196,-58.25C196,-50.94 196,-40.69 196,-31.7"/>
<polygon fill="midnightblue" stroke="midnightblue" points="199.5,-31.64 196,-21.64 192.5,-31.64 199.5,-31.64"/>
</g>
<!-- Node8 -->
<g id="node8" class="node">
<title>Node8</title>
<g id="a_node8"><a xlink:title=" ">
<polygon fill="none" stroke="#bfbfbf" points="273.5,-0.5 273.5,-21.5 326.5,-21.5 326.5,-0.5 273.5,-0.5"/>
<text text-anchor="middle" x="300" y="-7.9" font-family="Ubuntu" font-size="12.00">cstdint</text>
</a>
</g>
</g>
<!-- Node7&#45;&gt;Node8 -->
<g id="edge7" class="edge">
<title>Node7&#45;&gt;Node8</title>
<path fill="none" stroke="midnightblue" d="M300,-58.25C300,-50.94 300,-40.69 300,-31.7"/>
<polygon fill="midnightblue" stroke="midnightblue" points="303.5,-31.64 300,-21.64 296.5,-31.64 303.5,-31.64"/>
</g>
</g>
</svg>
