<?xml version="1.0" encoding="UTF-8" standalone="no"?>
<!DOCTYPE svg PUBLIC "-//W3C//DTD SVG 1.1//EN"
 "http://www.w3.org/Graphics/SVG/1.1/DTD/svg11.dtd">
<!-- Generated by graphviz version 2.48.0 (0)
 -->
<!-- Title: Camera.hpp Pages: 1 -->
<svg width="143pt" height="262pt"
 viewBox="0.00 0.00 143.00 262.00" xmlns="http://www.w3.org/2000/svg" xmlns:xlink="http://www.w3.org/1999/xlink">
<g id="graph0" class="graph" transform="scale(1 1) rotate(0) translate(4 258)">
<title>Camera.hpp</title>
<!-- Node1 -->
<g id="node1" class="node">
<title>Node1</title>
<g id="a_node1"><a xlink:title="Class ASGE::Camera, Struct ASGE::Camera::CameraView.">
<polygon fill="#bfbfbf" stroke="black" points="7,-232.5 7,-253.5 88,-253.5 88,-232.5 7,-232.5"/>
<text text-anchor="middle" x="47.5" y="-239.9" font-family="Ubuntu" font-size="12.00">Camera.hpp</text>
</a>
</g>
</g>
<!-- Node2 -->
<g id="node2" class="node">
<title>Node2</title>
<g id="a_node2"><a xlink:href="_renderer_8hpp.html" target="_top" xlink:title="Class ASGE::Renderer.">
<polygon fill="none" stroke="black" points="3,-116.5 3,-137.5 92,-137.5 92,-116.5 3,-116.5"/>
<text text-anchor="middle" x="47.5" y="-123.9" font-family="Ubuntu" font-size="12.00">Renderer.hpp</text>
</a>
</g>
</g>
<!-- Node1&#45;&gt;Node2 -->
<g id="edge1" class="edge">
<title>Node1&#45;&gt;Node2</title>
<path fill="none" stroke="midnightblue" d="M37.91,-223.48C34.18,-215.29 30.36,-205.4 28.5,-196 26.6,-186.41 26.6,-183.59 28.5,-174 31.12,-160.78 37.6,-146.59 42.27,-137.52"/>
<polygon fill="midnightblue" stroke="midnightblue" points="34.76,-225.01 42.27,-232.48 41.06,-221.95 34.76,-225.01"/>
</g>
<!-- Node5 -->
<g id="node5" class="node">
<title>Node5</title>
<g id="a_node5"><a xlink:href="_resolution_8hpp_source.html" target="_top" xlink:title=" ">
<polygon fill="none" stroke="black" points="38,-174.5 38,-195.5 135,-195.5 135,-174.5 38,-174.5"/>
<text text-anchor="middle" x="86.5" y="-181.9" font-family="Ubuntu" font-size="12.00">Resolution.hpp</text>
</a>
</g>
</g>
<!-- Node1&#45;&gt;Node5 -->
<g id="edge4" class="edge">
<title>Node1&#45;&gt;Node5</title>
<path fill="none" stroke="midnightblue" d="M60.09,-223.92C66.64,-214.52 74.38,-203.4 79.78,-195.64"/>
<polygon fill="midnightblue" stroke="midnightblue" points="57.14,-222.04 54.29,-232.25 62.88,-226.04 57.14,-222.04"/>
</g>
<!-- Node3 -->
<g id="node3" class="node">
<title>Node3</title>
<g id="a_node3"><a xlink:href="_game_8hpp.html" target="_top" xlink:title="Class ASGE::Game.">
<polygon fill="none" stroke="black" points="12,-58.5 12,-79.5 83,-79.5 83,-58.5 12,-58.5"/>
<text text-anchor="middle" x="47.5" y="-65.9" font-family="Ubuntu" font-size="12.00">Game.hpp</text>
</a>
</g>
</g>
<!-- Node2&#45;&gt;Node3 -->
<g id="edge2" class="edge">
<title>Node2&#45;&gt;Node3</title>
<path fill="none" stroke="midnightblue" d="M47.5,-106.16C47.5,-97.16 47.5,-86.92 47.5,-79.64"/>
<polygon fill="midnightblue" stroke="midnightblue" points="44,-106.25 47.5,-116.25 51,-106.25 44,-106.25"/>
</g>
<!-- Node4 -->
<g id="node4" class="node">
<title>Node4</title>
<g id="a_node4"><a xlink:href="_o_g_l_game_8hpp.html" target="_top" xlink:title="Class ASGE::OGLGame.">
<polygon fill="none" stroke="black" points="0,-0.5 0,-21.5 95,-21.5 95,-0.5 0,-0.5"/>
<text text-anchor="middle" x="47.5" y="-7.9" font-family="Ubuntu" font-size="12.00">OGLGame.hpp</text>
</a>
</g>
</g>
<!-- Node3&#45;&gt;Node4 -->
<g id="edge3" class="edge">
<title>Node3&#45;&gt;Node4</title>
<path fill="none" stroke="midnightblue" d="M47.5,-48.16C47.5,-39.16 47.5,-28.92 47.5,-21.64"/>
<polygon fill="midnightblue" stroke="midnightblue" points="44,-48.25 47.5,-58.25 51,-48.25 44,-48.25"/>
</g>
<!-- Node5&#45;&gt;Node2 -->
<g id="edge5" class="edge">
<title>Node5&#45;&gt;Node2</title>
<path fill="none" stroke="midnightblue" d="M73.91,-165.92C67.36,-156.52 59.62,-145.4 54.22,-137.64"/>
<polygon fill="midnightblue" stroke="midnightblue" points="71.12,-168.04 79.71,-174.25 76.86,-164.04 71.12,-168.04"/>
</g>
</g>
</svg>
