<?xml version="1.0" encoding="UTF-8" standalone="no"?>
<!DOCTYPE svg PUBLIC "-//W3C//DTD SVG 1.1//EN"
 "http://www.w3.org/Graphics/SVG/1.1/DTD/svg11.dtd">
<!-- Generated by graphviz version 2.48.0 (0)
 -->
<!-- Title: Colours.hpp Pages: 1 -->
<svg width="253pt" height="262pt"
 viewBox="0.00 0.00 253.19 262.00" xmlns="http://www.w3.org/2000/svg" xmlns:xlink="http://www.w3.org/1999/xlink">
<g id="graph0" class="graph" transform="scale(1 1) rotate(0) translate(4 258)">
<title>Colours.hpp</title>
<!-- Node1 -->
<g id="node1" class="node">
<title>Node1</title>
<g id="a_node1"><a xlink:title="Struct ASGE::Colour, Namespace ASGE::COLOURS.">
<polygon fill="#bfbfbf" stroke="black" points="52.69,-232.5 52.69,-253.5 132.69,-253.5 132.69,-232.5 52.69,-232.5"/>
<text text-anchor="middle" x="92.69" y="-239.9" font-family="Ubuntu" font-size="12.00">Colours.hpp</text>
</a>
</g>
</g>
<!-- Node2 -->
<g id="node2" class="node">
<title>Node2</title>
<g id="a_node2"><a xlink:href="_renderer_8hpp.html" target="_top" xlink:title="Class ASGE::Renderer.">
<polygon fill="none" stroke="black" points="91.19,-116.5 91.19,-137.5 180.19,-137.5 180.19,-116.5 91.19,-116.5"/>
<text text-anchor="middle" x="135.69" y="-123.9" font-family="Ubuntu" font-size="12.00">Renderer.hpp</text>
</a>
</g>
</g>
<!-- Node1&#45;&gt;Node2 -->
<g id="edge1" class="edge">
<title>Node1&#45;&gt;Node2</title>
<path fill="none" stroke="midnightblue" d="M51.45,-228.89C21.14,-216.98 -12.09,-197.67 4.69,-174 24.13,-146.57 61.28,-135.37 91.07,-130.86"/>
<polygon fill="midnightblue" stroke="midnightblue" points="50.53,-232.28 61.12,-232.49 52.98,-225.72 50.53,-232.28"/>
</g>
<!-- Node5 -->
<g id="node5" class="node">
<title>Node5</title>
<g id="a_node5"><a xlink:href="_sprite_8hpp.html" target="_top" xlink:title="Class ASGE::Sprite, Enum ASGE::Sprite::FlipFlags, Enum ASGE::Sprite::SourceRectIndex.">
<polygon fill="none" stroke="black" points="13.69,-174.5 13.69,-195.5 85.69,-195.5 85.69,-174.5 13.69,-174.5"/>
<text text-anchor="middle" x="49.69" y="-181.9" font-family="Ubuntu" font-size="12.00">Sprite.hpp</text>
</a>
</g>
</g>
<!-- Node1&#45;&gt;Node5 -->
<g id="edge4" class="edge">
<title>Node1&#45;&gt;Node5</title>
<path fill="none" stroke="midnightblue" d="M79.03,-224.21C71.76,-214.75 63.11,-203.48 57.09,-195.64"/>
<polygon fill="midnightblue" stroke="midnightblue" points="76.33,-226.45 85.2,-232.25 81.88,-222.18 76.33,-226.45"/>
</g>
<!-- Node6 -->
<g id="node6" class="node">
<title>Node6</title>
<g id="a_node6"><a xlink:href="_text_8hpp.html" target="_top" xlink:title="Struct ASGE::Text.">
<polygon fill="none" stroke="black" points="103.69,-174.5 103.69,-195.5 167.69,-195.5 167.69,-174.5 103.69,-174.5"/>
<text text-anchor="middle" x="135.69" y="-181.9" font-family="Ubuntu" font-size="12.00">Text.hpp</text>
</a>
</g>
</g>
<!-- Node1&#45;&gt;Node6 -->
<g id="edge5" class="edge">
<title>Node1&#45;&gt;Node6</title>
<path fill="none" stroke="midnightblue" d="M106.35,-224.21C113.61,-214.75 122.27,-203.48 128.28,-195.64"/>
<polygon fill="midnightblue" stroke="midnightblue" points="103.49,-222.18 100.18,-232.25 109.04,-226.45 103.49,-222.18"/>
</g>
<!-- Node7 -->
<g id="node7" class="node">
<title>Node7</title>
<g id="a_node7"><a xlink:href="_tile_8hpp.html" target="_top" xlink:title="Class ASGE::Tile, Enum ASGE::Sprite::FlipFlags, Enum ASGE::Sprite::SourceRectIndex.">
<polygon fill="none" stroke="black" points="186.19,-174.5 186.19,-195.5 245.19,-195.5 245.19,-174.5 186.19,-174.5"/>
<text text-anchor="middle" x="215.69" y="-181.9" font-family="Ubuntu" font-size="12.00">Tile.hpp</text>
</a>
</g>
</g>
<!-- Node1&#45;&gt;Node7 -->
<g id="edge7" class="edge">
<title>Node1&#45;&gt;Node7</title>
<path fill="none" stroke="midnightblue" d="M123.19,-228.11C145.5,-217.96 175.17,-204.45 194.82,-195.5"/>
<polygon fill="midnightblue" stroke="midnightblue" points="121.48,-225.04 113.83,-232.37 124.38,-231.41 121.48,-225.04"/>
</g>
<!-- Node3 -->
<g id="node3" class="node">
<title>Node3</title>
<g id="a_node3"><a xlink:href="_game_8hpp.html" target="_top" xlink:title="Class ASGE::Game.">
<polygon fill="none" stroke="black" points="100.19,-58.5 100.19,-79.5 171.19,-79.5 171.19,-58.5 100.19,-58.5"/>
<text text-anchor="middle" x="135.69" y="-65.9" font-family="Ubuntu" font-size="12.00">Game.hpp</text>
</a>
</g>
</g>
<!-- Node2&#45;&gt;Node3 -->
<g id="edge2" class="edge">
<title>Node2&#45;&gt;Node3</title>
<path fill="none" stroke="midnightblue" d="M135.69,-106.16C135.69,-97.16 135.69,-86.92 135.69,-79.64"/>
<polygon fill="midnightblue" stroke="midnightblue" points="132.19,-106.25 135.69,-116.25 139.19,-106.25 132.19,-106.25"/>
</g>
<!-- Node4 -->
<g id="node4" class="node">
<title>Node4</title>
<g id="a_node4"><a xlink:href="_o_g_l_game_8hpp.html" target="_top" xlink:title="Class ASGE::OGLGame.">
<polygon fill="none" stroke="black" points="88.19,-0.5 88.19,-21.5 183.19,-21.5 183.19,-0.5 88.19,-0.5"/>
<text text-anchor="middle" x="135.69" y="-7.9" font-family="Ubuntu" font-size="12.00">OGLGame.hpp</text>
</a>
</g>
</g>
<!-- Node3&#45;&gt;Node4 -->
<g id="edge3" class="edge">
<title>Node3&#45;&gt;Node4</title>
<path fill="none" stroke="midnightblue" d="M135.69,-48.16C135.69,-39.16 135.69,-28.92 135.69,-21.64"/>
<polygon fill="midnightblue" stroke="midnightblue" points="132.19,-48.25 135.69,-58.25 139.19,-48.25 132.19,-48.25"/>
</g>
<!-- Node6&#45;&gt;Node2 -->
<g id="edge6" class="edge">
<title>Node6&#45;&gt;Node2</title>
<path fill="none" stroke="midnightblue" d="M135.69,-164.16C135.69,-155.16 135.69,-144.92 135.69,-137.64"/>
<polygon fill="midnightblue" stroke="midnightblue" points="132.19,-164.25 135.69,-174.25 139.19,-164.25 132.19,-164.25"/>
</g>
<!-- Node7&#45;&gt;Node2 -->
<g id="edge8" class="edge">
<title>Node7&#45;&gt;Node2</title>
<path fill="none" stroke="midnightblue" d="M193.53,-168.49C179.42,-158.61 161.57,-146.12 149.46,-137.64"/>
<polygon fill="midnightblue" stroke="midnightblue" points="191.55,-171.38 201.75,-174.25 195.57,-165.64 191.55,-171.38"/>
</g>
</g>
</svg>
