<?xml version="1.0" encoding="UTF-8" standalone="no"?>
<!DOCTYPE svg PUBLIC "-//W3C//DTD SVG 1.1//EN"
 "http://www.w3.org/Graphics/SVG/1.1/DTD/svg11.dtd">
<!-- Generated by graphviz version 2.48.0 (0)
 -->
<!-- Title: FileIO.hpp Pages: 1 -->
<svg width="204pt" height="88pt"
 viewBox="0.00 0.00 204.00 88.00" xmlns="http://www.w3.org/2000/svg" xmlns:xlink="http://www.w3.org/1999/xlink">
<g id="graph0" class="graph" transform="scale(1 1) rotate(0) translate(4 84)">
<title>FileIO.hpp</title>
<!-- Node1 -->
<g id="node1" class="node">
<title>Node1</title>
<g id="a_node1"><a xlink:title="Namespace ASGE::FILEIO, Struct ASGE::FILEIO::IOBuffer, Struct ASGE::FILEIO::File.">
<polygon fill="#bfbfbf" stroke="black" points="68.5,-58.5 68.5,-79.5 139.5,-79.5 139.5,-58.5 68.5,-58.5"/>
<text text-anchor="middle" x="104" y="-65.9" font-family="Ubuntu" font-size="12.00">FileIO.hpp</text>
</a>
</g>
</g>
<!-- Node2 -->
<g id="node2" class="node">
<title>Node2</title>
<g id="a_node2"><a xlink:title=" ">
<polygon fill="none" stroke="#bfbfbf" points="0,-0.5 0,-21.5 62,-21.5 62,-0.5 0,-0.5"/>
<text text-anchor="middle" x="31" y="-7.9" font-family="Ubuntu" font-size="12.00">memory</text>
</a>
</g>
</g>
<!-- Node1&#45;&gt;Node2 -->
<g id="edge1" class="edge">
<title>Node1&#45;&gt;Node2</title>
<path fill="none" stroke="midnightblue" d="M91.28,-58.25C80.4,-49.89 64.51,-37.71 51.78,-27.94"/>
<polygon fill="midnightblue" stroke="midnightblue" points="53.63,-24.95 43.57,-21.64 49.37,-30.51 53.63,-24.95"/>
</g>
<!-- Node3 -->
<g id="node3" class="node">
<title>Node3</title>
<g id="a_node3"><a xlink:title=" ">
<polygon fill="none" stroke="#bfbfbf" points="80.5,-0.5 80.5,-21.5 127.5,-21.5 127.5,-0.5 80.5,-0.5"/>
<text text-anchor="middle" x="104" y="-7.9" font-family="Ubuntu" font-size="12.00">string</text>
</a>
</g>
</g>
<!-- Node1&#45;&gt;Node3 -->
<g id="edge2" class="edge">
<title>Node1&#45;&gt;Node3</title>
<path fill="none" stroke="midnightblue" d="M104,-58.25C104,-50.94 104,-40.69 104,-31.7"/>
<polygon fill="midnightblue" stroke="midnightblue" points="107.5,-31.64 104,-21.64 100.5,-31.64 107.5,-31.64"/>
</g>
<!-- Node4 -->
<g id="node4" class="node">
<title>Node4</title>
<g id="a_node4"><a xlink:title=" ">
<polygon fill="none" stroke="#bfbfbf" points="146,-0.5 146,-21.5 196,-21.5 196,-0.5 146,-0.5"/>
<text text-anchor="middle" x="171" y="-7.9" font-family="Ubuntu" font-size="12.00">vector</text>
</a>
</g>
</g>
<!-- Node1&#45;&gt;Node4 -->
<g id="edge3" class="edge">
<title>Node1&#45;&gt;Node4</title>
<path fill="none" stroke="midnightblue" d="M115.67,-58.25C125.57,-49.97 139.96,-37.94 151.59,-28.22"/>
<polygon fill="midnightblue" stroke="midnightblue" points="154.03,-30.74 159.46,-21.64 149.55,-25.37 154.03,-30.74"/>
</g>
</g>
</svg>
