<?xml version="1.0" encoding="UTF-8" standalone="no"?>
<!DOCTYPE svg PUBLIC "-//W3C//DTD SVG 1.1//EN"
 "http://www.w3.org/Graphics/SVG/1.1/DTD/svg11.dtd">
<!-- Generated by graphviz version 2.48.0 (0)
 -->
<!-- Title: Font.hpp Pages: 1 -->
<svg width="472pt" height="204pt"
 viewBox="0.00 0.00 472.00 204.00" xmlns="http://www.w3.org/2000/svg" xmlns:xlink="http://www.w3.org/1999/xlink">
<g id="graph0" class="graph" transform="scale(1 1) rotate(0) translate(4 200)">
<title>Font.hpp</title>
<!-- Node1 -->
<g id="node1" class="node">
<title>Node1</title>
<g id="a_node1"><a xlink:title="Struct ASGE::Font.">
<polygon fill="#bfbfbf" stroke="black" points="306.5,-174.5 306.5,-195.5 371.5,-195.5 371.5,-174.5 306.5,-174.5"/>
<text text-anchor="middle" x="339" y="-181.9" font-family="Ubuntu" font-size="12.00">Font.hpp</text>
</a>
</g>
</g>
<!-- Node2 -->
<g id="node2" class="node">
<title>Node2</title>
<g id="a_node2"><a xlink:href="_non_copyable_8hpp.html" target="_top" xlink:title="Class ASGE::NonCopyable.">
<polygon fill="none" stroke="black" points="0,-58.5 0,-79.5 112,-79.5 112,-58.5 0,-58.5"/>
<text text-anchor="middle" x="56" y="-65.9" font-family="Ubuntu" font-size="12.00">NonCopyable.hpp</text>
</a>
</g>
</g>
<!-- Node1&#45;&gt;Node2 -->
<g id="edge1" class="edge">
<title>Node1&#45;&gt;Node2</title>
<path fill="none" stroke="midnightblue" d="M306.29,-176.32C274.47,-168.38 225.05,-154.8 184,-138 146.62,-122.7 105.8,-99.86 80.55,-84.94"/>
<polygon fill="midnightblue" stroke="midnightblue" points="82.05,-81.77 71.67,-79.65 78.46,-87.78 82.05,-81.77"/>
</g>
<!-- Node3 -->
<g id="node3" class="node">
<title>Node3</title>
<g id="a_node3"><a xlink:href="_texture_8hpp.html" target="_top" xlink:title="Class ASGE::Texture2D, Enum Class ASGE::SpriteSortMode.">
<polygon fill="none" stroke="black" points="192.5,-116.5 192.5,-137.5 273.5,-137.5 273.5,-116.5 192.5,-116.5"/>
<text text-anchor="middle" x="233" y="-123.9" font-family="Ubuntu" font-size="12.00">Texture.hpp</text>
</a>
</g>
</g>
<!-- Node1&#45;&gt;Node3 -->
<g id="edge2" class="edge">
<title>Node1&#45;&gt;Node3</title>
<path fill="none" stroke="midnightblue" d="M320.54,-174.25C303.89,-165.45 279.2,-152.41 260.28,-142.41"/>
<polygon fill="midnightblue" stroke="midnightblue" points="261.73,-139.22 251.25,-137.64 258.46,-145.41 261.73,-139.22"/>
</g>
<!-- Node5 -->
<g id="node5" class="node">
<title>Node5</title>
<g id="a_node5"><a xlink:title=" ">
<polygon fill="none" stroke="#bfbfbf" points="325.5,-0.5 325.5,-21.5 372.5,-21.5 372.5,-0.5 325.5,-0.5"/>
<text text-anchor="middle" x="349" y="-7.9" font-family="Ubuntu" font-size="12.00">string</text>
</a>
</g>
</g>
<!-- Node1&#45;&gt;Node5 -->
<g id="edge9" class="edge">
<title>Node1&#45;&gt;Node5</title>
<path fill="none" stroke="midnightblue" d="M345.09,-174.24C357.5,-153.12 383.68,-101.57 373,-58 370.63,-48.32 365.82,-38.41 361.12,-30.28"/>
<polygon fill="midnightblue" stroke="midnightblue" points="364.05,-28.35 355.82,-21.67 358.09,-32.02 364.05,-28.35"/>
</g>
<!-- Node9 -->
<g id="node9" class="node">
<title>Node9</title>
<g id="a_node9"><a xlink:title=" ">
<polygon fill="none" stroke="#bfbfbf" points="420,-116.5 420,-137.5 464,-137.5 464,-116.5 420,-116.5"/>
<text text-anchor="middle" x="442" y="-123.9" font-family="Ubuntu" font-size="12.00">tuple</text>
</a>
</g>
</g>
<!-- Node1&#45;&gt;Node9 -->
<g id="edge10" class="edge">
<title>Node1&#45;&gt;Node9</title>
<path fill="none" stroke="midnightblue" d="M356.94,-174.25C373.04,-165.49 396.89,-152.53 415.24,-142.55"/>
<polygon fill="midnightblue" stroke="midnightblue" points="417.15,-145.49 424.26,-137.64 413.81,-139.34 417.15,-145.49"/>
</g>
<!-- Node3&#45;&gt;Node2 -->
<g id="edge5" class="edge">
<title>Node3&#45;&gt;Node2</title>
<path fill="none" stroke="midnightblue" d="M202.57,-116.37C173.01,-107.02 127.98,-92.77 95.63,-82.54"/>
<polygon fill="midnightblue" stroke="midnightblue" points="96.62,-79.18 86.03,-79.5 94.51,-85.85 96.62,-79.18"/>
</g>
<!-- Node4 -->
<g id="node4" class="node">
<title>Node4</title>
<g id="a_node4"><a xlink:href="_game_settings_8hpp.html" target="_top" xlink:title="Struct ASGE::GameSettings, Enum ASGE::GameSettings::WindowMode, Enum ASGE::GameSettings::MagFilter,...">
<polygon fill="none" stroke="black" points="248,-58.5 248,-79.5 364,-79.5 364,-58.5 248,-58.5"/>
<text text-anchor="middle" x="306" y="-65.9" font-family="Ubuntu" font-size="12.00">GameSettings.hpp</text>
</a>
</g>
</g>
<!-- Node3&#45;&gt;Node4 -->
<g id="edge3" class="edge">
<title>Node3&#45;&gt;Node4</title>
<path fill="none" stroke="midnightblue" d="M245.72,-116.25C256.6,-107.89 272.49,-95.71 285.22,-85.94"/>
<polygon fill="midnightblue" stroke="midnightblue" points="287.63,-88.51 293.43,-79.64 283.37,-82.95 287.63,-88.51"/>
</g>
<!-- Node6 -->
<g id="node6" class="node">
<title>Node6</title>
<g id="a_node6"><a xlink:href="_pixel_buffer_8hpp.html" target="_top" xlink:title="Class ASGE::PixelBuffer.">
<polygon fill="none" stroke="black" points="130,-58.5 130,-79.5 230,-79.5 230,-58.5 130,-58.5"/>
<text text-anchor="middle" x="180" y="-65.9" font-family="Ubuntu" font-size="12.00">PixelBuffer.hpp</text>
</a>
</g>
</g>
<!-- Node3&#45;&gt;Node6 -->
<g id="edge6" class="edge">
<title>Node3&#45;&gt;Node6</title>
<path fill="none" stroke="midnightblue" d="M223.77,-116.25C216.17,-108.22 205.21,-96.64 196.16,-87.08"/>
<polygon fill="midnightblue" stroke="midnightblue" points="198.54,-84.5 189.13,-79.64 193.46,-89.31 198.54,-84.5"/>
</g>
<!-- Node4&#45;&gt;Node5 -->
<g id="edge4" class="edge">
<title>Node4&#45;&gt;Node5</title>
<path fill="none" stroke="midnightblue" d="M313.49,-58.25C319.53,-50.38 328.19,-39.1 335.44,-29.65"/>
<polygon fill="midnightblue" stroke="midnightblue" points="338.28,-31.71 341.6,-21.64 332.73,-27.44 338.28,-31.71"/>
</g>
<!-- Node7 -->
<g id="node7" class="node">
<title>Node7</title>
<g id="a_node7"><a xlink:title=" ">
<polygon fill="none" stroke="#bfbfbf" points="120,-0.5 120,-21.5 164,-21.5 164,-0.5 120,-0.5"/>
<text text-anchor="middle" x="142" y="-7.9" font-family="Ubuntu" font-size="12.00">array</text>
</a>
</g>
</g>
<!-- Node6&#45;&gt;Node7 -->
<g id="edge7" class="edge">
<title>Node6&#45;&gt;Node7</title>
<path fill="none" stroke="midnightblue" d="M173.38,-58.25C168.1,-50.46 160.55,-39.33 154.18,-29.94"/>
<polygon fill="midnightblue" stroke="midnightblue" points="157.05,-27.95 148.54,-21.64 151.26,-31.88 157.05,-27.95"/>
</g>
<!-- Node8 -->
<g id="node8" class="node">
<title>Node8</title>
<g id="a_node8"><a xlink:title=" ">
<polygon fill="none" stroke="#bfbfbf" points="182.5,-0.5 182.5,-21.5 235.5,-21.5 235.5,-0.5 182.5,-0.5"/>
<text text-anchor="middle" x="209" y="-7.9" font-family="Ubuntu" font-size="12.00">atomic</text>
</a>
</g>
</g>
<!-- Node6&#45;&gt;Node8 -->
<g id="edge8" class="edge">
<title>Node6&#45;&gt;Node8</title>
<path fill="none" stroke="midnightblue" d="M185.05,-58.25C189,-50.62 194.61,-39.79 199.41,-30.53"/>
<polygon fill="midnightblue" stroke="midnightblue" points="202.52,-32.13 204.01,-21.64 196.3,-28.91 202.52,-32.13"/>
</g>
</g>
</svg>
