<?xml version="1.0" encoding="UTF-8" standalone="no"?>
<!DOCTYPE svg PUBLIC "-//W3C//DTD SVG 1.1//EN"
 "http://www.w3.org/Graphics/SVG/1.1/DTD/svg11.dtd">
<!-- Generated by graphviz version 2.48.0 (0)
 -->
<!-- Title: Gamepad.hpp Pages: 1 -->
<svg width="272pt" height="88pt"
 viewBox="0.00 0.00 271.50 88.00" xmlns="http://www.w3.org/2000/svg" xmlns:xlink="http://www.w3.org/1999/xlink">
<g id="graph0" class="graph" transform="scale(1 1) rotate(0) translate(4 84)">
<title>Gamepad.hpp</title>
<!-- Node1 -->
<g id="node1" class="node">
<title>Node1</title>
<g id="a_node1"><a xlink:title="Struct ASGE::GamePadData.">
<polygon fill="#bfbfbf" stroke="black" points="118.5,-58.5 118.5,-79.5 209.5,-79.5 209.5,-58.5 118.5,-58.5"/>
<text text-anchor="middle" x="164" y="-65.9" font-family="Ubuntu" font-size="12.00">Gamepad.hpp</text>
</a>
</g>
</g>
<!-- Node2 -->
<g id="node2" class="node">
<title>Node2</title>
<g id="a_node2"><a xlink:href="_non_copyable_8hpp.html" target="_top" xlink:title="Class ASGE::NonCopyable.">
<polygon fill="none" stroke="black" points="0,-0.5 0,-21.5 112,-21.5 112,-0.5 0,-0.5"/>
<text text-anchor="middle" x="56" y="-7.9" font-family="Ubuntu" font-size="12.00">NonCopyable.hpp</text>
</a>
</g>
</g>
<!-- Node1&#45;&gt;Node2 -->
<g id="edge1" class="edge">
<title>Node1&#45;&gt;Node2</title>
<path fill="none" stroke="midnightblue" d="M145.19,-58.25C128.15,-49.41 102.84,-36.29 83.53,-26.28"/>
<polygon fill="midnightblue" stroke="midnightblue" points="85.09,-23.14 74.6,-21.64 81.86,-29.35 85.09,-23.14"/>
</g>
<!-- Node3 -->
<g id="node3" class="node">
<title>Node3</title>
<g id="a_node3"><a xlink:title=" ">
<polygon fill="none" stroke="#bfbfbf" points="130,-0.5 130,-21.5 198,-21.5 198,-0.5 130,-0.5"/>
<text text-anchor="middle" x="164" y="-7.9" font-family="Ubuntu" font-size="12.00">algorithm</text>
</a>
</g>
</g>
<!-- Node1&#45;&gt;Node3 -->
<g id="edge2" class="edge">
<title>Node1&#45;&gt;Node3</title>
<path fill="none" stroke="midnightblue" d="M164,-58.25C164,-50.94 164,-40.69 164,-31.7"/>
<polygon fill="midnightblue" stroke="midnightblue" points="167.5,-31.64 164,-21.64 160.5,-31.64 167.5,-31.64"/>
</g>
<!-- Node4 -->
<g id="node4" class="node">
<title>Node4</title>
<g id="a_node4"><a xlink:title=" ">
<polygon fill="none" stroke="#bfbfbf" points="216.5,-0.5 216.5,-21.5 263.5,-21.5 263.5,-0.5 216.5,-0.5"/>
<text text-anchor="middle" x="240" y="-7.9" font-family="Ubuntu" font-size="12.00">utility</text>
</a>
</g>
</g>
<!-- Node1&#45;&gt;Node4 -->
<g id="edge3" class="edge">
<title>Node1&#45;&gt;Node4</title>
<path fill="none" stroke="midnightblue" d="M177.24,-58.25C188.68,-49.81 205.43,-37.47 218.75,-27.66"/>
<polygon fill="midnightblue" stroke="midnightblue" points="220.94,-30.39 226.91,-21.64 216.79,-24.76 220.94,-30.39"/>
</g>
</g>
</svg>
