<?xml version="1.0" encoding="UTF-8" standalone="no"?>
<!DOCTYPE svg PUBLIC "-//W3C//DTD SVG 1.1//EN"
 "http://www.w3.org/Graphics/SVG/1.1/DTD/svg11.dtd">
<!-- Generated by graphviz version 2.48.0 (0)
 -->
<!-- Title: GameSettings.hpp Pages: 1 -->
<svg width="420pt" height="378pt"
 viewBox="0.00 0.00 420.00 378.00" xmlns="http://www.w3.org/2000/svg" xmlns:xlink="http://www.w3.org/1999/xlink">
<g id="graph0" class="graph" transform="scale(1 1) rotate(0) translate(4 374)">
<title>GameSettings.hpp</title>
<!-- Node1 -->
<g id="node1" class="node">
<title>Node1</title>
<g id="a_node1"><a xlink:title="Struct ASGE::GameSettings, Enum ASGE::GameSettings::WindowMode, Enum ASGE::GameSettings::MagFilter,...">
<polygon fill="#bfbfbf" stroke="black" points="0,-348.5 0,-369.5 116,-369.5 116,-348.5 0,-348.5"/>
<text text-anchor="middle" x="58" y="-355.9" font-family="Ubuntu" font-size="12.00">GameSettings.hpp</text>
</a>
</g>
</g>
<!-- Node2 -->
<g id="node2" class="node">
<title>Node2</title>
<g id="a_node2"><a xlink:href="_game_8hpp.html" target="_top" xlink:title="Class ASGE::Game.">
<polygon fill="none" stroke="black" points="20.5,-58.5 20.5,-79.5 91.5,-79.5 91.5,-58.5 20.5,-58.5"/>
<text text-anchor="middle" x="56" y="-65.9" font-family="Ubuntu" font-size="12.00">Game.hpp</text>
</a>
</g>
</g>
<!-- Node1&#45;&gt;Node2 -->
<g id="edge1" class="edge">
<title>Node1&#45;&gt;Node2</title>
<path fill="none" stroke="midnightblue" d="M47.66,-339.37C36.41,-317.3 20,-279.1 20,-244 20,-244 20,-244 20,-184 20,-143.74 40.67,-99.03 50.69,-79.74"/>
<polygon fill="midnightblue" stroke="midnightblue" points="44.62,-341.1 52.39,-348.3 50.81,-337.83 44.62,-341.1"/>
</g>
<!-- Node4 -->
<g id="node4" class="node">
<title>Node4</title>
<g id="a_node4"><a xlink:href="_renderer_8hpp.html" target="_top" xlink:title="Class ASGE::Renderer.">
<polygon fill="none" stroke="black" points="49.5,-116.5 49.5,-137.5 138.5,-137.5 138.5,-116.5 49.5,-116.5"/>
<text text-anchor="middle" x="94" y="-123.9" font-family="Ubuntu" font-size="12.00">Renderer.hpp</text>
</a>
</g>
</g>
<!-- Node1&#45;&gt;Node4 -->
<g id="edge3" class="edge">
<title>Node1&#45;&gt;Node4</title>
<path fill="none" stroke="midnightblue" d="M61.09,-338.23C68.51,-290.87 87.07,-172.26 92.49,-137.63"/>
<polygon fill="midnightblue" stroke="midnightblue" points="57.59,-337.99 59.5,-348.41 64.51,-339.07 57.59,-337.99"/>
</g>
<!-- Node5 -->
<g id="node5" class="node">
<title>Node5</title>
<g id="a_node5"><a xlink:href="_texture_8hpp.html" target="_top" xlink:title="Class ASGE::Texture2D, Enum Class ASGE::SpriteSortMode.">
<polygon fill="none" stroke="black" points="116.5,-290.5 116.5,-311.5 197.5,-311.5 197.5,-290.5 116.5,-290.5"/>
<text text-anchor="middle" x="157" y="-297.9" font-family="Ubuntu" font-size="12.00">Texture.hpp</text>
</a>
</g>
</g>
<!-- Node1&#45;&gt;Node5 -->
<g id="edge5" class="edge">
<title>Node1&#45;&gt;Node5</title>
<path fill="none" stroke="midnightblue" d="M84.44,-343.05C102.05,-333.08 124.68,-320.28 139.95,-311.64"/>
<polygon fill="midnightblue" stroke="midnightblue" points="82.23,-340.28 75.24,-348.25 85.67,-346.37 82.23,-340.28"/>
</g>
<!-- Node3 -->
<g id="node3" class="node">
<title>Node3</title>
<g id="a_node3"><a xlink:href="_o_g_l_game_8hpp.html" target="_top" xlink:title="Class ASGE::OGLGame.">
<polygon fill="none" stroke="black" points="8.5,-0.5 8.5,-21.5 103.5,-21.5 103.5,-0.5 8.5,-0.5"/>
<text text-anchor="middle" x="56" y="-7.9" font-family="Ubuntu" font-size="12.00">OGLGame.hpp</text>
</a>
</g>
</g>
<!-- Node2&#45;&gt;Node3 -->
<g id="edge2" class="edge">
<title>Node2&#45;&gt;Node3</title>
<path fill="none" stroke="midnightblue" d="M56,-48.16C56,-39.16 56,-28.92 56,-21.64"/>
<polygon fill="midnightblue" stroke="midnightblue" points="52.5,-48.25 56,-58.25 59.5,-48.25 52.5,-48.25"/>
</g>
<!-- Node4&#45;&gt;Node2 -->
<g id="edge4" class="edge">
<title>Node4&#45;&gt;Node2</title>
<path fill="none" stroke="midnightblue" d="M81.73,-107.92C75.35,-98.52 67.81,-87.4 62.54,-79.64"/>
<polygon fill="midnightblue" stroke="midnightblue" points="78.87,-109.94 87.38,-116.25 84.66,-106.01 78.87,-109.94"/>
</g>
<!-- Node5&#45;&gt;Node4 -->
<g id="edge9" class="edge">
<title>Node5&#45;&gt;Node4</title>
<path fill="none" stroke="midnightblue" d="M137.47,-283.41C129.26,-275.36 120.38,-265.06 115,-254 95.61,-214.11 93.7,-159.64 93.79,-137.72"/>
<polygon fill="midnightblue" stroke="midnightblue" points="135.29,-286.15 145.01,-290.37 140.04,-281.02 135.29,-286.15"/>
</g>
<!-- Node6 -->
<g id="node6" class="node">
<title>Node6</title>
<g id="a_node6"><a xlink:href="_font_8hpp.html" target="_top" xlink:title="Struct ASGE::Font.">
<polygon fill="none" stroke="black" points="124.5,-232.5 124.5,-253.5 189.5,-253.5 189.5,-232.5 124.5,-232.5"/>
<text text-anchor="middle" x="157" y="-239.9" font-family="Ubuntu" font-size="12.00">Font.hpp</text>
</a>
</g>
</g>
<!-- Node5&#45;&gt;Node6 -->
<g id="edge6" class="edge">
<title>Node5&#45;&gt;Node6</title>
<path fill="none" stroke="midnightblue" d="M157,-280.16C157,-271.16 157,-260.92 157,-253.64"/>
<polygon fill="midnightblue" stroke="midnightblue" points="153.5,-280.25 157,-290.25 160.5,-280.25 153.5,-280.25"/>
</g>
<!-- Node8 -->
<g id="node8" class="node">
<title>Node8</title>
<g id="a_node8"><a xlink:href="_render_target_8hpp.html" target="_top" xlink:title="Class ASGE::RenderTarget.">
<polygon fill="none" stroke="black" points="208,-232.5 208,-253.5 322,-253.5 322,-232.5 208,-232.5"/>
<text text-anchor="middle" x="265" y="-239.9" font-family="Ubuntu" font-size="12.00">RenderTarget.hpp</text>
</a>
</g>
</g>
<!-- Node5&#45;&gt;Node8 -->
<g id="edge10" class="edge">
<title>Node5&#45;&gt;Node8</title>
<path fill="none" stroke="midnightblue" d="M184.78,-285.6C204.14,-275.56 229.44,-262.44 246.4,-253.64"/>
<polygon fill="midnightblue" stroke="midnightblue" points="183.08,-282.54 175.81,-290.25 186.3,-288.75 183.08,-282.54"/>
</g>
<!-- Node9 -->
<g id="node9" class="node">
<title>Node9</title>
<g id="a_node9"><a xlink:href="_sprite_8hpp.html" target="_top" xlink:title="Class ASGE::Sprite, Enum ASGE::Sprite::FlipFlags, Enum ASGE::Sprite::SourceRectIndex.">
<polygon fill="none" stroke="black" points="340,-232.5 340,-253.5 412,-253.5 412,-232.5 340,-232.5"/>
<text text-anchor="middle" x="376" y="-239.9" font-family="Ubuntu" font-size="12.00">Sprite.hpp</text>
</a>
</g>
</g>
<!-- Node5&#45;&gt;Node9 -->
<g id="edge11" class="edge">
<title>Node5&#45;&gt;Node9</title>
<path fill="none" stroke="midnightblue" d="M204.35,-287.89C245.05,-277.48 302.89,-262.69 339.93,-253.22"/>
<polygon fill="midnightblue" stroke="midnightblue" points="203.47,-284.5 194.65,-290.37 205.2,-291.29 203.47,-284.5"/>
</g>
<!-- Node7 -->
<g id="node7" class="node">
<title>Node7</title>
<g id="a_node7"><a xlink:href="_text_8hpp.html" target="_top" xlink:title="Struct ASGE::Text.">
<polygon fill="none" stroke="black" points="124,-174.5 124,-195.5 188,-195.5 188,-174.5 124,-174.5"/>
<text text-anchor="middle" x="156" y="-181.9" font-family="Ubuntu" font-size="12.00">Text.hpp</text>
</a>
</g>
</g>
<!-- Node6&#45;&gt;Node7 -->
<g id="edge7" class="edge">
<title>Node6&#45;&gt;Node7</title>
<path fill="none" stroke="midnightblue" d="M156.65,-222.16C156.48,-213.16 156.3,-202.92 156.17,-195.64"/>
<polygon fill="midnightblue" stroke="midnightblue" points="153.15,-222.31 156.83,-232.25 160.15,-222.18 153.15,-222.31"/>
</g>
<!-- Node7&#45;&gt;Node4 -->
<g id="edge8" class="edge">
<title>Node7&#45;&gt;Node4</title>
<path fill="none" stroke="midnightblue" d="M137.58,-167.36C126.85,-157.67 113.71,-145.8 104.68,-137.64"/>
<polygon fill="midnightblue" stroke="midnightblue" points="135.43,-170.14 145.2,-174.25 140.13,-164.95 135.43,-170.14"/>
</g>
</g>
</svg>
