<?xml version="1.0" encoding="UTF-8" standalone="no"?>
<!DOCTYPE svg PUBLIC "-//W3C//DTD SVG 1.1//EN"
 "http://www.w3.org/Graphics/SVG/1.1/DTD/svg11.dtd">
<!-- Generated by graphviz version 2.48.0 (0)
 -->
<!-- Title: GameTime.hpp Pages: 1 -->
<svg width="156pt" height="320pt"
 viewBox="0.00 0.00 156.06 320.00" xmlns="http://www.w3.org/2000/svg" xmlns:xlink="http://www.w3.org/1999/xlink">
<g id="graph0" class="graph" transform="scale(1 1) rotate(0) translate(4 316)">
<title>GameTime.hpp</title>
<!-- Node1 -->
<g id="node1" class="node">
<title>Node1</title>
<g id="a_node1"><a xlink:title="Struct ASGE::GameTime.">
<polygon fill="#bfbfbf" stroke="black" points="50.06,-290.5 50.06,-311.5 148.06,-311.5 148.06,-290.5 50.06,-290.5"/>
<text text-anchor="middle" x="99.06" y="-297.9" font-family="Ubuntu" font-size="12.00">GameTime.hpp</text>
</a>
</g>
</g>
<!-- Node2 -->
<g id="node2" class="node">
<title>Node2</title>
<g id="a_node2"><a xlink:href="_camera_8hpp.html" target="_top" xlink:title="Class ASGE::Camera, Struct ASGE::Camera::CameraView.">
<polygon fill="none" stroke="black" points="20.56,-232.5 20.56,-253.5 101.56,-253.5 101.56,-232.5 20.56,-232.5"/>
<text text-anchor="middle" x="61.06" y="-239.9" font-family="Ubuntu" font-size="12.00">Camera.hpp</text>
</a>
</g>
</g>
<!-- Node1&#45;&gt;Node2 -->
<g id="edge1" class="edge">
<title>Node1&#45;&gt;Node2</title>
<path fill="none" stroke="midnightblue" d="M86.8,-281.92C80.42,-272.52 72.87,-261.4 67.61,-253.64"/>
<polygon fill="midnightblue" stroke="midnightblue" points="83.93,-283.94 92.45,-290.25 89.73,-280.01 83.93,-283.94"/>
</g>
<!-- Node4 -->
<g id="node4" class="node">
<title>Node4</title>
<g id="a_node4"><a xlink:href="_game_8hpp.html" target="_top" xlink:title="Class ASGE::Game.">
<polygon fill="none" stroke="black" points="63.56,-58.5 63.56,-79.5 134.56,-79.5 134.56,-58.5 63.56,-58.5"/>
<text text-anchor="middle" x="99.06" y="-65.9" font-family="Ubuntu" font-size="12.00">Game.hpp</text>
</a>
</g>
</g>
<!-- Node1&#45;&gt;Node4 -->
<g id="edge7" class="edge">
<title>Node1&#45;&gt;Node4</title>
<path fill="none" stroke="midnightblue" d="M104.17,-280.5C106.19,-272.35 108.42,-262.75 110.06,-254 121.41,-193.7 125.78,-176.23 114.06,-116 111.56,-103.14 106.54,-88.87 103,-79.69"/>
<polygon fill="midnightblue" stroke="midnightblue" points="100.78,-279.63 101.7,-290.19 107.56,-281.36 100.78,-279.63"/>
</g>
<!-- Node3 -->
<g id="node3" class="node">
<title>Node3</title>
<g id="a_node3"><a xlink:href="_renderer_8hpp.html" target="_top" xlink:title="Class ASGE::Renderer.">
<polygon fill="none" stroke="black" points="16.56,-116.5 16.56,-137.5 105.56,-137.5 105.56,-116.5 16.56,-116.5"/>
<text text-anchor="middle" x="61.06" y="-123.9" font-family="Ubuntu" font-size="12.00">Renderer.hpp</text>
</a>
</g>
</g>
<!-- Node2&#45;&gt;Node3 -->
<g id="edge2" class="edge">
<title>Node2&#45;&gt;Node3</title>
<path fill="none" stroke="midnightblue" d="M33.59,-227.02C14.1,-214.25 -6.95,-194.72 3.06,-174 10.95,-157.68 27.74,-145.39 41.24,-137.63"/>
<polygon fill="midnightblue" stroke="midnightblue" points="31.96,-230.13 42.31,-232.39 35.63,-224.17 31.96,-230.13"/>
</g>
<!-- Node6 -->
<g id="node6" class="node">
<title>Node6</title>
<g id="a_node6"><a xlink:href="_resolution_8hpp_source.html" target="_top" xlink:title=" ">
<polygon fill="none" stroke="black" points="12.56,-174.5 12.56,-195.5 109.56,-195.5 109.56,-174.5 12.56,-174.5"/>
<text text-anchor="middle" x="61.06" y="-181.9" font-family="Ubuntu" font-size="12.00">Resolution.hpp</text>
</a>
</g>
</g>
<!-- Node2&#45;&gt;Node6 -->
<g id="edge5" class="edge">
<title>Node2&#45;&gt;Node6</title>
<path fill="none" stroke="midnightblue" d="M61.06,-222.16C61.06,-213.16 61.06,-202.92 61.06,-195.64"/>
<polygon fill="midnightblue" stroke="midnightblue" points="57.56,-222.25 61.06,-232.25 64.56,-222.25 57.56,-222.25"/>
</g>
<!-- Node3&#45;&gt;Node4 -->
<g id="edge3" class="edge">
<title>Node3&#45;&gt;Node4</title>
<path fill="none" stroke="midnightblue" d="M73.33,-107.92C79.71,-98.52 87.26,-87.4 92.52,-79.64"/>
<polygon fill="midnightblue" stroke="midnightblue" points="70.4,-106.01 67.68,-116.25 76.19,-109.94 70.4,-106.01"/>
</g>
<!-- Node5 -->
<g id="node5" class="node">
<title>Node5</title>
<g id="a_node5"><a xlink:href="_o_g_l_game_8hpp.html" target="_top" xlink:title="Class ASGE::OGLGame.">
<polygon fill="none" stroke="black" points="51.56,-0.5 51.56,-21.5 146.56,-21.5 146.56,-0.5 51.56,-0.5"/>
<text text-anchor="middle" x="99.06" y="-7.9" font-family="Ubuntu" font-size="12.00">OGLGame.hpp</text>
</a>
</g>
</g>
<!-- Node4&#45;&gt;Node5 -->
<g id="edge4" class="edge">
<title>Node4&#45;&gt;Node5</title>
<path fill="none" stroke="midnightblue" d="M99.06,-48.16C99.06,-39.16 99.06,-28.92 99.06,-21.64"/>
<polygon fill="midnightblue" stroke="midnightblue" points="95.56,-48.25 99.06,-58.25 102.56,-48.25 95.56,-48.25"/>
</g>
<!-- Node6&#45;&gt;Node3 -->
<g id="edge6" class="edge">
<title>Node6&#45;&gt;Node3</title>
<path fill="none" stroke="midnightblue" d="M61.06,-164.16C61.06,-155.16 61.06,-144.92 61.06,-137.64"/>
<polygon fill="midnightblue" stroke="midnightblue" points="57.56,-164.25 61.06,-174.25 64.56,-164.25 57.56,-164.25"/>
</g>
</g>
</svg>
