<?xml version="1.0" encoding="UTF-8" standalone="no"?>
<!DOCTYPE svg PUBLIC "-//W3C//DTD SVG 1.1//EN"
 "http://www.w3.org/Graphics/SVG/1.1/DTD/svg11.dtd">
<!-- Generated by graphviz version 2.48.0 (0)
 -->
<!-- Title: Input.hpp Pages: 1 -->
<!--zoomable 204 -->
<svg id="main" version="1.1" xmlns="http://www.w3.org/2000/svg" xmlns:xlink="http://www.w3.org/1999/xlink" xml:space="preserve" onload="init(evt)">
<style type="text/css"><![CDATA[
.edge:hover path { stroke: red; }
.edge:hover polygon { stroke: red; fill: red; }
]]></style>
<script type="text/javascript"><![CDATA[
var edges = document.getElementsByTagName('g');
if (edges && edges.length) {
  for (var i=0;i<edges.length;i++) {
    if (edges[i].id.substr(0,4)=='edge') {
      edges[i].setAttribute('class','edge');
    }
  }
}
]]></script>
        <defs>
                <circle id="rim" cx="0" cy="0" r="7"/>
                <circle id="rim2" cx="0" cy="0" r="3.5"/>
                <g id="zoomPlus">
                        <use xlink:href="#rim" fill="#404040">
                                <set attributeName="fill" to="#808080" begin="zoomplus.mouseover" end="zoomplus.mouseout"/>
                        </use>
                        <path d="M-4,0h8M0,-4v8" fill="none" stroke="white" stroke-width="1.5" pointer-events="none"/>
                </g>
                <g id="zoomMin">
                        <use xlink:href="#rim" fill="#404040">
                                <set attributeName="fill" to="#808080" begin="zoomminus.mouseover" end="zoomminus.mouseout"/>
                        </use>
                        <path d="M-4,0h8" fill="none" stroke="white" stroke-width="1.5" pointer-events="none"/>
                </g>
                <g id="dirArrow">
                        <path fill="none" stroke="white" stroke-width="1.5" d="M0,-3.0v7 M-2.5,-0.5L0,-3.0L2.5,-0.5"/>
                </g>
               <g id="resetDef">
                       <use xlink:href="#rim2" fill="#404040">
                               <set attributeName="fill" to="#808080" begin="reset.mouseover" end="reset.mouseout"/>
                       </use>
               </g>
        </defs>

<script type="text/javascript">
var viewWidth = 682;
var viewHeight = 204;
var sectionId = 'dynsection-0';
</script>
<script xlink:href="svgpan.js"/>
<svg id="graph" class="graph">
<g id="viewport">
<title>Input.hpp</title>
<!-- Node1 -->
<g id="node1" class="node">
<title>Node1</title>
<g id="a_node1"><a xlink:title="Class ASGE::Input.">
<polygon fill="#bfbfbf" stroke="black" points="248,-174.5 248,-195.5 316,-195.5 316,-174.5 248,-174.5"/>
<text text-anchor="middle" x="282" y="-181.9" font-family="Ubuntu" font-size="12.00">Input.hpp</text>
</a>
</g>
</g>
<!-- Node2 -->
<g id="node2" class="node">
<title>Node2</title>
<g id="a_node2"><a xlink:title=" ">
<polygon fill="none" stroke="#bfbfbf" points="0,-116.5 0,-137.5 70,-137.5 70,-116.5 0,-116.5"/>
<text text-anchor="middle" x="35" y="-123.9" font-family="Ubuntu" font-size="12.00">functional</text>
</a>
</g>
</g>
<!-- Node1&#45;&gt;Node2 -->
<g id="edge1" class="edge">
<title>Node1&#45;&gt;Node2</title>
<path fill="none" stroke="midnightblue" d="M247.92,-176.27C204.3,-166.38 128.62,-149.23 80.22,-138.25"/>
<polygon fill="midnightblue" stroke="midnightblue" points="80.86,-134.81 70.33,-136.01 79.31,-141.63 80.86,-134.81"/>
</g>
<!-- Node3 -->
<g id="node3" class="node">
<title>Node3</title>
<g id="a_node3"><a xlink:title=" ">
<polygon fill="none" stroke="#bfbfbf" points="171,-58.5 171,-79.5 233,-79.5 233,-58.5 171,-58.5"/>
<text text-anchor="middle" x="202" y="-65.9" font-family="Ubuntu" font-size="12.00">memory</text>
</a>
</g>
</g>
<!-- Node1&#45;&gt;Node3 -->
<g id="edge2" class="edge">
<title>Node1&#45;&gt;Node3</title>
<path fill="none" stroke="midnightblue" d="M248,-179.38C204.47,-172.69 132.78,-158.78 117,-138 99.62,-115.12 132.87,-95.43 162.74,-83.21"/>
<polygon fill="midnightblue" stroke="midnightblue" points="164.2,-86.4 172.25,-79.51 161.66,-79.88 164.2,-86.4"/>
</g>
<!-- Node4 -->
<g id="node4" class="node">
<title>Node4</title>
<g id="a_node4"><a xlink:title=" ">
<polygon fill="none" stroke="#bfbfbf" points="126,-116.5 126,-137.5 228,-137.5 228,-116.5 126,-116.5"/>
<text text-anchor="middle" x="177" y="-123.9" font-family="Ubuntu" font-size="12.00">unordered_map</text>
</a>
</g>
</g>
<!-- Node1&#45;&gt;Node4 -->
<g id="edge3" class="edge">
<title>Node1&#45;&gt;Node4</title>
<path fill="none" stroke="midnightblue" d="M263.71,-174.25C247.22,-165.45 222.76,-152.41 204.02,-142.41"/>
<polygon fill="midnightblue" stroke="midnightblue" points="205.55,-139.26 195.08,-137.64 202.26,-145.44 205.55,-139.26"/>
</g>
<!-- Node5 -->
<g id="node5" class="node">
<title>Node5</title>
<g id="a_node5"><a xlink:title=" ">
<polygon fill="none" stroke="#bfbfbf" points="246,-116.5 246,-137.5 318,-137.5 318,-116.5 246,-116.5"/>
<text text-anchor="middle" x="282" y="-123.9" font-family="Ubuntu" font-size="12.00">filesystem</text>
</a>
</g>
</g>
<!-- Node1&#45;&gt;Node5 -->
<g id="edge4" class="edge">
<title>Node1&#45;&gt;Node5</title>
<path fill="none" stroke="midnightblue" d="M282,-174.25C282,-166.94 282,-156.69 282,-147.7"/>
<polygon fill="midnightblue" stroke="midnightblue" points="285.5,-147.64 282,-137.64 278.5,-147.64 285.5,-147.64"/>
</g>
<!-- Node6 -->
<g id="node6" class="node">
<title>Node6</title>
<g id="a_node6"><a xlink:href="_gamepad_8hpp.html" target="_top" xlink:title="Struct ASGE::GamePadData.">
<polygon fill="none" stroke="black" points="458.5,-116.5 458.5,-137.5 549.5,-137.5 549.5,-116.5 458.5,-116.5"/>
<text text-anchor="middle" x="504" y="-123.9" font-family="Ubuntu" font-size="12.00">Gamepad.hpp</text>
</a>
</g>
</g>
<!-- Node1&#45;&gt;Node6 -->
<g id="edge5" class="edge">
<title>Node1&#45;&gt;Node6</title>
<path fill="none" stroke="midnightblue" d="M316.2,-175.37C353.7,-165.91 414.12,-150.67 456.28,-140.04"/>
<polygon fill="midnightblue" stroke="midnightblue" points="457.2,-143.42 466.04,-137.58 455.49,-136.63 457.2,-143.42"/>
</g>
<!-- Node10 -->
<g id="node10" class="node">
<title>Node10</title>
<g id="a_node10"><a xlink:href="_input_events_8hpp.html" target="_top" xlink:title="Enum ASGE::EventType, Struct ASGE::EventData, Struct ASGE::KeyEvent, Struct ASGE::ClickEvent,...">
<polygon fill="none" stroke="black" points="336,-116.5 336,-137.5 440,-137.5 440,-116.5 336,-116.5"/>
<text text-anchor="middle" x="388" y="-123.9" font-family="Ubuntu" font-size="12.00">InputEvents.hpp</text>
</a>
</g>
</g>
<!-- Node1&#45;&gt;Node10 -->
<g id="edge9" class="edge">
<title>Node1&#45;&gt;Node10</title>
<path fill="none" stroke="midnightblue" d="M300.46,-174.25C317.11,-165.45 341.8,-152.41 360.72,-142.41"/>
<polygon fill="midnightblue" stroke="midnightblue" points="362.54,-145.41 369.75,-137.64 359.27,-139.22 362.54,-145.41"/>
</g>
<!-- Node14 -->
<g id="node14" class="node">
<title>Node14</title>
<g id="a_node14"><a xlink:href="_mouse_8hpp.html" target="_top" xlink:title="Namespace ASGE::MOUSE, Enum ASGE::MOUSE::CursorMode.">
<polygon fill="none" stroke="black" points="568,-116.5 568,-137.5 644,-137.5 644,-116.5 568,-116.5"/>
<text text-anchor="middle" x="606" y="-123.9" font-family="Ubuntu" font-size="12.00">Mouse.hpp</text>
</a>
</g>
</g>
<!-- Node1&#45;&gt;Node14 -->
<g id="edge14" class="edge">
<title>Node1&#45;&gt;Node14</title>
<path fill="none" stroke="midnightblue" d="M316.07,-178.77C366.48,-170.94 464.13,-155.4 557.84,-137.97"/>
<polygon fill="midnightblue" stroke="midnightblue" points="558.59,-141.39 567.78,-136.11 557.3,-134.51 558.59,-141.39"/>
</g>
<!-- Node7 -->
<g id="node7" class="node">
<title>Node7</title>
<g id="a_node7"><a xlink:href="_non_copyable_8hpp.html" target="_top" xlink:title="Class ASGE::NonCopyable.">
<polygon fill="none" stroke="black" points="476,-58.5 476,-79.5 588,-79.5 588,-58.5 476,-58.5"/>
<text text-anchor="middle" x="532" y="-65.9" font-family="Ubuntu" font-size="12.00">NonCopyable.hpp</text>
</a>
</g>
</g>
<!-- Node6&#45;&gt;Node7 -->
<g id="edge6" class="edge">
<title>Node6&#45;&gt;Node7</title>
<path fill="none" stroke="midnightblue" d="M508.88,-116.25C512.65,-108.7 517.99,-98.02 522.59,-88.82"/>
<polygon fill="midnightblue" stroke="midnightblue" points="525.84,-90.15 527.18,-79.64 519.58,-87.02 525.84,-90.15"/>
</g>
<!-- Node8 -->
<g id="node8" class="node">
<title>Node8</title>
<g id="a_node8"><a xlink:title=" ">
<polygon fill="none" stroke="#bfbfbf" points="606,-58.5 606,-79.5 674,-79.5 674,-58.5 606,-58.5"/>
<text text-anchor="middle" x="640" y="-65.9" font-family="Ubuntu" font-size="12.00">algorithm</text>
</a>
</g>
</g>
<!-- Node6&#45;&gt;Node8 -->
<g id="edge7" class="edge">
<title>Node6&#45;&gt;Node8</title>
<path fill="none" stroke="midnightblue" d="M527.38,-116.37C549.5,-107.26 582.91,-93.51 607.6,-83.34"/>
<polygon fill="midnightblue" stroke="midnightblue" points="609.01,-86.55 616.93,-79.5 606.35,-80.07 609.01,-86.55"/>
</g>
<!-- Node9 -->
<g id="node9" class="node">
<title>Node9</title>
<g id="a_node9"><a xlink:title=" ">
<polygon fill="none" stroke="#bfbfbf" points="410.5,-58.5 410.5,-79.5 457.5,-79.5 457.5,-58.5 410.5,-58.5"/>
<text text-anchor="middle" x="434" y="-65.9" font-family="Ubuntu" font-size="12.00">utility</text>
</a>
</g>
</g>
<!-- Node6&#45;&gt;Node9 -->
<g id="edge8" class="edge">
<title>Node6&#45;&gt;Node9</title>
<path fill="none" stroke="midnightblue" d="M491.81,-116.25C481.37,-107.89 466.13,-95.71 453.93,-85.94"/>
<polygon fill="midnightblue" stroke="midnightblue" points="456.05,-83.16 446.05,-79.64 451.68,-88.62 456.05,-83.16"/>
</g>
<!-- Node10&#45;&gt;Node3 -->
<g id="edge13" class="edge">
<title>Node10&#45;&gt;Node3</title>
<path fill="none" stroke="midnightblue" d="M356.03,-116.37C324.73,-106.95 276.94,-92.56 242.9,-82.31"/>
<polygon fill="midnightblue" stroke="midnightblue" points="243.83,-78.94 233.25,-79.41 241.81,-85.64 243.83,-78.94"/>
</g>
<!-- Node11 -->
<g id="node11" class="node">
<title>Node11</title>
<g id="a_node11"><a xlink:href="_keys_8hpp.html" target="_top" xlink:title="Namespace ASGE::KEYS.">
<polygon fill="none" stroke="black" points="327.5,-58.5 327.5,-79.5 392.5,-79.5 392.5,-58.5 327.5,-58.5"/>
<text text-anchor="middle" x="360" y="-65.9" font-family="Ubuntu" font-size="12.00">Keys.hpp</text>
</a>
</g>
</g>
<!-- Node10&#45;&gt;Node11 -->
<g id="edge10" class="edge">
<title>Node10&#45;&gt;Node11</title>
<path fill="none" stroke="midnightblue" d="M383.12,-116.25C379.35,-108.7 374.01,-98.02 369.41,-88.82"/>
<polygon fill="midnightblue" stroke="midnightblue" points="372.42,-87.02 364.82,-79.64 366.16,-90.15 372.42,-87.02"/>
</g>
<!-- Node12 -->
<g id="node12" class="node">
<title>Node12</title>
<g id="a_node12"><a xlink:title=" ">
<polygon fill="none" stroke="#bfbfbf" points="288.5,-0.5 288.5,-21.5 335.5,-21.5 335.5,-0.5 288.5,-0.5"/>
<text text-anchor="middle" x="312" y="-7.9" font-family="Ubuntu" font-size="12.00">bitset</text>
</a>
</g>
</g>
<!-- Node11&#45;&gt;Node12 -->
<g id="edge11" class="edge">
<title>Node11&#45;&gt;Node12</title>
<path fill="none" stroke="midnightblue" d="M351.64,-58.25C344.82,-50.3 335.03,-38.87 326.88,-29.37"/>
<polygon fill="midnightblue" stroke="midnightblue" points="329.43,-26.96 320.27,-21.64 324.12,-31.51 329.43,-26.96"/>
</g>
<!-- Node13 -->
<g id="node13" class="node">
<title>Node13</title>
<g id="a_node13"><a xlink:title=" ">
<polygon fill="none" stroke="#bfbfbf" points="354,-0.5 354,-21.5 462,-21.5 462,-0.5 354,-0.5"/>
<text text-anchor="middle" x="408" y="-7.9" font-family="Ubuntu" font-size="12.00">magic_enum.hpp</text>
</a>
</g>
</g>
<!-- Node11&#45;&gt;Node13 -->
<g id="edge12" class="edge">
<title>Node11&#45;&gt;Node13</title>
<path fill="none" stroke="midnightblue" d="M368.36,-58.25C375.18,-50.3 384.97,-38.87 393.12,-29.37"/>
<polygon fill="midnightblue" stroke="midnightblue" points="395.88,-31.51 399.73,-21.64 390.57,-26.96 395.88,-31.51"/>
</g>
</g>
</svg>
        <g id="navigator" transform="translate(0 0)" fill="#404254">
                <rect fill="#f2f5e9" fill-opacity="0.5" stroke="#606060" stroke-width=".5" x="0" y="0" width="60" height="60"/>
                <use id="zoomplus" xlink:href="#zoomPlus" x="17" y="9" onmousedown="handleZoom(evt,'in')"/>
                <use id="zoomminus" xlink:href="#zoomMin" x="42" y="9" onmousedown="handleZoom(evt,'out')"/>
                <use id="reset" xlink:href="#resetDef" x="30" y="36" onmousedown="handleReset()"/>
                <g id="arrowUp" xlink:href="#dirArrow" transform="translate(30 24)" onmousedown="handlePan(0,-1)">
                  <use xlink:href="#rim" fill="#404040">
                        <set attributeName="fill" to="#808080" begin="arrowUp.mouseover" end="arrowUp.mouseout"/>
                  </use>
                  <path fill="none" stroke="white" stroke-width="1.5" d="M0,-3.0v7 M-2.5,-0.5L0,-3.0L2.5,-0.5"/>
                </g>
                <g id="arrowRight" xlink:href="#dirArrow" transform="rotate(90) translate(36 -43)" onmousedown="handlePan(1,0)">
                  <use xlink:href="#rim" fill="#404040">
                        <set attributeName="fill" to="#808080" begin="arrowRight.mouseover" end="arrowRight.mouseout"/>
                  </use>
                  <path fill="none" stroke="white" stroke-width="1.5" d="M0,-3.0v7 M-2.5,-0.5L0,-3.0L2.5,-0.5"/>
                </g>
                <g id="arrowDown" xlink:href="#dirArrow" transform="rotate(180) translate(-30 -48)" onmousedown="handlePan(0,1)">
                  <use xlink:href="#rim" fill="#404040">
                        <set attributeName="fill" to="#808080" begin="arrowDown.mouseover" end="arrowDown.mouseout"/>
                  </use>
                  <path fill="none" stroke="white" stroke-width="1.5" d="M0,-3.0v7 M-2.5,-0.5L0,-3.0L2.5,-0.5"/>
                </g>
                <g id="arrowLeft" xlink:href="#dirArrow" transform="rotate(270) translate(-36 17)" onmousedown="handlePan(-1,0)">
                  <use xlink:href="#rim" fill="#404040">
                        <set attributeName="fill" to="#808080" begin="arrowLeft.mouseover" end="arrowLeft.mouseout"/>
                  </use>
                  <path fill="none" stroke="white" stroke-width="1.5" d="M0,-3.0v7 M-2.5,-0.5L0,-3.0L2.5,-0.5"/>
                </g>
        </g>
        <svg viewBox="0 0 15 15" width="100%" height="30px" preserveAspectRatio="xMaxYMin meet">
         <g id="arrow_out" transform="scale(0.3 0.3)">
          <a xlink:href="_input_8hpp__incl_org.svg" target="_base">
           <rect id="button" ry="5" rx="5" y="6" x="6" height="38" width="38"
                fill="#f2f5e9" fill-opacity="0.5" stroke="#606060" stroke-width="1.0"/>
           <path id="arrow"
             d="M 11.500037,31.436501 C 11.940474,20.09759 22.043105,11.32322 32.158766,21.979434 L 37.068811,17.246167 C 37.068811,17.246167 37.088388,32 37.088388,32 L 22.160133,31.978069 C 22.160133,31.978069 26.997745,27.140456 26.997745,27.140456 C 18.528582,18.264221 13.291696,25.230495 11.500037,31.436501 z"
             style="fill:#404040;"/>
          </a>
         </g>
        </svg>
</svg>
