<?xml version="1.0" encoding="UTF-8" standalone="no"?>
<!DOCTYPE svg PUBLIC "-//W3C//DTD SVG 1.1//EN"
 "http://www.w3.org/Graphics/SVG/1.1/DTD/svg11.dtd">
<!-- Generated by graphviz version 2.48.0 (0)
 -->
<!-- Title: InputEvents.hpp Pages: 1 -->
<svg width="193pt" height="146pt"
 viewBox="0.00 0.00 192.50 146.00" xmlns="http://www.w3.org/2000/svg" xmlns:xlink="http://www.w3.org/1999/xlink">
<g id="graph0" class="graph" transform="scale(1 1) rotate(0) translate(4 142)">
<title>InputEvents.hpp</title>
<!-- Node1 -->
<g id="node1" class="node">
<title>Node1</title>
<g id="a_node1"><a xlink:title="Enum ASGE::EventType, Struct ASGE::EventData, Struct ASGE::KeyEvent, Struct ASGE::ClickEvent,...">
<polygon fill="#bfbfbf" stroke="black" points="60.5,-116.5 60.5,-137.5 164.5,-137.5 164.5,-116.5 60.5,-116.5"/>
<text text-anchor="middle" x="112.5" y="-123.9" font-family="Ubuntu" font-size="12.00">InputEvents.hpp</text>
</a>
</g>
</g>
<!-- Node2 -->
<g id="node2" class="node">
<title>Node2</title>
<g id="a_node2"><a xlink:href="_keys_8hpp.html" target="_top" xlink:title="Namespace ASGE::KEYS.">
<polygon fill="none" stroke="black" points="39,-58.5 39,-79.5 104,-79.5 104,-58.5 39,-58.5"/>
<text text-anchor="middle" x="71.5" y="-65.9" font-family="Ubuntu" font-size="12.00">Keys.hpp</text>
</a>
</g>
</g>
<!-- Node1&#45;&gt;Node2 -->
<g id="edge1" class="edge">
<title>Node1&#45;&gt;Node2</title>
<path fill="none" stroke="midnightblue" d="M105.36,-116.25C99.66,-108.46 91.51,-97.33 84.64,-87.94"/>
<polygon fill="midnightblue" stroke="midnightblue" points="87.29,-85.64 78.56,-79.64 81.64,-89.78 87.29,-85.64"/>
</g>
<!-- Node5 -->
<g id="node5" class="node">
<title>Node5</title>
<g id="a_node5"><a xlink:title=" ">
<polygon fill="none" stroke="#bfbfbf" points="122.5,-58.5 122.5,-79.5 184.5,-79.5 184.5,-58.5 122.5,-58.5"/>
<text text-anchor="middle" x="153.5" y="-65.9" font-family="Ubuntu" font-size="12.00">memory</text>
</a>
</g>
</g>
<!-- Node1&#45;&gt;Node5 -->
<g id="edge4" class="edge">
<title>Node1&#45;&gt;Node5</title>
<path fill="none" stroke="midnightblue" d="M119.64,-116.25C125.34,-108.46 133.49,-97.33 140.36,-87.94"/>
<polygon fill="midnightblue" stroke="midnightblue" points="143.36,-89.78 146.44,-79.64 137.71,-85.64 143.36,-89.78"/>
</g>
<!-- Node3 -->
<g id="node3" class="node">
<title>Node3</title>
<g id="a_node3"><a xlink:title=" ">
<polygon fill="none" stroke="#bfbfbf" points="0,-0.5 0,-21.5 47,-21.5 47,-0.5 0,-0.5"/>
<text text-anchor="middle" x="23.5" y="-7.9" font-family="Ubuntu" font-size="12.00">bitset</text>
</a>
</g>
</g>
<!-- Node2&#45;&gt;Node3 -->
<g id="edge2" class="edge">
<title>Node2&#45;&gt;Node3</title>
<path fill="none" stroke="midnightblue" d="M63.14,-58.25C56.32,-50.3 46.53,-38.87 38.38,-29.37"/>
<polygon fill="midnightblue" stroke="midnightblue" points="40.93,-26.96 31.77,-21.64 35.62,-31.51 40.93,-26.96"/>
</g>
<!-- Node4 -->
<g id="node4" class="node">
<title>Node4</title>
<g id="a_node4"><a xlink:title=" ">
<polygon fill="none" stroke="#bfbfbf" points="65.5,-0.5 65.5,-21.5 173.5,-21.5 173.5,-0.5 65.5,-0.5"/>
<text text-anchor="middle" x="119.5" y="-7.9" font-family="Ubuntu" font-size="12.00">magic_enum.hpp</text>
</a>
</g>
</g>
<!-- Node2&#45;&gt;Node4 -->
<g id="edge3" class="edge">
<title>Node2&#45;&gt;Node4</title>
<path fill="none" stroke="midnightblue" d="M79.86,-58.25C86.68,-50.3 96.47,-38.87 104.62,-29.37"/>
<polygon fill="midnightblue" stroke="midnightblue" points="107.38,-31.51 111.23,-21.64 102.07,-26.96 107.38,-31.51"/>
</g>
</g>
</svg>
