<?xml version="1.0" encoding="UTF-8" standalone="no"?>
<!DOCTYPE svg PUBLIC "-//W3C//DTD SVG 1.1//EN"
 "http://www.w3.org/Graphics/SVG/1.1/DTD/svg11.dtd">
<!-- Generated by graphviz version 2.48.0 (0)
 -->
<!-- Title: InputEvents.hpp Pages: 1 -->
<svg width="112pt" height="204pt"
 viewBox="0.00 0.00 112.00 204.00" xmlns="http://www.w3.org/2000/svg" xmlns:xlink="http://www.w3.org/1999/xlink">
<g id="graph0" class="graph" transform="scale(1 1) rotate(0) translate(4 200)">
<title>InputEvents.hpp</title>
<!-- Node1 -->
<g id="node1" class="node">
<title>Node1</title>
<g id="a_node1"><a xlink:title="Enum ASGE::EventType, Struct ASGE::EventData, Struct ASGE::KeyEvent, Struct ASGE::ClickEvent,...">
<polygon fill="#bfbfbf" stroke="black" points="0,-174.5 0,-195.5 104,-195.5 104,-174.5 0,-174.5"/>
<text text-anchor="middle" x="52" y="-181.9" font-family="Ubuntu" font-size="12.00">InputEvents.hpp</text>
</a>
</g>
</g>
<!-- Node2 -->
<g id="node2" class="node">
<title>Node2</title>
<g id="a_node2"><a xlink:href="_input_8hpp.html" target="_top" xlink:title="Class ASGE::Input.">
<polygon fill="none" stroke="black" points="18,-116.5 18,-137.5 86,-137.5 86,-116.5 18,-116.5"/>
<text text-anchor="middle" x="52" y="-123.9" font-family="Ubuntu" font-size="12.00">Input.hpp</text>
</a>
</g>
</g>
<!-- Node1&#45;&gt;Node2 -->
<g id="edge1" class="edge">
<title>Node1&#45;&gt;Node2</title>
<path fill="none" stroke="midnightblue" d="M52,-164.16C52,-155.16 52,-144.92 52,-137.64"/>
<polygon fill="midnightblue" stroke="midnightblue" points="48.5,-164.25 52,-174.25 55.5,-164.25 48.5,-164.25"/>
</g>
<!-- Node3 -->
<g id="node3" class="node">
<title>Node3</title>
<g id="a_node3"><a xlink:href="_game_8hpp.html" target="_top" xlink:title="Class ASGE::Game.">
<polygon fill="none" stroke="black" points="16.5,-58.5 16.5,-79.5 87.5,-79.5 87.5,-58.5 16.5,-58.5"/>
<text text-anchor="middle" x="52" y="-65.9" font-family="Ubuntu" font-size="12.00">Game.hpp</text>
</a>
</g>
</g>
<!-- Node2&#45;&gt;Node3 -->
<g id="edge2" class="edge">
<title>Node2&#45;&gt;Node3</title>
<path fill="none" stroke="midnightblue" d="M52,-106.16C52,-97.16 52,-86.92 52,-79.64"/>
<polygon fill="midnightblue" stroke="midnightblue" points="48.5,-106.25 52,-116.25 55.5,-106.25 48.5,-106.25"/>
</g>
<!-- Node4 -->
<g id="node4" class="node">
<title>Node4</title>
<g id="a_node4"><a xlink:href="_o_g_l_game_8hpp.html" target="_top" xlink:title="Class ASGE::OGLGame.">
<polygon fill="none" stroke="black" points="4.5,-0.5 4.5,-21.5 99.5,-21.5 99.5,-0.5 4.5,-0.5"/>
<text text-anchor="middle" x="52" y="-7.9" font-family="Ubuntu" font-size="12.00">OGLGame.hpp</text>
</a>
</g>
</g>
<!-- Node3&#45;&gt;Node4 -->
<g id="edge3" class="edge">
<title>Node3&#45;&gt;Node4</title>
<path fill="none" stroke="midnightblue" d="M52,-48.16C52,-39.16 52,-28.92 52,-21.64"/>
<polygon fill="midnightblue" stroke="midnightblue" points="48.5,-48.25 52,-58.25 55.5,-48.25 48.5,-48.25"/>
</g>
</g>
</svg>
