<?xml version="1.0" encoding="UTF-8" standalone="no"?>
<!DOCTYPE svg PUBLIC "-//W3C//DTD SVG 1.1//EN"
 "http://www.w3.org/Graphics/SVG/1.1/DTD/svg11.dtd">
<!-- Generated by graphviz version 2.48.0 (0)
 -->
<!-- Title: Keys.hpp Pages: 1 -->
<svg width="182pt" height="88pt"
 viewBox="0.00 0.00 181.50 88.00" xmlns="http://www.w3.org/2000/svg" xmlns:xlink="http://www.w3.org/1999/xlink">
<g id="graph0" class="graph" transform="scale(1 1) rotate(0) translate(4 84)">
<title>Keys.hpp</title>
<!-- Node1 -->
<g id="node1" class="node">
<title>Node1</title>
<g id="a_node1"><a xlink:title="Namespace ASGE::KEYS.">
<polygon fill="#bfbfbf" stroke="black" points="39,-58.5 39,-79.5 104,-79.5 104,-58.5 39,-58.5"/>
<text text-anchor="middle" x="71.5" y="-65.9" font-family="Ubuntu" font-size="12.00">Keys.hpp</text>
</a>
</g>
</g>
<!-- Node2 -->
<g id="node2" class="node">
<title>Node2</title>
<g id="a_node2"><a xlink:title=" ">
<polygon fill="none" stroke="#bfbfbf" points="0,-0.5 0,-21.5 47,-21.5 47,-0.5 0,-0.5"/>
<text text-anchor="middle" x="23.5" y="-7.9" font-family="Ubuntu" font-size="12.00">bitset</text>
</a>
</g>
</g>
<!-- Node1&#45;&gt;Node2 -->
<g id="edge1" class="edge">
<title>Node1&#45;&gt;Node2</title>
<path fill="none" stroke="midnightblue" d="M63.14,-58.25C56.32,-50.3 46.53,-38.87 38.38,-29.37"/>
<polygon fill="midnightblue" stroke="midnightblue" points="40.93,-26.96 31.77,-21.64 35.62,-31.51 40.93,-26.96"/>
</g>
<!-- Node3 -->
<g id="node3" class="node">
<title>Node3</title>
<g id="a_node3"><a xlink:title=" ">
<polygon fill="none" stroke="#bfbfbf" points="65.5,-0.5 65.5,-21.5 173.5,-21.5 173.5,-0.5 65.5,-0.5"/>
<text text-anchor="middle" x="119.5" y="-7.9" font-family="Ubuntu" font-size="12.00">magic_enum.hpp</text>
</a>
</g>
</g>
<!-- Node1&#45;&gt;Node3 -->
<g id="edge2" class="edge">
<title>Node1&#45;&gt;Node3</title>
<path fill="none" stroke="midnightblue" d="M79.86,-58.25C86.68,-50.3 96.47,-38.87 104.62,-29.37"/>
<polygon fill="midnightblue" stroke="midnightblue" points="107.38,-31.51 111.23,-21.64 102.07,-26.96 107.38,-31.51"/>
</g>
</g>
</svg>
