<?xml version="1.0" encoding="UTF-8" standalone="no"?>
<!DOCTYPE svg PUBLIC "-//W3C//DTD SVG 1.1//EN"
 "http://www.w3.org/Graphics/SVG/1.1/DTD/svg11.dtd">
<!-- Generated by graphviz version 2.48.0 (0)
 -->
<!-- Title: Logger.hpp Pages: 1 -->
<svg width="854pt" height="88pt"
 viewBox="0.00 0.00 854.00 88.00" xmlns="http://www.w3.org/2000/svg" xmlns:xlink="http://www.w3.org/1999/xlink">
<g id="graph0" class="graph" transform="scale(1 1) rotate(0) translate(4 84)">
<title>Logger.hpp</title>
<!-- Node1 -->
<g id="node1" class="node">
<title>Node1</title>
<g id="a_node1"><a xlink:title="Namespace Logging.">
<polygon fill="#bfbfbf" stroke="black" points="376,-58.5 376,-79.5 453,-79.5 453,-58.5 376,-58.5"/>
<text text-anchor="middle" x="414.5" y="-65.9" font-family="Ubuntu" font-size="12.00">Logger.hpp</text>
</a>
</g>
</g>
<!-- Node2 -->
<g id="node2" class="node">
<title>Node2</title>
<g id="a_node2"><a xlink:title=" ">
<polygon fill="none" stroke="#bfbfbf" points="0,-0.5 0,-21.5 47,-21.5 47,-0.5 0,-0.5"/>
<text text-anchor="middle" x="23.5" y="-7.9" font-family="Ubuntu" font-size="12.00">string</text>
</a>
</g>
</g>
<!-- Node1&#45;&gt;Node2 -->
<g id="edge1" class="edge">
<title>Node1&#45;&gt;Node2</title>
<path fill="none" stroke="midnightblue" d="M375.87,-65.29C311.42,-60.27 177.88,-47.83 56.94,-22.02"/>
<polygon fill="midnightblue" stroke="midnightblue" points="57.66,-18.6 47.14,-19.9 56.17,-25.44 57.66,-18.6"/>
</g>
<!-- Node3 -->
<g id="node3" class="node">
<title>Node3</title>
<g id="a_node3"><a xlink:title=" ">
<polygon fill="none" stroke="#bfbfbf" points="65,-0.5 65,-21.5 134,-21.5 134,-0.5 65,-0.5"/>
<text text-anchor="middle" x="99.5" y="-7.9" font-family="Ubuntu" font-size="12.00">stdexcept</text>
</a>
</g>
</g>
<!-- Node1&#45;&gt;Node3 -->
<g id="edge2" class="edge">
<title>Node1&#45;&gt;Node3</title>
<path fill="none" stroke="midnightblue" d="M375.78,-62.12C324.98,-54.25 232.85,-39.46 144.02,-22.01"/>
<polygon fill="midnightblue" stroke="midnightblue" points="144.54,-18.55 134.05,-20.04 143.18,-25.42 144.54,-18.55"/>
</g>
<!-- Node4 -->
<g id="node4" class="node">
<title>Node4</title>
<g id="a_node4"><a xlink:title=" ">
<polygon fill="none" stroke="#bfbfbf" points="152.5,-0.5 152.5,-21.5 216.5,-21.5 216.5,-0.5 152.5,-0.5"/>
<text text-anchor="middle" x="184.5" y="-7.9" font-family="Ubuntu" font-size="12.00">iostream</text>
</a>
</g>
</g>
<!-- Node1&#45;&gt;Node4 -->
<g id="edge3" class="edge">
<title>Node1&#45;&gt;Node4</title>
<path fill="none" stroke="midnightblue" d="M375.77,-58.58C339.65,-49.79 284.01,-36.25 226.69,-22.29"/>
<polygon fill="midnightblue" stroke="midnightblue" points="227.27,-18.83 216.73,-19.86 225.62,-25.63 227.27,-18.83"/>
</g>
<!-- Node5 -->
<g id="node5" class="node">
<title>Node5</title>
<g id="a_node5"><a xlink:title=" ">
<polygon fill="none" stroke="#bfbfbf" points="235,-0.5 235,-21.5 294,-21.5 294,-0.5 235,-0.5"/>
<text text-anchor="middle" x="264.5" y="-7.9" font-family="Ubuntu" font-size="12.00">fstream</text>
</a>
</g>
</g>
<!-- Node1&#45;&gt;Node5 -->
<g id="edge4" class="edge">
<title>Node1&#45;&gt;Node5</title>
<path fill="none" stroke="midnightblue" d="M388.71,-58.37C364.1,-49.18 326.81,-35.26 299.51,-25.07"/>
<polygon fill="midnightblue" stroke="midnightblue" points="300.54,-21.72 289.95,-21.5 298.09,-28.28 300.54,-21.72"/>
</g>
<!-- Node6 -->
<g id="node6" class="node">
<title>Node6</title>
<g id="a_node6"><a xlink:title=" ">
<polygon fill="none" stroke="#bfbfbf" points="312,-0.5 312,-21.5 371,-21.5 371,-0.5 312,-0.5"/>
<text text-anchor="middle" x="341.5" y="-7.9" font-family="Ubuntu" font-size="12.00">sstream</text>
</a>
</g>
</g>
<!-- Node1&#45;&gt;Node6 -->
<g id="edge5" class="edge">
<title>Node1&#45;&gt;Node6</title>
<path fill="none" stroke="midnightblue" d="M401.78,-58.25C390.9,-49.89 375.01,-37.71 362.28,-27.94"/>
<polygon fill="midnightblue" stroke="midnightblue" points="364.13,-24.95 354.07,-21.64 359.87,-30.51 364.13,-24.95"/>
</g>
<!-- Node7 -->
<g id="node7" class="node">
<title>Node7</title>
<g id="a_node7"><a xlink:title=" ">
<polygon fill="none" stroke="#bfbfbf" points="389,-0.5 389,-21.5 440,-21.5 440,-0.5 389,-0.5"/>
<text text-anchor="middle" x="414.5" y="-7.9" font-family="Ubuntu" font-size="12.00">mutex</text>
</a>
</g>
</g>
<!-- Node1&#45;&gt;Node7 -->
<g id="edge6" class="edge">
<title>Node1&#45;&gt;Node7</title>
<path fill="none" stroke="midnightblue" d="M414.5,-58.25C414.5,-50.94 414.5,-40.69 414.5,-31.7"/>
<polygon fill="midnightblue" stroke="midnightblue" points="418,-31.64 414.5,-21.64 411,-31.64 418,-31.64"/>
</g>
<!-- Node8 -->
<g id="node8" class="node">
<title>Node8</title>
<g id="a_node8"><a xlink:title=" ">
<polygon fill="none" stroke="#bfbfbf" points="458.5,-0.5 458.5,-21.5 560.5,-21.5 560.5,-0.5 458.5,-0.5"/>
<text text-anchor="middle" x="509.5" y="-7.9" font-family="Ubuntu" font-size="12.00">unordered_map</text>
</a>
</g>
</g>
<!-- Node1&#45;&gt;Node8 -->
<g id="edge7" class="edge">
<title>Node1&#45;&gt;Node8</title>
<path fill="none" stroke="midnightblue" d="M431.05,-58.25C445.76,-49.57 467.49,-36.76 484.35,-26.82"/>
<polygon fill="midnightblue" stroke="midnightblue" points="486.3,-29.74 493.14,-21.64 482.75,-23.71 486.3,-29.74"/>
</g>
<!-- Node9 -->
<g id="node9" class="node">
<title>Node9</title>
<g id="a_node9"><a xlink:title=" ">
<polygon fill="none" stroke="#bfbfbf" points="578.5,-0.5 578.5,-21.5 640.5,-21.5 640.5,-0.5 578.5,-0.5"/>
<text text-anchor="middle" x="609.5" y="-7.9" font-family="Ubuntu" font-size="12.00">memory</text>
</a>
</g>
</g>
<!-- Node1&#45;&gt;Node9 -->
<g id="edge8" class="edge">
<title>Node1&#45;&gt;Node9</title>
<path fill="none" stroke="midnightblue" d="M448.02,-58.37C481.47,-48.77 532.89,-34 568.69,-23.72"/>
<polygon fill="midnightblue" stroke="midnightblue" points="569.7,-27.07 578.35,-20.95 567.77,-20.34 569.7,-27.07"/>
</g>
<!-- Node10 -->
<g id="node10" class="node">
<title>Node10</title>
<g id="a_node10"><a xlink:title=" ">
<polygon fill="none" stroke="#bfbfbf" points="659,-0.5 659,-21.5 712,-21.5 712,-0.5 659,-0.5"/>
<text text-anchor="middle" x="685.5" y="-7.9" font-family="Ubuntu" font-size="12.00">chrono</text>
</a>
</g>
</g>
<!-- Node1&#45;&gt;Node10 -->
<g id="edge9" class="edge">
<title>Node1&#45;&gt;Node10</title>
<path fill="none" stroke="midnightblue" d="M453.37,-61.35C498.13,-53.47 574.04,-39.48 648.77,-22.03"/>
<polygon fill="midnightblue" stroke="midnightblue" points="649.89,-25.36 658.82,-19.66 648.29,-18.55 649.89,-25.36"/>
</g>
<!-- Node11 -->
<g id="node11" class="node">
<title>Node11</title>
<g id="a_node11"><a xlink:title=" ">
<polygon fill="none" stroke="#bfbfbf" points="730,-0.5 730,-21.5 777,-21.5 777,-0.5 730,-0.5"/>
<text text-anchor="middle" x="753.5" y="-7.9" font-family="Ubuntu" font-size="12.00">ctime</text>
</a>
</g>
</g>
<!-- Node1&#45;&gt;Node11 -->
<g id="edge10" class="edge">
<title>Node1&#45;&gt;Node11</title>
<path fill="none" stroke="midnightblue" d="M453.15,-64.14C509.87,-58.07 619.07,-44.77 720.1,-22.06"/>
<polygon fill="midnightblue" stroke="midnightblue" points="720.88,-25.48 729.85,-19.84 719.32,-18.65 720.88,-25.48"/>
</g>
<!-- Node12 -->
<g id="node12" class="node">
<title>Node12</title>
<g id="a_node12"><a xlink:title=" ">
<polygon fill="none" stroke="#bfbfbf" points="795,-0.5 795,-21.5 846,-21.5 846,-0.5 795,-0.5"/>
<text text-anchor="middle" x="820.5" y="-7.9" font-family="Ubuntu" font-size="12.00">cstdlib</text>
</a>
</g>
</g>
<!-- Node1&#45;&gt;Node12 -->
<g id="edge11" class="edge">
<title>Node1&#45;&gt;Node12</title>
<path fill="none" stroke="midnightblue" d="M453.13,-65.31C519.36,-60.25 658.91,-47.61 785.16,-22.01"/>
<polygon fill="midnightblue" stroke="midnightblue" points="785.91,-25.43 794.99,-19.99 784.49,-18.58 785.91,-25.43"/>
</g>
</g>
</svg>
