<?xml version="1.0" encoding="UTF-8" standalone="no"?>
<!DOCTYPE svg PUBLIC "-//W3C//DTD SVG 1.1//EN"
 "http://www.w3.org/Graphics/SVG/1.1/DTD/svg11.dtd">
<!-- Generated by graphviz version 2.48.0 (0)
 -->
<!-- Title: Mouse.hpp Pages: 1 -->
<svg width="103pt" height="204pt"
 viewBox="0.00 0.00 103.00 204.00" xmlns="http://www.w3.org/2000/svg" xmlns:xlink="http://www.w3.org/1999/xlink">
<g id="graph0" class="graph" transform="scale(1 1) rotate(0) translate(4 200)">
<title>Mouse.hpp</title>
<!-- Node1 -->
<g id="node1" class="node">
<title>Node1</title>
<g id="a_node1"><a xlink:title="Namespace ASGE::MOUSE, Enum ASGE::MOUSE::CursorMode.">
<polygon fill="#bfbfbf" stroke="black" points="9.5,-174.5 9.5,-195.5 85.5,-195.5 85.5,-174.5 9.5,-174.5"/>
<text text-anchor="middle" x="47.5" y="-181.9" font-family="Ubuntu" font-size="12.00">Mouse.hpp</text>
</a>
</g>
</g>
<!-- Node2 -->
<g id="node2" class="node">
<title>Node2</title>
<g id="a_node2"><a xlink:href="_input_8hpp.html" target="_top" xlink:title="Class ASGE::Input.">
<polygon fill="none" stroke="black" points="13.5,-116.5 13.5,-137.5 81.5,-137.5 81.5,-116.5 13.5,-116.5"/>
<text text-anchor="middle" x="47.5" y="-123.9" font-family="Ubuntu" font-size="12.00">Input.hpp</text>
</a>
</g>
</g>
<!-- Node1&#45;&gt;Node2 -->
<g id="edge1" class="edge">
<title>Node1&#45;&gt;Node2</title>
<path fill="none" stroke="midnightblue" d="M47.5,-164.16C47.5,-155.16 47.5,-144.92 47.5,-137.64"/>
<polygon fill="midnightblue" stroke="midnightblue" points="44,-164.25 47.5,-174.25 51,-164.25 44,-164.25"/>
</g>
<!-- Node3 -->
<g id="node3" class="node">
<title>Node3</title>
<g id="a_node3"><a xlink:href="_game_8hpp.html" target="_top" xlink:title="Class ASGE::Game.">
<polygon fill="none" stroke="black" points="12,-58.5 12,-79.5 83,-79.5 83,-58.5 12,-58.5"/>
<text text-anchor="middle" x="47.5" y="-65.9" font-family="Ubuntu" font-size="12.00">Game.hpp</text>
</a>
</g>
</g>
<!-- Node2&#45;&gt;Node3 -->
<g id="edge2" class="edge">
<title>Node2&#45;&gt;Node3</title>
<path fill="none" stroke="midnightblue" d="M47.5,-106.16C47.5,-97.16 47.5,-86.92 47.5,-79.64"/>
<polygon fill="midnightblue" stroke="midnightblue" points="44,-106.25 47.5,-116.25 51,-106.25 44,-106.25"/>
</g>
<!-- Node4 -->
<g id="node4" class="node">
<title>Node4</title>
<g id="a_node4"><a xlink:href="_o_g_l_game_8hpp.html" target="_top" xlink:title="Class ASGE::OGLGame.">
<polygon fill="none" stroke="black" points="0,-0.5 0,-21.5 95,-21.5 95,-0.5 0,-0.5"/>
<text text-anchor="middle" x="47.5" y="-7.9" font-family="Ubuntu" font-size="12.00">OGLGame.hpp</text>
</a>
</g>
</g>
<!-- Node3&#45;&gt;Node4 -->
<g id="edge3" class="edge">
<title>Node3&#45;&gt;Node4</title>
<path fill="none" stroke="midnightblue" d="M47.5,-48.16C47.5,-39.16 47.5,-28.92 47.5,-21.64"/>
<polygon fill="midnightblue" stroke="midnightblue" points="44,-48.25 47.5,-58.25 51,-48.25 44,-48.25"/>
</g>
</g>
</svg>
