<?xml version="1.0" encoding="UTF-8" standalone="no"?>
<!DOCTYPE svg PUBLIC "-//W3C//DTD SVG 1.1//EN"
 "http://www.w3.org/Graphics/SVG/1.1/DTD/svg11.dtd">
<!-- Generated by graphviz version 2.48.0 (0)
 -->
<!-- Title: NonCopyable.hpp Pages: 1 -->
<svg width="433pt" height="378pt"
 viewBox="0.00 0.00 432.50 378.00" xmlns="http://www.w3.org/2000/svg" xmlns:xlink="http://www.w3.org/1999/xlink">
<g id="graph0" class="graph" transform="scale(1 1) rotate(0) translate(4 374)">
<title>NonCopyable.hpp</title>
<!-- Node1 -->
<g id="node1" class="node">
<title>Node1</title>
<g id="a_node1"><a xlink:title="Class ASGE::NonCopyable.">
<polygon fill="#bfbfbf" stroke="black" points="96.5,-348.5 96.5,-369.5 208.5,-369.5 208.5,-348.5 96.5,-348.5"/>
<text text-anchor="middle" x="152.5" y="-355.9" font-family="Ubuntu" font-size="12.00">NonCopyable.hpp</text>
</a>
</g>
</g>
<!-- Node2 -->
<g id="node2" class="node">
<title>Node2</title>
<g id="a_node2"><a xlink:href="_font_8hpp.html" target="_top" xlink:title="Struct ASGE::Font.">
<polygon fill="none" stroke="black" points="99,-232.5 99,-253.5 164,-253.5 164,-232.5 99,-232.5"/>
<text text-anchor="middle" x="131.5" y="-239.9" font-family="Ubuntu" font-size="12.00">Font.hpp</text>
</a>
</g>
</g>
<!-- Node1&#45;&gt;Node2 -->
<g id="edge1" class="edge">
<title>Node1&#45;&gt;Node2</title>
<path fill="none" stroke="midnightblue" d="M145.69,-338.62C143.08,-330.49 140.29,-320.88 138.5,-312 134.37,-291.52 132.61,-267.06 131.91,-253.77"/>
<polygon fill="midnightblue" stroke="midnightblue" points="142.43,-339.91 148.94,-348.27 149.07,-337.68 142.43,-339.91"/>
</g>
<!-- Node7 -->
<g id="node7" class="node">
<title>Node7</title>
<g id="a_node7"><a xlink:href="_gamepad_8hpp.html" target="_top" xlink:title="Struct ASGE::GamePadData.">
<polygon fill="none" stroke="black" points="0,-290.5 0,-311.5 91,-311.5 91,-290.5 0,-290.5"/>
<text text-anchor="middle" x="45.5" y="-297.9" font-family="Ubuntu" font-size="12.00">Gamepad.hpp</text>
</a>
</g>
</g>
<!-- Node1&#45;&gt;Node7 -->
<g id="edge6" class="edge">
<title>Node1&#45;&gt;Node7</title>
<path fill="none" stroke="midnightblue" d="M124.98,-343.6C105.8,-333.56 80.73,-320.44 63.92,-311.64"/>
<polygon fill="midnightblue" stroke="midnightblue" points="123.38,-346.71 133.86,-348.25 126.63,-340.51 123.38,-346.71"/>
</g>
<!-- Node9 -->
<g id="node9" class="node">
<title>Node9</title>
<g id="a_node9"><a xlink:href="_shader_8hpp.html" target="_top" xlink:title="Namespace ASGE::SHADER_LIB, Class ASGE::SHADER_LIB::Shader.">
<polygon fill="none" stroke="black" points="148,-290.5 148,-311.5 225,-311.5 225,-290.5 148,-290.5"/>
<text text-anchor="middle" x="186.5" y="-297.9" font-family="Ubuntu" font-size="12.00">Shader.hpp</text>
</a>
</g>
</g>
<!-- Node1&#45;&gt;Node9 -->
<g id="edge9" class="edge">
<title>Node1&#45;&gt;Node9</title>
<path fill="none" stroke="midnightblue" d="M163.65,-339.63C169.32,-330.29 175.98,-319.32 180.65,-311.64"/>
<polygon fill="midnightblue" stroke="midnightblue" points="160.62,-337.88 158.42,-348.25 166.6,-341.51 160.62,-337.88"/>
</g>
<!-- Node10 -->
<g id="node10" class="node">
<title>Node10</title>
<g id="a_node10"><a xlink:href="_texture_8hpp.html" target="_top" xlink:title="Class ASGE::Texture2D, Enum Class ASGE::SpriteSortMode.">
<polygon fill="none" stroke="black" points="243,-290.5 243,-311.5 324,-311.5 324,-290.5 243,-290.5"/>
<text text-anchor="middle" x="283.5" y="-297.9" font-family="Ubuntu" font-size="12.00">Texture.hpp</text>
</a>
</g>
</g>
<!-- Node1&#45;&gt;Node10 -->
<g id="edge10" class="edge">
<title>Node1&#45;&gt;Node10</title>
<path fill="none" stroke="midnightblue" d="M184.35,-344.38C208.18,-334.2 240.16,-320.53 261.27,-311.5"/>
<polygon fill="midnightblue" stroke="midnightblue" points="182.84,-341.22 175.02,-348.37 185.59,-347.66 182.84,-341.22"/>
</g>
<!-- Node3 -->
<g id="node3" class="node">
<title>Node3</title>
<g id="a_node3"><a xlink:href="_text_8hpp.html" target="_top" xlink:title="Struct ASGE::Text.">
<polygon fill="none" stroke="black" points="99.5,-174.5 99.5,-195.5 163.5,-195.5 163.5,-174.5 99.5,-174.5"/>
<text text-anchor="middle" x="131.5" y="-181.9" font-family="Ubuntu" font-size="12.00">Text.hpp</text>
</a>
</g>
</g>
<!-- Node2&#45;&gt;Node3 -->
<g id="edge2" class="edge">
<title>Node2&#45;&gt;Node3</title>
<path fill="none" stroke="midnightblue" d="M131.5,-222.16C131.5,-213.16 131.5,-202.92 131.5,-195.64"/>
<polygon fill="midnightblue" stroke="midnightblue" points="128,-222.25 131.5,-232.25 135,-222.25 128,-222.25"/>
</g>
<!-- Node4 -->
<g id="node4" class="node">
<title>Node4</title>
<g id="a_node4"><a xlink:href="_renderer_8hpp.html" target="_top" xlink:title="Class ASGE::Renderer.">
<polygon fill="none" stroke="black" points="87,-116.5 87,-137.5 176,-137.5 176,-116.5 87,-116.5"/>
<text text-anchor="middle" x="131.5" y="-123.9" font-family="Ubuntu" font-size="12.00">Renderer.hpp</text>
</a>
</g>
</g>
<!-- Node3&#45;&gt;Node4 -->
<g id="edge3" class="edge">
<title>Node3&#45;&gt;Node4</title>
<path fill="none" stroke="midnightblue" d="M131.5,-164.16C131.5,-155.16 131.5,-144.92 131.5,-137.64"/>
<polygon fill="midnightblue" stroke="midnightblue" points="128,-164.25 131.5,-174.25 135,-164.25 128,-164.25"/>
</g>
<!-- Node5 -->
<g id="node5" class="node">
<title>Node5</title>
<g id="a_node5"><a xlink:href="_game_8hpp.html" target="_top" xlink:title="Class ASGE::Game.">
<polygon fill="none" stroke="black" points="54,-58.5 54,-79.5 125,-79.5 125,-58.5 54,-58.5"/>
<text text-anchor="middle" x="89.5" y="-65.9" font-family="Ubuntu" font-size="12.00">Game.hpp</text>
</a>
</g>
</g>
<!-- Node4&#45;&gt;Node5 -->
<g id="edge4" class="edge">
<title>Node4&#45;&gt;Node5</title>
<path fill="none" stroke="midnightblue" d="M118.16,-108.21C111.06,-98.75 102.61,-87.48 96.73,-79.64"/>
<polygon fill="midnightblue" stroke="midnightblue" points="115.38,-110.35 124.18,-116.25 120.98,-106.15 115.38,-110.35"/>
</g>
<!-- Node6 -->
<g id="node6" class="node">
<title>Node6</title>
<g id="a_node6"><a xlink:href="_o_g_l_game_8hpp.html" target="_top" xlink:title="Class ASGE::OGLGame.">
<polygon fill="none" stroke="black" points="42,-0.5 42,-21.5 137,-21.5 137,-0.5 42,-0.5"/>
<text text-anchor="middle" x="89.5" y="-7.9" font-family="Ubuntu" font-size="12.00">OGLGame.hpp</text>
</a>
</g>
</g>
<!-- Node5&#45;&gt;Node6 -->
<g id="edge5" class="edge">
<title>Node5&#45;&gt;Node6</title>
<path fill="none" stroke="midnightblue" d="M89.5,-48.16C89.5,-39.16 89.5,-28.92 89.5,-21.64"/>
<polygon fill="midnightblue" stroke="midnightblue" points="86,-48.25 89.5,-58.25 93,-48.25 86,-48.25"/>
</g>
<!-- Node8 -->
<g id="node8" class="node">
<title>Node8</title>
<g id="a_node8"><a xlink:href="_input_8hpp.html" target="_top" xlink:title="Class ASGE::Input.">
<polygon fill="none" stroke="black" points="13.5,-174.5 13.5,-195.5 81.5,-195.5 81.5,-174.5 13.5,-174.5"/>
<text text-anchor="middle" x="47.5" y="-181.9" font-family="Ubuntu" font-size="12.00">Input.hpp</text>
</a>
</g>
</g>
<!-- Node7&#45;&gt;Node8 -->
<g id="edge7" class="edge">
<title>Node7&#45;&gt;Node8</title>
<path fill="none" stroke="midnightblue" d="M45.85,-280.25C46.28,-255.58 47,-214.35 47.33,-195.69"/>
<polygon fill="midnightblue" stroke="midnightblue" points="42.35,-280.22 45.67,-290.28 49.35,-280.34 42.35,-280.22"/>
</g>
<!-- Node8&#45;&gt;Node5 -->
<g id="edge8" class="edge">
<title>Node8&#45;&gt;Node5</title>
<path fill="none" stroke="midnightblue" d="M54.65,-164.58C63.73,-139.96 79.02,-98.44 85.93,-79.69"/>
<polygon fill="midnightblue" stroke="midnightblue" points="51.25,-163.69 51.08,-174.28 57.82,-166.11 51.25,-163.69"/>
</g>
<!-- Node10&#45;&gt;Node2 -->
<g id="edge11" class="edge">
<title>Node10&#45;&gt;Node2</title>
<path fill="none" stroke="midnightblue" d="M247.64,-286.79C219.89,-276.56 182.12,-262.65 157.29,-253.5"/>
<polygon fill="midnightblue" stroke="midnightblue" points="246.78,-290.2 257.37,-290.37 249.2,-283.63 246.78,-290.2"/>
</g>
<!-- Node10&#45;&gt;Node4 -->
<g id="edge12" class="edge">
<title>Node10&#45;&gt;Node4</title>
<path fill="none" stroke="midnightblue" d="M280.96,-280.18C278.38,-265.82 273.29,-246.48 263.5,-232 233.42,-187.54 178.39,-153.26 149.81,-137.5"/>
<polygon fill="midnightblue" stroke="midnightblue" points="277.56,-281.08 282.54,-290.43 284.48,-280.01 277.56,-281.08"/>
</g>
<!-- Node11 -->
<g id="node11" class="node">
<title>Node11</title>
<g id="a_node11"><a xlink:href="_render_target_8hpp.html" target="_top" xlink:title="Class ASGE::RenderTarget.">
<polygon fill="none" stroke="black" points="310.5,-232.5 310.5,-253.5 424.5,-253.5 424.5,-232.5 310.5,-232.5"/>
<text text-anchor="middle" x="367.5" y="-239.9" font-family="Ubuntu" font-size="12.00">RenderTarget.hpp</text>
</a>
</g>
</g>
<!-- Node10&#45;&gt;Node11 -->
<g id="edge13" class="edge">
<title>Node10&#45;&gt;Node11</title>
<path fill="none" stroke="midnightblue" d="M306.76,-284.49C321.59,-274.61 340.32,-262.12 353.04,-253.64"/>
<polygon fill="midnightblue" stroke="midnightblue" points="304.51,-281.79 298.13,-290.25 308.39,-287.61 304.51,-281.79"/>
</g>
<!-- Node12 -->
<g id="node12" class="node">
<title>Node12</title>
<g id="a_node12"><a xlink:href="_sprite_8hpp.html" target="_top" xlink:title="Class ASGE::Sprite, Enum ASGE::Sprite::FlipFlags, Enum ASGE::Sprite::SourceRectIndex.">
<polygon fill="none" stroke="black" points="182.5,-232.5 182.5,-253.5 254.5,-253.5 254.5,-232.5 182.5,-232.5"/>
<text text-anchor="middle" x="218.5" y="-239.9" font-family="Ubuntu" font-size="12.00">Sprite.hpp</text>
</a>
</g>
</g>
<!-- Node10&#45;&gt;Node12 -->
<g id="edge14" class="edge">
<title>Node10&#45;&gt;Node12</title>
<path fill="none" stroke="midnightblue" d="M264.52,-283.65C253.21,-273.91 239.25,-261.88 229.69,-253.64"/>
<polygon fill="midnightblue" stroke="midnightblue" points="262.32,-286.37 272.18,-290.25 266.89,-281.07 262.32,-286.37"/>
</g>
</g>
</svg>
