<?xml version="1.0" encoding="UTF-8" standalone="no"?>
<!DOCTYPE svg PUBLIC "-//W3C//DTD SVG 1.1//EN"
 "http://www.w3.org/Graphics/SVG/1.1/DTD/svg11.dtd">
<!-- Generated by graphviz version 2.48.0 (0)
 -->
<!-- Title: OGLGame.hpp Pages: 1 -->
<svg width="1696pt" height="436pt"
 viewBox="0.00 0.00 1696.00 436.00" xmlns="http://www.w3.org/2000/svg" xmlns:xlink="http://www.w3.org/1999/xlink">
<g id="graph0" class="graph" transform="scale(1 1) rotate(0) translate(4 432)">
<title>OGLGame.hpp</title>
<!-- Node1 -->
<g id="node1" class="node">
<title>Node1</title>
<g id="a_node1"><a xlink:title="Class ASGE::OGLGame.">
<polygon fill="#bfbfbf" stroke="black" points="737.5,-406.5 737.5,-427.5 832.5,-427.5 832.5,-406.5 737.5,-406.5"/>
<text text-anchor="middle" x="785" y="-413.9" font-family="Ubuntu" font-size="12.00">OGLGame.hpp</text>
</a>
</g>
</g>
<!-- Node2 -->
<g id="node2" class="node">
<title>Node2</title>
<g id="a_node2"><a xlink:href="_game_8hpp.html" target="_top" xlink:title="Class ASGE::Game.">
<polygon fill="none" stroke="black" points="749.5,-348.5 749.5,-369.5 820.5,-369.5 820.5,-348.5 749.5,-348.5"/>
<text text-anchor="middle" x="785" y="-355.9" font-family="Ubuntu" font-size="12.00">Game.hpp</text>
</a>
</g>
</g>
<!-- Node1&#45;&gt;Node2 -->
<g id="edge1" class="edge">
<title>Node1&#45;&gt;Node2</title>
<path fill="none" stroke="midnightblue" d="M785,-406.25C785,-398.94 785,-388.69 785,-379.7"/>
<polygon fill="midnightblue" stroke="midnightblue" points="788.5,-379.64 785,-369.64 781.5,-379.64 788.5,-379.64"/>
</g>
<!-- Node3 -->
<g id="node3" class="node">
<title>Node3</title>
<g id="a_node3"><a xlink:title=" ">
<polygon fill="none" stroke="#bfbfbf" points="98.5,-0.5 98.5,-21.5 151.5,-21.5 151.5,-0.5 98.5,-0.5"/>
<text text-anchor="middle" x="125" y="-7.9" font-family="Ubuntu" font-size="12.00">atomic</text>
</a>
</g>
</g>
<!-- Node2&#45;&gt;Node3 -->
<g id="edge2" class="edge">
<title>Node2&#45;&gt;Node3</title>
<path fill="none" stroke="midnightblue" d="M749.29,-357.47C629.89,-355.39 245.42,-346.14 127,-312 65.48,-294.26 0,-308.03 0,-244 0,-244 0,-244 0,-126 0,-76.79 53.53,-43.17 90.53,-25.81"/>
<polygon fill="midnightblue" stroke="midnightblue" points="92.32,-28.84 100,-21.54 89.45,-22.45 92.32,-28.84"/>
</g>
<!-- Node4 -->
<g id="node4" class="node">
<title>Node4</title>
<g id="a_node4"><a xlink:title=" ">
<polygon fill="none" stroke="#bfbfbf" points="1130,-174.5 1130,-195.5 1192,-195.5 1192,-174.5 1130,-174.5"/>
<text text-anchor="middle" x="1161" y="-181.9" font-family="Ubuntu" font-size="12.00">memory</text>
</a>
</g>
</g>
<!-- Node2&#45;&gt;Node4 -->
<g id="edge3" class="edge">
<title>Node2&#45;&gt;Node4</title>
<path fill="none" stroke="midnightblue" d="M820.89,-353.26C883.1,-343.6 1012.81,-316.98 1102,-254 1121.24,-240.41 1138.28,-219.25 1149.04,-204.15"/>
<polygon fill="midnightblue" stroke="midnightblue" points="1152.1,-205.87 1154.89,-195.65 1146.33,-201.9 1152.1,-205.87"/>
</g>
<!-- Node5 -->
<g id="node5" class="node">
<title>Node5</title>
<g id="a_node5"><a xlink:href="_game_settings_8hpp.html" target="_top" xlink:title="Struct ASGE::GameSettings, Enum ASGE::GameSettings::WindowMode, Enum ASGE::GameSettings::MagFilter,...">
<polygon fill="none" stroke="black" points="66,-58.5 66,-79.5 182,-79.5 182,-58.5 66,-58.5"/>
<text text-anchor="middle" x="124" y="-65.9" font-family="Ubuntu" font-size="12.00">GameSettings.hpp</text>
</a>
</g>
</g>
<!-- Node2&#45;&gt;Node5 -->
<g id="edge4" class="edge">
<title>Node2&#45;&gt;Node5</title>
<path fill="none" stroke="midnightblue" d="M749.47,-356.38C601.02,-349.14 38,-316.89 38,-244 38,-244 38,-244 38,-184 38,-141.9 75.84,-105.5 101.32,-85.75"/>
<polygon fill="midnightblue" stroke="midnightblue" points="103.49,-88.5 109.41,-79.71 99.3,-82.89 103.49,-88.5"/>
</g>
<!-- Node7 -->
<g id="node7" class="node">
<title>Node7</title>
<g id="a_node7"><a xlink:href="_game_time_8hpp.html" target="_top" xlink:title="Struct ASGE::GameTime.">
<polygon fill="none" stroke="black" points="806,-116.5 806,-137.5 904,-137.5 904,-116.5 806,-116.5"/>
<text text-anchor="middle" x="855" y="-123.9" font-family="Ubuntu" font-size="12.00">GameTime.hpp</text>
</a>
</g>
</g>
<!-- Node2&#45;&gt;Node7 -->
<g id="edge6" class="edge">
<title>Node2&#45;&gt;Node7</title>
<path fill="none" stroke="midnightblue" d="M802.25,-348.47C839.09,-326.98 924.72,-270.75 957,-196 968.69,-168.94 937.87,-151.25 907.12,-140.72"/>
<polygon fill="midnightblue" stroke="midnightblue" points="907.78,-137.26 897.19,-137.55 905.65,-143.93 907.78,-137.26"/>
</g>
<!-- Node9 -->
<g id="node9" class="node">
<title>Node9</title>
<g id="a_node9"><a xlink:href="_input_8hpp.html" target="_top" xlink:title="Class ASGE::Input.">
<polygon fill="none" stroke="black" points="1262,-290.5 1262,-311.5 1330,-311.5 1330,-290.5 1262,-290.5"/>
<text text-anchor="middle" x="1296" y="-297.9" font-family="Ubuntu" font-size="12.00">Input.hpp</text>
</a>
</g>
</g>
<!-- Node2&#45;&gt;Node9 -->
<g id="edge8" class="edge">
<title>Node2&#45;&gt;Node9</title>
<path fill="none" stroke="midnightblue" d="M820.53,-354.11C911.35,-344.15 1151.9,-317.79 1251.67,-306.86"/>
<polygon fill="midnightblue" stroke="midnightblue" points="1252.16,-310.33 1261.72,-305.76 1251.4,-303.37 1252.16,-310.33"/>
</g>
<!-- Node22 -->
<g id="node22" class="node">
<title>Node22</title>
<g id="a_node22"><a xlink:href="_renderer_8hpp.html" target="_top" xlink:title="Class ASGE::Renderer.">
<polygon fill="none" stroke="black" points="585.5,-290.5 585.5,-311.5 674.5,-311.5 674.5,-290.5 585.5,-290.5"/>
<text text-anchor="middle" x="630" y="-297.9" font-family="Ubuntu" font-size="12.00">Renderer.hpp</text>
</a>
</g>
</g>
<!-- Node2&#45;&gt;Node22 -->
<g id="edge23" class="edge">
<title>Node2&#45;&gt;Node22</title>
<path fill="none" stroke="midnightblue" d="M758.35,-348.37C732.8,-339.14 694.05,-325.14 665.81,-314.94"/>
<polygon fill="midnightblue" stroke="midnightblue" points="666.89,-311.61 656.3,-311.5 664.51,-318.19 666.89,-311.61"/>
</g>
<!-- Node6 -->
<g id="node6" class="node">
<title>Node6</title>
<g id="a_node6"><a xlink:title=" ">
<polygon fill="none" stroke="#bfbfbf" points="434.5,-0.5 434.5,-21.5 481.5,-21.5 481.5,-0.5 434.5,-0.5"/>
<text text-anchor="middle" x="458" y="-7.9" font-family="Ubuntu" font-size="12.00">string</text>
</a>
</g>
</g>
<!-- Node5&#45;&gt;Node6 -->
<g id="edge5" class="edge">
<title>Node5&#45;&gt;Node6</title>
<path fill="none" stroke="midnightblue" d="M181.04,-58.44C251.02,-46.7 367.39,-27.19 424.41,-17.63"/>
<polygon fill="midnightblue" stroke="midnightblue" points="425.06,-21.07 434.35,-15.97 423.9,-14.17 425.06,-21.07"/>
</g>
<!-- Node8 -->
<g id="node8" class="node">
<title>Node8</title>
<g id="a_node8"><a xlink:title=" ">
<polygon fill="none" stroke="#bfbfbf" points="828.5,-58.5 828.5,-79.5 881.5,-79.5 881.5,-58.5 828.5,-58.5"/>
<text text-anchor="middle" x="855" y="-65.9" font-family="Ubuntu" font-size="12.00">chrono</text>
</a>
</g>
</g>
<!-- Node7&#45;&gt;Node8 -->
<g id="edge7" class="edge">
<title>Node7&#45;&gt;Node8</title>
<path fill="none" stroke="midnightblue" d="M855,-116.25C855,-108.94 855,-98.69 855,-89.7"/>
<polygon fill="midnightblue" stroke="midnightblue" points="858.5,-89.64 855,-79.64 851.5,-89.64 858.5,-89.64"/>
</g>
<!-- Node9&#45;&gt;Node4 -->
<g id="edge10" class="edge">
<title>Node9&#45;&gt;Node4</title>
<path fill="none" stroke="midnightblue" d="M1261.96,-294.12C1236.92,-288.11 1203.76,-276.35 1183,-254 1170.75,-240.82 1165.32,-220.74 1162.91,-205.82"/>
<polygon fill="midnightblue" stroke="midnightblue" points="1166.35,-205.08 1161.6,-195.61 1159.41,-205.98 1166.35,-205.08"/>
</g>
<!-- Node10 -->
<g id="node10" class="node">
<title>Node10</title>
<g id="a_node10"><a xlink:title=" ">
<polygon fill="none" stroke="#bfbfbf" points="1314,-232.5 1314,-253.5 1384,-253.5 1384,-232.5 1314,-232.5"/>
<text text-anchor="middle" x="1349" y="-239.9" font-family="Ubuntu" font-size="12.00">functional</text>
</a>
</g>
</g>
<!-- Node9&#45;&gt;Node10 -->
<g id="edge9" class="edge">
<title>Node9&#45;&gt;Node10</title>
<path fill="none" stroke="midnightblue" d="M1305.23,-290.25C1312.83,-282.22 1323.79,-270.64 1332.84,-261.08"/>
<polygon fill="midnightblue" stroke="midnightblue" points="1335.54,-263.31 1339.87,-253.64 1330.46,-258.5 1335.54,-263.31"/>
</g>
<!-- Node11 -->
<g id="node11" class="node">
<title>Node11</title>
<g id="a_node11"><a xlink:title=" ">
<polygon fill="none" stroke="#bfbfbf" points="1402,-232.5 1402,-253.5 1504,-253.5 1504,-232.5 1402,-232.5"/>
<text text-anchor="middle" x="1453" y="-239.9" font-family="Ubuntu" font-size="12.00">unordered_map</text>
</a>
</g>
</g>
<!-- Node9&#45;&gt;Node11 -->
<g id="edge11" class="edge">
<title>Node9&#45;&gt;Node11</title>
<path fill="none" stroke="midnightblue" d="M1322.99,-290.37C1348.87,-281.14 1388.12,-267.14 1416.73,-256.94"/>
<polygon fill="midnightblue" stroke="midnightblue" points="1418.12,-260.16 1426.36,-253.5 1415.77,-253.56 1418.12,-260.16"/>
</g>
<!-- Node12 -->
<g id="node12" class="node">
<title>Node12</title>
<g id="a_node12"><a xlink:title=" ">
<polygon fill="none" stroke="#bfbfbf" points="1522,-232.5 1522,-253.5 1594,-253.5 1594,-232.5 1522,-232.5"/>
<text text-anchor="middle" x="1558" y="-239.9" font-family="Ubuntu" font-size="12.00">filesystem</text>
</a>
</g>
</g>
<!-- Node9&#45;&gt;Node12 -->
<g id="edge12" class="edge">
<title>Node9&#45;&gt;Node12</title>
<path fill="none" stroke="midnightblue" d="M1330.22,-292.85C1371.08,-284.3 1441.74,-269.42 1511.78,-254.25"/>
<polygon fill="midnightblue" stroke="midnightblue" points="1512.63,-257.65 1521.66,-252.11 1511.14,-250.81 1512.63,-257.65"/>
</g>
<!-- Node13 -->
<g id="node13" class="node">
<title>Node13</title>
<g id="a_node13"><a xlink:href="_gamepad_8hpp.html" target="_top" xlink:title="Struct ASGE::GamePadData.">
<polygon fill="none" stroke="black" points="968.5,-232.5 968.5,-253.5 1059.5,-253.5 1059.5,-232.5 968.5,-232.5"/>
<text text-anchor="middle" x="1014" y="-239.9" font-family="Ubuntu" font-size="12.00">Gamepad.hpp</text>
</a>
</g>
</g>
<!-- Node9&#45;&gt;Node13 -->
<g id="edge13" class="edge">
<title>Node9&#45;&gt;Node13</title>
<path fill="none" stroke="midnightblue" d="M1261.98,-293.25C1214.31,-283.78 1127.04,-266.45 1069.78,-255.08"/>
<polygon fill="midnightblue" stroke="midnightblue" points="1070.3,-251.61 1059.81,-253.1 1068.93,-258.48 1070.3,-251.61"/>
</g>
<!-- Node17 -->
<g id="node17" class="node">
<title>Node17</title>
<g id="a_node17"><a xlink:href="_input_events_8hpp.html" target="_top" xlink:title="Enum ASGE::EventType, Struct ASGE::EventData, Struct ASGE::KeyEvent, Struct ASGE::ClickEvent,...">
<polygon fill="none" stroke="black" points="1192,-232.5 1192,-253.5 1296,-253.5 1296,-232.5 1192,-232.5"/>
<text text-anchor="middle" x="1244" y="-239.9" font-family="Ubuntu" font-size="12.00">InputEvents.hpp</text>
</a>
</g>
</g>
<!-- Node9&#45;&gt;Node17 -->
<g id="edge17" class="edge">
<title>Node9&#45;&gt;Node17</title>
<path fill="none" stroke="midnightblue" d="M1286.94,-290.25C1279.49,-282.22 1268.74,-270.64 1259.86,-261.08"/>
<polygon fill="midnightblue" stroke="midnightblue" points="1262.32,-258.59 1252.95,-253.64 1257.19,-263.35 1262.32,-258.59"/>
</g>
<!-- Node21 -->
<g id="node21" class="node">
<title>Node21</title>
<g id="a_node21"><a xlink:href="_mouse_8hpp.html" target="_top" xlink:title="Namespace ASGE::MOUSE, Enum ASGE::MOUSE::CursorMode.">
<polygon fill="none" stroke="black" points="1612,-232.5 1612,-253.5 1688,-253.5 1688,-232.5 1612,-232.5"/>
<text text-anchor="middle" x="1650" y="-239.9" font-family="Ubuntu" font-size="12.00">Mouse.hpp</text>
</a>
</g>
</g>
<!-- Node9&#45;&gt;Node21 -->
<g id="edge22" class="edge">
<title>Node9&#45;&gt;Node21</title>
<path fill="none" stroke="midnightblue" d="M1330.18,-295.57C1385.22,-288.29 1497.09,-272.87 1601.72,-254.15"/>
<polygon fill="midnightblue" stroke="midnightblue" points="1602.6,-257.55 1611.82,-252.33 1601.36,-250.66 1602.6,-257.55"/>
</g>
<!-- Node14 -->
<g id="node14" class="node">
<title>Node14</title>
<g id="a_node14"><a xlink:href="_non_copyable_8hpp.html" target="_top" xlink:title="Class ASGE::NonCopyable.">
<polygon fill="none" stroke="black" points="318,-58.5 318,-79.5 430,-79.5 430,-58.5 318,-58.5"/>
<text text-anchor="middle" x="374" y="-65.9" font-family="Ubuntu" font-size="12.00">NonCopyable.hpp</text>
</a>
</g>
</g>
<!-- Node13&#45;&gt;Node14 -->
<g id="edge14" class="edge">
<title>Node13&#45;&gt;Node14</title>
<path fill="none" stroke="midnightblue" d="M1012.43,-232.39C1009.77,-218.41 1003.32,-192.18 990,-174 964.68,-139.44 953.02,-131.31 913,-116 891.26,-107.68 579.83,-84.65 440.51,-74.69"/>
<polygon fill="midnightblue" stroke="midnightblue" points="440.61,-71.19 430.39,-73.97 440.11,-78.17 440.61,-71.19"/>
</g>
<!-- Node15 -->
<g id="node15" class="node">
<title>Node15</title>
<g id="a_node15"><a xlink:title=" ">
<polygon fill="none" stroke="#bfbfbf" points="1042,-174.5 1042,-195.5 1110,-195.5 1110,-174.5 1042,-174.5"/>
<text text-anchor="middle" x="1076" y="-181.9" font-family="Ubuntu" font-size="12.00">algorithm</text>
</a>
</g>
</g>
<!-- Node13&#45;&gt;Node15 -->
<g id="edge15" class="edge">
<title>Node13&#45;&gt;Node15</title>
<path fill="none" stroke="midnightblue" d="M1024.8,-232.25C1033.87,-224.05 1047.02,-212.17 1057.72,-202.51"/>
<polygon fill="midnightblue" stroke="midnightblue" points="1060.25,-204.94 1065.32,-195.64 1055.56,-199.75 1060.25,-204.94"/>
</g>
<!-- Node16 -->
<g id="node16" class="node">
<title>Node16</title>
<g id="a_node16"><a xlink:title=" ">
<polygon fill="none" stroke="#bfbfbf" points="900.5,-174.5 900.5,-195.5 947.5,-195.5 947.5,-174.5 900.5,-174.5"/>
<text text-anchor="middle" x="924" y="-181.9" font-family="Ubuntu" font-size="12.00">utility</text>
</a>
</g>
</g>
<!-- Node13&#45;&gt;Node16 -->
<g id="edge16" class="edge">
<title>Node13&#45;&gt;Node16</title>
<path fill="none" stroke="midnightblue" d="M998.32,-232.25C984.51,-223.65 964.18,-211 948.27,-201.1"/>
<polygon fill="midnightblue" stroke="midnightblue" points="949.84,-197.95 939.5,-195.64 946.14,-203.9 949.84,-197.95"/>
</g>
<!-- Node17&#45;&gt;Node4 -->
<g id="edge21" class="edge">
<title>Node17&#45;&gt;Node4</title>
<path fill="none" stroke="midnightblue" d="M1229.54,-232.25C1216.93,-223.73 1198.41,-211.24 1183.8,-201.38"/>
<polygon fill="midnightblue" stroke="midnightblue" points="1185.54,-198.33 1175.29,-195.64 1181.62,-204.14 1185.54,-198.33"/>
</g>
<!-- Node18 -->
<g id="node18" class="node">
<title>Node18</title>
<g id="a_node18"><a xlink:href="_keys_8hpp.html" target="_top" xlink:title="Namespace ASGE::KEYS.">
<polygon fill="none" stroke="black" points="1211.5,-174.5 1211.5,-195.5 1276.5,-195.5 1276.5,-174.5 1211.5,-174.5"/>
<text text-anchor="middle" x="1244" y="-181.9" font-family="Ubuntu" font-size="12.00">Keys.hpp</text>
</a>
</g>
</g>
<!-- Node17&#45;&gt;Node18 -->
<g id="edge18" class="edge">
<title>Node17&#45;&gt;Node18</title>
<path fill="none" stroke="midnightblue" d="M1244,-232.25C1244,-224.94 1244,-214.69 1244,-205.7"/>
<polygon fill="midnightblue" stroke="midnightblue" points="1247.5,-205.64 1244,-195.64 1240.5,-205.64 1247.5,-205.64"/>
</g>
<!-- Node19 -->
<g id="node19" class="node">
<title>Node19</title>
<g id="a_node19"><a xlink:title=" ">
<polygon fill="none" stroke="#bfbfbf" points="1268.5,-116.5 1268.5,-137.5 1315.5,-137.5 1315.5,-116.5 1268.5,-116.5"/>
<text text-anchor="middle" x="1292" y="-123.9" font-family="Ubuntu" font-size="12.00">bitset</text>
</a>
</g>
</g>
<!-- Node18&#45;&gt;Node19 -->
<g id="edge19" class="edge">
<title>Node18&#45;&gt;Node19</title>
<path fill="none" stroke="midnightblue" d="M1252.36,-174.25C1259.18,-166.3 1268.97,-154.87 1277.12,-145.37"/>
<polygon fill="midnightblue" stroke="midnightblue" points="1279.88,-147.51 1283.73,-137.64 1274.57,-142.96 1279.88,-147.51"/>
</g>
<!-- Node20 -->
<g id="node20" class="node">
<title>Node20</title>
<g id="a_node20"><a xlink:title=" ">
<polygon fill="none" stroke="#bfbfbf" points="1142,-116.5 1142,-137.5 1250,-137.5 1250,-116.5 1142,-116.5"/>
<text text-anchor="middle" x="1196" y="-123.9" font-family="Ubuntu" font-size="12.00">magic_enum.hpp</text>
</a>
</g>
</g>
<!-- Node18&#45;&gt;Node20 -->
<g id="edge20" class="edge">
<title>Node18&#45;&gt;Node20</title>
<path fill="none" stroke="midnightblue" d="M1235.64,-174.25C1228.82,-166.3 1219.03,-154.87 1210.88,-145.37"/>
<polygon fill="midnightblue" stroke="midnightblue" points="1213.43,-142.96 1204.27,-137.64 1208.12,-147.51 1213.43,-142.96"/>
</g>
<!-- Node22&#45;&gt;Node4 -->
<g id="edge60" class="edge">
<title>Node22&#45;&gt;Node4</title>
<path fill="none" stroke="midnightblue" d="M674.66,-298.3C771.51,-294.12 997.83,-281.64 1069,-254 1098.28,-242.63 1126.49,-219.36 1143.78,-203.23"/>
<polygon fill="midnightblue" stroke="midnightblue" points="1146.55,-205.42 1151.35,-195.97 1141.71,-200.37 1146.55,-205.42"/>
</g>
<!-- Node22&#45;&gt;Node5 -->
<g id="edge34" class="edge">
<title>Node22&#45;&gt;Node5</title>
<path fill="none" stroke="midnightblue" d="M585.14,-299.71C526.78,-297.83 422.75,-289.25 342,-254 252.07,-214.75 170.77,-126.05 138.6,-87.95"/>
<polygon fill="midnightblue" stroke="midnightblue" points="140.92,-85.26 131.83,-79.81 135.54,-89.74 140.92,-85.26"/>
</g>
<!-- Node22&#45;&gt;Node6 -->
<g id="edge61" class="edge">
<title>Node22&#45;&gt;Node6</title>
<path fill="none" stroke="midnightblue" d="M585.23,-300.49C468.5,-298.95 157,-276.01 57,-80 52.56,-71.29 50.49,-65.3 57,-58 81.31,-30.74 332.01,-17.37 424.21,-13.35"/>
<polygon fill="midnightblue" stroke="midnightblue" points="424.55,-16.84 434.39,-12.91 424.25,-9.84 424.55,-16.84"/>
</g>
<!-- Node23 -->
<g id="node23" class="node">
<title>Node23</title>
<g id="a_node23"><a xlink:href="_camera_8hpp.html" target="_top" xlink:title="Class ASGE::Camera, Struct ASGE::Camera::CameraView.">
<polygon fill="none" stroke="black" points="626.5,-174.5 626.5,-195.5 707.5,-195.5 707.5,-174.5 626.5,-174.5"/>
<text text-anchor="middle" x="667" y="-181.9" font-family="Ubuntu" font-size="12.00">Camera.hpp</text>
</a>
</g>
</g>
<!-- Node22&#45;&gt;Node23 -->
<g id="edge24" class="edge">
<title>Node22&#45;&gt;Node23</title>
<path fill="none" stroke="midnightblue" d="M632.64,-290.25C636.29,-276.99 643.19,-252.56 650,-232 652.94,-223.14 656.48,-213.42 659.57,-205.22"/>
<polygon fill="midnightblue" stroke="midnightblue" points="662.86,-206.39 663.16,-195.8 656.32,-203.9 662.86,-206.39"/>
</g>
<!-- Node26 -->
<g id="node26" class="node">
<title>Node26</title>
<g id="a_node26"><a xlink:href="_viewport_8hpp.html" target="_top" xlink:title="Struct ASGE::Viewport.">
<polygon fill="none" stroke="black" points="546.5,-116.5 546.5,-137.5 635.5,-137.5 635.5,-116.5 546.5,-116.5"/>
<text text-anchor="middle" x="591" y="-123.9" font-family="Ubuntu" font-size="12.00">Viewport.hpp</text>
</a>
</g>
</g>
<!-- Node22&#45;&gt;Node26 -->
<g id="edge53" class="edge">
<title>Node22&#45;&gt;Node26</title>
<path fill="none" stroke="midnightblue" d="M626.7,-290.37C620.57,-272.16 607.39,-231.32 600,-196 596.65,-179.97 594.3,-161.55 592.84,-147.92"/>
<polygon fill="midnightblue" stroke="midnightblue" points="596.31,-147.36 591.83,-137.76 589.34,-148.06 596.31,-147.36"/>
</g>
<!-- Node28 -->
<g id="node28" class="node">
<title>Node28</title>
<g id="a_node28"><a xlink:href="_colours_8hpp.html" target="_top" xlink:title="Struct ASGE::Colour, Namespace ASGE::COLOURS.">
<polygon fill="none" stroke="black" points="802,-174.5 802,-195.5 882,-195.5 882,-174.5 802,-174.5"/>
<text text-anchor="middle" x="842" y="-181.9" font-family="Ubuntu" font-size="12.00">Colours.hpp</text>
</a>
</g>
</g>
<!-- Node22&#45;&gt;Node28 -->
<g id="edge32" class="edge">
<title>Node22&#45;&gt;Node28</title>
<path fill="none" stroke="midnightblue" d="M671.37,-290.46C699.06,-283.01 735.66,-271.03 765,-254 788.69,-240.25 811.66,-218.53 826.26,-203.35"/>
<polygon fill="midnightblue" stroke="midnightblue" points="829.16,-205.36 833.45,-195.68 824.06,-200.57 829.16,-205.36"/>
</g>
<!-- Node29 -->
<g id="node29" class="node">
<title>Node29</title>
<g id="a_node29"><a xlink:href="_text_8hpp.html" target="_top" xlink:title="Struct ASGE::Text.">
<polygon fill="none" stroke="black" points="444,-232.5 444,-253.5 508,-253.5 508,-232.5 444,-232.5"/>
<text text-anchor="middle" x="476" y="-239.9" font-family="Ubuntu" font-size="12.00">Text.hpp</text>
</a>
</g>
</g>
<!-- Node22&#45;&gt;Node29 -->
<g id="edge35" class="edge">
<title>Node22&#45;&gt;Node29</title>
<path fill="none" stroke="midnightblue" d="M603.53,-290.37C578.14,-281.14 539.64,-267.14 511.58,-256.94"/>
<polygon fill="midnightblue" stroke="midnightblue" points="512.72,-253.63 502.13,-253.5 510.33,-260.21 512.72,-253.63"/>
</g>
<!-- Node31 -->
<g id="node31" class="node">
<title>Node31</title>
<g id="a_node31"><a xlink:href="_texture_8hpp.html" target="_top" xlink:title="Class ASGE::Texture2D, Enum Class ASGE::SpriteSortMode.">
<polygon fill="none" stroke="black" points="209.5,-116.5 209.5,-137.5 290.5,-137.5 290.5,-116.5 209.5,-116.5"/>
<text text-anchor="middle" x="250" y="-123.9" font-family="Ubuntu" font-size="12.00">Texture.hpp</text>
</a>
</g>
</g>
<!-- Node22&#45;&gt;Node31 -->
<g id="edge50" class="edge">
<title>Node22&#45;&gt;Node31</title>
<path fill="none" stroke="midnightblue" d="M585.25,-297.7C514.32,-291.8 375.29,-270.79 289,-196 273.79,-182.82 263.14,-162.18 256.86,-147.09"/>
<polygon fill="midnightblue" stroke="midnightblue" points="260.09,-145.74 253.2,-137.69 253.56,-148.28 260.09,-145.74"/>
</g>
<!-- Node35 -->
<g id="node35" class="node">
<title>Node35</title>
<g id="a_node35"><a xlink:href="_tile_8hpp.html" target="_top" xlink:title="Class ASGE::Tile, Enum ASGE::Sprite::FlipFlags, Enum ASGE::Sprite::SourceRectIndex.">
<polygon fill="none" stroke="black" points="812.5,-232.5 812.5,-253.5 871.5,-253.5 871.5,-232.5 812.5,-232.5"/>
<text text-anchor="middle" x="842" y="-239.9" font-family="Ubuntu" font-size="12.00">Tile.hpp</text>
</a>
</g>
</g>
<!-- Node22&#45;&gt;Node35 -->
<g id="edge51" class="edge">
<title>Node22&#45;&gt;Node35</title>
<path fill="none" stroke="midnightblue" d="M666.44,-290.37C704.26,-280.38 763.23,-264.81 802.24,-254.5"/>
<polygon fill="midnightblue" stroke="midnightblue" points="803.41,-257.81 812.18,-251.88 801.62,-251.05 803.41,-257.81"/>
</g>
<!-- Node36 -->
<g id="node36" class="node">
<title>Node36</title>
<g id="a_node36"><a xlink:href="_resolution_8hpp_source.html" target="_top" xlink:title=" ">
<polygon fill="none" stroke="black" points="658.5,-232.5 658.5,-253.5 755.5,-253.5 755.5,-232.5 658.5,-232.5"/>
<text text-anchor="middle" x="707" y="-239.9" font-family="Ubuntu" font-size="12.00">Resolution.hpp</text>
</a>
</g>
</g>
<!-- Node22&#45;&gt;Node36 -->
<g id="edge54" class="edge">
<title>Node22&#45;&gt;Node36</title>
<path fill="none" stroke="midnightblue" d="M643.41,-290.25C655.01,-281.81 671.97,-269.47 685.47,-259.66"/>
<polygon fill="midnightblue" stroke="midnightblue" points="687.71,-262.36 693.74,-253.64 683.6,-256.69 687.71,-262.36"/>
</g>
<!-- Node23&#45;&gt;Node7 -->
<g id="edge25" class="edge">
<title>Node23&#45;&gt;Node7</title>
<path fill="none" stroke="midnightblue" d="M699.32,-174.37C730.85,-164.98 778.96,-150.65 813.35,-140.41"/>
<polygon fill="midnightblue" stroke="midnightblue" points="814.52,-143.71 823.1,-137.5 812.52,-137 814.52,-143.71"/>
</g>
<!-- Node24 -->
<g id="node24" class="node">
<title>Node24</title>
<g id="a_node24"><a xlink:href="_point2_d_8hpp.html" target="_top" xlink:title="Class ASGE::Point2D.">
<polygon fill="none" stroke="black" points="530.5,-58.5 530.5,-79.5 613.5,-79.5 613.5,-58.5 530.5,-58.5"/>
<text text-anchor="middle" x="572" y="-65.9" font-family="Ubuntu" font-size="12.00">Point2D.hpp</text>
</a>
</g>
</g>
<!-- Node23&#45;&gt;Node24 -->
<g id="edge26" class="edge">
<title>Node23&#45;&gt;Node24</title>
<path fill="none" stroke="midnightblue" d="M665.96,-174.24C664.01,-160.09 658.71,-133.63 645,-116 634.44,-102.42 618.67,-91.76 604.48,-84.14"/>
<polygon fill="midnightblue" stroke="midnightblue" points="605.96,-80.97 595.45,-79.58 602.8,-87.22 605.96,-80.97"/>
</g>
<!-- Node25 -->
<g id="node25" class="node">
<title>Node25</title>
<g id="a_node25"><a xlink:title=" ">
<polygon fill="none" stroke="#bfbfbf" points="718,-0.5 718,-21.5 762,-21.5 762,-0.5 718,-0.5"/>
<text text-anchor="middle" x="740" y="-7.9" font-family="Ubuntu" font-size="12.00">array</text>
</a>
</g>
</g>
<!-- Node23&#45;&gt;Node25 -->
<g id="edge31" class="edge">
<title>Node23&#45;&gt;Node25</title>
<path fill="none" stroke="midnightblue" d="M671.28,-174.27C679.34,-155.9 697.31,-114.8 712,-80 718.96,-63.5 726.7,-44.67 732.28,-31.02"/>
<polygon fill="midnightblue" stroke="midnightblue" points="735.54,-32.29 736.07,-21.71 729.05,-29.65 735.54,-32.29"/>
</g>
<!-- Node23&#45;&gt;Node26 -->
<g id="edge29" class="edge">
<title>Node23&#45;&gt;Node26</title>
<path fill="none" stroke="midnightblue" d="M653.76,-174.25C642.32,-165.81 625.57,-153.47 612.25,-143.66"/>
<polygon fill="midnightblue" stroke="midnightblue" points="614.21,-140.76 604.09,-137.64 610.06,-146.39 614.21,-140.76"/>
</g>
<!-- Node24&#45;&gt;Node6 -->
<g id="edge28" class="edge">
<title>Node24&#45;&gt;Node6</title>
<path fill="none" stroke="midnightblue" d="M552.4,-58.37C534.27,-49.46 507.09,-36.11 486.54,-26.02"/>
<polygon fill="midnightblue" stroke="midnightblue" points="487.86,-22.77 477.34,-21.5 484.77,-29.05 487.86,-22.77"/>
</g>
<!-- Node24&#45;&gt;Node25 -->
<g id="edge27" class="edge">
<title>Node24&#45;&gt;Node25</title>
<path fill="none" stroke="midnightblue" d="M600.88,-58.37C630.72,-48.43 677.17,-32.94 708.08,-22.64"/>
<polygon fill="midnightblue" stroke="midnightblue" points="709.54,-25.84 717.92,-19.36 707.33,-19.2 709.54,-25.84"/>
</g>
<!-- Node27 -->
<g id="node27" class="node">
<title>Node27</title>
<g id="a_node27"><a xlink:title=" ">
<polygon fill="none" stroke="#bfbfbf" points="649.5,-58.5 649.5,-79.5 702.5,-79.5 702.5,-58.5 649.5,-58.5"/>
<text text-anchor="middle" x="676" y="-65.9" font-family="Ubuntu" font-size="12.00">cstdint</text>
</a>
</g>
</g>
<!-- Node26&#45;&gt;Node27 -->
<g id="edge30" class="edge">
<title>Node26&#45;&gt;Node27</title>
<path fill="none" stroke="midnightblue" d="M605.81,-116.25C618.73,-107.73 637.69,-95.24 652.66,-85.38"/>
<polygon fill="midnightblue" stroke="midnightblue" points="654.94,-88.07 661.36,-79.64 651.09,-82.22 654.94,-88.07"/>
</g>
<!-- Node28&#45;&gt;Node25 -->
<g id="edge33" class="edge">
<title>Node28&#45;&gt;Node25</title>
<path fill="none" stroke="midnightblue" d="M868.6,-174.4C884.59,-167.08 903.6,-155.29 913,-138 926.38,-113.4 895.91,-62.6 891,-58 858.4,-27.51 806.16,-17.2 772.47,-13.73"/>
<polygon fill="midnightblue" stroke="midnightblue" points="772.5,-10.22 762.23,-12.83 771.88,-17.19 772.5,-10.22"/>
</g>
<!-- Node29&#45;&gt;Node6 -->
<g id="edge49" class="edge">
<title>Node29&#45;&gt;Node6</title>
<path fill="none" stroke="midnightblue" d="M452.89,-232.49C437.97,-224.99 419.77,-212.94 411,-196 393.77,-162.7 440.67,-148.25 457,-80 460.78,-64.21 460.79,-45.77 459.98,-32.07"/>
<polygon fill="midnightblue" stroke="midnightblue" points="463.45,-31.55 459.19,-21.85 456.48,-32.09 463.45,-31.55"/>
</g>
<!-- Node29&#45;&gt;Node28 -->
<g id="edge36" class="edge">
<title>Node29&#45;&gt;Node28</title>
<path fill="none" stroke="midnightblue" d="M508.16,-237.08C571.97,-227.32 715,-205.43 791.49,-193.73"/>
<polygon fill="midnightblue" stroke="midnightblue" points="792.47,-197.12 801.83,-192.15 791.41,-190.2 792.47,-197.12"/>
</g>
<!-- Node30 -->
<g id="node30" class="node">
<title>Node30</title>
<g id="a_node30"><a xlink:href="_font_8hpp.html" target="_top" xlink:title="Struct ASGE::Font.">
<polygon fill="none" stroke="black" points="298.5,-174.5 298.5,-195.5 363.5,-195.5 363.5,-174.5 298.5,-174.5"/>
<text text-anchor="middle" x="331" y="-181.9" font-family="Ubuntu" font-size="12.00">Font.hpp</text>
</a>
</g>
</g>
<!-- Node29&#45;&gt;Node30 -->
<g id="edge37" class="edge">
<title>Node29&#45;&gt;Node30</title>
<path fill="none" stroke="midnightblue" d="M451.07,-232.37C427.38,-223.22 391.55,-209.38 365.19,-199.21"/>
<polygon fill="midnightblue" stroke="midnightblue" points="366.19,-195.84 355.6,-195.5 363.67,-202.37 366.19,-195.84"/>
</g>
<!-- Node34 -->
<g id="node34" class="node">
<title>Node34</title>
<g id="a_node34"><a xlink:href="_sprite_bounds_8hpp.html" target="_top" xlink:title="Struct ASGE::SpriteBounds.">
<polygon fill="none" stroke="black" points="420,-174.5 420,-195.5 532,-195.5 532,-174.5 420,-174.5"/>
<text text-anchor="middle" x="476" y="-181.9" font-family="Ubuntu" font-size="12.00">SpriteBounds.hpp</text>
</a>
</g>
</g>
<!-- Node29&#45;&gt;Node34 -->
<g id="edge47" class="edge">
<title>Node29&#45;&gt;Node34</title>
<path fill="none" stroke="midnightblue" d="M476,-232.25C476,-224.94 476,-214.69 476,-205.7"/>
<polygon fill="midnightblue" stroke="midnightblue" points="479.5,-205.64 476,-195.64 472.5,-205.64 479.5,-205.64"/>
</g>
<!-- Node30&#45;&gt;Node6 -->
<g id="edge45" class="edge">
<title>Node30&#45;&gt;Node6</title>
<path fill="none" stroke="midnightblue" d="M345.25,-174.25C368.43,-157.65 414.22,-121.59 439,-80 447.81,-65.21 452.67,-46.18 455.27,-32.02"/>
<polygon fill="midnightblue" stroke="midnightblue" points="458.77,-32.3 456.89,-21.87 451.86,-31.19 458.77,-32.3"/>
</g>
<!-- Node30&#45;&gt;Node14 -->
<g id="edge38" class="edge">
<title>Node30&#45;&gt;Node14</title>
<path fill="none" stroke="midnightblue" d="M339.2,-174.46C346.36,-165.6 356.45,-151.75 362,-138 368.24,-122.54 371.24,-103.81 372.68,-89.93"/>
<polygon fill="midnightblue" stroke="midnightblue" points="376.2,-89.84 373.56,-79.58 369.23,-89.25 376.2,-89.84"/>
</g>
<!-- Node30&#45;&gt;Node31 -->
<g id="edge39" class="edge">
<title>Node30&#45;&gt;Node31</title>
<path fill="none" stroke="midnightblue" d="M316.89,-174.25C304.58,-165.73 286.5,-153.24 272.25,-143.38"/>
<polygon fill="midnightblue" stroke="midnightblue" points="274.16,-140.45 263.95,-137.64 270.18,-146.21 274.16,-140.45"/>
</g>
<!-- Node33 -->
<g id="node33" class="node">
<title>Node33</title>
<g id="a_node33"><a xlink:title=" ">
<polygon fill="none" stroke="#bfbfbf" points="309,-116.5 309,-137.5 353,-137.5 353,-116.5 309,-116.5"/>
<text text-anchor="middle" x="331" y="-123.9" font-family="Ubuntu" font-size="12.00">tuple</text>
</a>
</g>
</g>
<!-- Node30&#45;&gt;Node33 -->
<g id="edge46" class="edge">
<title>Node30&#45;&gt;Node33</title>
<path fill="none" stroke="midnightblue" d="M331,-174.25C331,-166.94 331,-156.69 331,-147.7"/>
<polygon fill="midnightblue" stroke="midnightblue" points="334.5,-147.64 331,-137.64 327.5,-147.64 334.5,-147.64"/>
</g>
<!-- Node31&#45;&gt;Node5 -->
<g id="edge40" class="edge">
<title>Node31&#45;&gt;Node5</title>
<path fill="none" stroke="midnightblue" d="M228.34,-116.37C208.02,-107.34 177.44,-93.75 154.63,-83.61"/>
<polygon fill="midnightblue" stroke="midnightblue" points="155.94,-80.36 145.38,-79.5 153.09,-86.76 155.94,-80.36"/>
</g>
<!-- Node31&#45;&gt;Node14 -->
<g id="edge41" class="edge">
<title>Node31&#45;&gt;Node14</title>
<path fill="none" stroke="midnightblue" d="M271.32,-116.37C291.22,-107.38 321.14,-93.87 343.56,-83.75"/>
<polygon fill="midnightblue" stroke="midnightblue" points="345.29,-86.81 352.96,-79.5 342.41,-80.43 345.29,-86.81"/>
</g>
<!-- Node32 -->
<g id="node32" class="node">
<title>Node32</title>
<g id="a_node32"><a xlink:href="_pixel_buffer_8hpp.html" target="_top" xlink:title="Class ASGE::PixelBuffer.">
<polygon fill="none" stroke="black" points="200,-58.5 200,-79.5 300,-79.5 300,-58.5 200,-58.5"/>
<text text-anchor="middle" x="250" y="-65.9" font-family="Ubuntu" font-size="12.00">PixelBuffer.hpp</text>
</a>
</g>
</g>
<!-- Node31&#45;&gt;Node32 -->
<g id="edge42" class="edge">
<title>Node31&#45;&gt;Node32</title>
<path fill="none" stroke="midnightblue" d="M250,-116.25C250,-108.94 250,-98.69 250,-89.7"/>
<polygon fill="midnightblue" stroke="midnightblue" points="253.5,-89.64 250,-79.64 246.5,-89.64 253.5,-89.64"/>
</g>
<!-- Node32&#45;&gt;Node3 -->
<g id="edge44" class="edge">
<title>Node32&#45;&gt;Node3</title>
<path fill="none" stroke="midnightblue" d="M228.51,-58.37C208.36,-49.34 178.01,-35.75 155.38,-25.61"/>
<polygon fill="midnightblue" stroke="midnightblue" points="156.76,-22.4 146.21,-21.5 153.9,-28.78 156.76,-22.4"/>
</g>
<!-- Node32&#45;&gt;Node25 -->
<g id="edge43" class="edge">
<title>Node32&#45;&gt;Node25</title>
<path fill="none" stroke="midnightblue" d="M300.18,-59.28C303.16,-58.83 306.12,-58.4 309,-58 457.55,-37.5 635.98,-21.04 707.77,-14.76"/>
<polygon fill="midnightblue" stroke="midnightblue" points="708.3,-18.22 717.96,-13.87 707.7,-11.25 708.3,-18.22"/>
</g>
<!-- Node34&#45;&gt;Node24 -->
<g id="edge48" class="edge">
<title>Node34&#45;&gt;Node24</title>
<path fill="none" stroke="midnightblue" d="M484.18,-174.28C500.41,-155.01 536.85,-111.75 557.32,-87.43"/>
<polygon fill="midnightblue" stroke="midnightblue" points="560.07,-89.6 563.84,-79.69 554.72,-85.09 560.07,-89.6"/>
</g>
<!-- Node35&#45;&gt;Node28 -->
<g id="edge52" class="edge">
<title>Node35&#45;&gt;Node28</title>
<path fill="none" stroke="midnightblue" d="M842,-232.25C842,-224.94 842,-214.69 842,-205.7"/>
<polygon fill="midnightblue" stroke="midnightblue" points="845.5,-205.64 842,-195.64 838.5,-205.64 845.5,-205.64"/>
</g>
<!-- Node36&#45;&gt;Node16 -->
<g id="edge58" class="edge">
<title>Node36&#45;&gt;Node16</title>
<path fill="none" stroke="midnightblue" d="M747.71,-232.43C782.98,-224.01 835.59,-211.11 890.36,-196.08"/>
<polygon fill="midnightblue" stroke="midnightblue" points="891.54,-199.39 900.25,-193.35 889.68,-192.64 891.54,-199.39"/>
</g>
<!-- Node36&#45;&gt;Node23 -->
<g id="edge55" class="edge">
<title>Node36&#45;&gt;Node23</title>
<path fill="none" stroke="midnightblue" d="M700.03,-232.25C694.47,-224.46 686.52,-213.33 679.82,-203.94"/>
<polygon fill="midnightblue" stroke="midnightblue" points="682.55,-201.75 673.89,-195.64 676.85,-205.81 682.55,-201.75"/>
</g>
<!-- Node36&#45;&gt;Node25 -->
<g id="edge59" class="edge">
<title>Node36&#45;&gt;Node25</title>
<path fill="none" stroke="midnightblue" d="M713.66,-232.29C719.42,-223.32 727.37,-209.39 731,-196 746.72,-138.04 744.22,-66.11 741.77,-31.89"/>
<polygon fill="midnightblue" stroke="midnightblue" points="745.25,-31.5 740.97,-21.81 738.27,-32.05 745.25,-31.5"/>
</g>
<!-- Node36&#45;&gt;Node26 -->
<g id="edge56" class="edge">
<title>Node36&#45;&gt;Node26</title>
<path fill="none" stroke="midnightblue" d="M676.29,-232.39C657.3,-225.07 633.64,-213.28 618,-196 605.77,-182.49 598.77,-162.78 594.98,-148.05"/>
<polygon fill="midnightblue" stroke="midnightblue" points="598.31,-146.91 592.67,-137.94 591.48,-148.47 598.31,-146.91"/>
</g>
<!-- Node36&#45;&gt;Node27 -->
<g id="edge57" class="edge">
<title>Node36&#45;&gt;Node27</title>
<path fill="none" stroke="midnightblue" d="M710.47,-232.27C714.72,-219.04 720.92,-194.63 717,-174 711.08,-142.85 696.02,-109.09 685.89,-88.75"/>
<polygon fill="midnightblue" stroke="midnightblue" points="688.92,-86.98 681.25,-79.67 682.68,-90.16 688.92,-86.98"/>
</g>
</g>
</svg>
