<?xml version="1.0" encoding="UTF-8" standalone="no"?>
<!DOCTYPE svg PUBLIC "-//W3C//DTD SVG 1.1//EN"
 "http://www.w3.org/Graphics/SVG/1.1/DTD/svg11.dtd">
<!-- Generated by graphviz version 2.48.0 (0)
 -->
<!-- Title: PixelBuffer.hpp Pages: 1 -->
<svg width="124pt" height="88pt"
 viewBox="0.00 0.00 123.50 88.00" xmlns="http://www.w3.org/2000/svg" xmlns:xlink="http://www.w3.org/1999/xlink">
<g id="graph0" class="graph" transform="scale(1 1) rotate(0) translate(4 84)">
<title>PixelBuffer.hpp</title>
<!-- Node1 -->
<g id="node1" class="node">
<title>Node1</title>
<g id="a_node1"><a xlink:title="Class ASGE::PixelBuffer.">
<polygon fill="#bfbfbf" stroke="black" points="5,-58.5 5,-79.5 105,-79.5 105,-58.5 5,-58.5"/>
<text text-anchor="middle" x="55" y="-65.9" font-family="Ubuntu" font-size="12.00">PixelBuffer.hpp</text>
</a>
</g>
</g>
<!-- Node2 -->
<g id="node2" class="node">
<title>Node2</title>
<g id="a_node2"><a xlink:title=" ">
<polygon fill="none" stroke="#bfbfbf" points="0,-0.5 0,-21.5 44,-21.5 44,-0.5 0,-0.5"/>
<text text-anchor="middle" x="22" y="-7.9" font-family="Ubuntu" font-size="12.00">array</text>
</a>
</g>
</g>
<!-- Node1&#45;&gt;Node2 -->
<g id="edge1" class="edge">
<title>Node1&#45;&gt;Node2</title>
<path fill="none" stroke="midnightblue" d="M49.25,-58.25C44.76,-50.62 38.38,-39.79 32.92,-30.53"/>
<polygon fill="midnightblue" stroke="midnightblue" points="35.77,-28.48 27.68,-21.64 29.74,-32.04 35.77,-28.48"/>
</g>
<!-- Node3 -->
<g id="node3" class="node">
<title>Node3</title>
<g id="a_node3"><a xlink:title=" ">
<polygon fill="none" stroke="#bfbfbf" points="62.5,-0.5 62.5,-21.5 115.5,-21.5 115.5,-0.5 62.5,-0.5"/>
<text text-anchor="middle" x="89" y="-7.9" font-family="Ubuntu" font-size="12.00">atomic</text>
</a>
</g>
</g>
<!-- Node1&#45;&gt;Node3 -->
<g id="edge2" class="edge">
<title>Node1&#45;&gt;Node3</title>
<path fill="none" stroke="midnightblue" d="M60.92,-58.25C65.6,-50.54 72.27,-39.56 77.93,-30.23"/>
<polygon fill="midnightblue" stroke="midnightblue" points="80.95,-32.01 83.15,-21.64 74.96,-28.37 80.95,-32.01"/>
</g>
</g>
</svg>
