<?xml version="1.0" encoding="UTF-8" standalone="no"?>
<!DOCTYPE svg PUBLIC "-//W3C//DTD SVG 1.1//EN"
 "http://www.w3.org/Graphics/SVG/1.1/DTD/svg11.dtd">
<!-- Generated by graphviz version 2.48.0 (0)
 -->
<!-- Title: Point2D.hpp Pages: 1 -->
<svg width="118pt" height="88pt"
 viewBox="0.00 0.00 117.50 88.00" xmlns="http://www.w3.org/2000/svg" xmlns:xlink="http://www.w3.org/1999/xlink">
<g id="graph0" class="graph" transform="scale(1 1) rotate(0) translate(4 84)">
<title>Point2D.hpp</title>
<!-- Node1 -->
<g id="node1" class="node">
<title>Node1</title>
<g id="a_node1"><a xlink:title="Class ASGE::Point2D.">
<polygon fill="#bfbfbf" stroke="black" points="12.5,-58.5 12.5,-79.5 95.5,-79.5 95.5,-58.5 12.5,-58.5"/>
<text text-anchor="middle" x="54" y="-65.9" font-family="Ubuntu" font-size="12.00">Point2D.hpp</text>
</a>
</g>
</g>
<!-- Node2 -->
<g id="node2" class="node">
<title>Node2</title>
<g id="a_node2"><a xlink:title=" ">
<polygon fill="none" stroke="#bfbfbf" points="0,-0.5 0,-21.5 44,-21.5 44,-0.5 0,-0.5"/>
<text text-anchor="middle" x="22" y="-7.9" font-family="Ubuntu" font-size="12.00">array</text>
</a>
</g>
</g>
<!-- Node1&#45;&gt;Node2 -->
<g id="edge1" class="edge">
<title>Node1&#45;&gt;Node2</title>
<path fill="none" stroke="midnightblue" d="M48.43,-58.25C44.07,-50.62 37.88,-39.79 32.59,-30.53"/>
<polygon fill="midnightblue" stroke="midnightblue" points="35.51,-28.59 27.51,-21.64 29.43,-32.06 35.51,-28.59"/>
</g>
<!-- Node3 -->
<g id="node3" class="node">
<title>Node3</title>
<g id="a_node3"><a xlink:title=" ">
<polygon fill="none" stroke="#bfbfbf" points="62.5,-0.5 62.5,-21.5 109.5,-21.5 109.5,-0.5 62.5,-0.5"/>
<text text-anchor="middle" x="86" y="-7.9" font-family="Ubuntu" font-size="12.00">string</text>
</a>
</g>
</g>
<!-- Node1&#45;&gt;Node3 -->
<g id="edge2" class="edge">
<title>Node1&#45;&gt;Node3</title>
<path fill="none" stroke="midnightblue" d="M59.57,-58.25C63.93,-50.62 70.12,-39.79 75.41,-30.53"/>
<polygon fill="midnightblue" stroke="midnightblue" points="78.57,-32.06 80.49,-21.64 72.49,-28.59 78.57,-32.06"/>
</g>
</g>
</svg>
