<?xml version="1.0" encoding="UTF-8" standalone="no"?>
<!DOCTYPE svg PUBLIC "-//W3C//DTD SVG 1.1//EN"
 "http://www.w3.org/Graphics/SVG/1.1/DTD/svg11.dtd">
<!-- Generated by graphviz version 2.48.0 (0)
 -->
<!-- Title: Point2D.hpp Pages: 1 -->
<svg width="290pt" height="320pt"
 viewBox="0.00 0.00 290.01 320.00" xmlns="http://www.w3.org/2000/svg" xmlns:xlink="http://www.w3.org/1999/xlink">
<g id="graph0" class="graph" transform="scale(1 1) rotate(0) translate(4 316)">
<title>Point2D.hpp</title>
<!-- Node1 -->
<g id="node1" class="node">
<title>Node1</title>
<g id="a_node1"><a xlink:title="Class ASGE::Point2D.">
<polygon fill="#bfbfbf" stroke="black" points="70.51,-290.5 70.51,-311.5 153.51,-311.5 153.51,-290.5 70.51,-290.5"/>
<text text-anchor="middle" x="112.01" y="-297.9" font-family="Ubuntu" font-size="12.00">Point2D.hpp</text>
</a>
</g>
</g>
<!-- Node2 -->
<g id="node2" class="node">
<title>Node2</title>
<g id="a_node2"><a xlink:href="_camera_8hpp.html" target="_top" xlink:title="Class ASGE::Camera, Struct ASGE::Camera::CameraView.">
<polygon fill="none" stroke="black" points="14.51,-232.5 14.51,-253.5 95.51,-253.5 95.51,-232.5 14.51,-232.5"/>
<text text-anchor="middle" x="55.01" y="-239.9" font-family="Ubuntu" font-size="12.00">Camera.hpp</text>
</a>
</g>
</g>
<!-- Node1&#45;&gt;Node2 -->
<g id="edge1" class="edge">
<title>Node1&#45;&gt;Node2</title>
<path fill="none" stroke="midnightblue" d="M94.79,-283.08C84.98,-273.44 73.05,-261.72 64.83,-253.64"/>
<polygon fill="midnightblue" stroke="midnightblue" points="92.5,-285.73 102.08,-290.25 97.4,-280.74 92.5,-285.73"/>
</g>
<!-- Node7 -->
<g id="node7" class="node">
<title>Node7</title>
<g id="a_node7"><a xlink:href="_sprite_bounds_8hpp.html" target="_top" xlink:title="Struct ASGE::SpriteBounds.">
<polygon fill="none" stroke="black" points="114.01,-232.5 114.01,-253.5 226.01,-253.5 226.01,-232.5 114.01,-232.5"/>
<text text-anchor="middle" x="170.01" y="-239.9" font-family="Ubuntu" font-size="12.00">SpriteBounds.hpp</text>
</a>
</g>
</g>
<!-- Node1&#45;&gt;Node7 -->
<g id="edge7" class="edge">
<title>Node1&#45;&gt;Node7</title>
<path fill="none" stroke="midnightblue" d="M129.54,-283.08C139.52,-273.44 151.66,-261.72 160.03,-253.64"/>
<polygon fill="midnightblue" stroke="midnightblue" points="126.88,-280.78 122.12,-290.25 131.74,-285.82 126.88,-280.78"/>
</g>
<!-- Node3 -->
<g id="node3" class="node">
<title>Node3</title>
<g id="a_node3"><a xlink:href="_renderer_8hpp.html" target="_top" xlink:title="Class ASGE::Renderer.">
<polygon fill="none" stroke="black" points="16.51,-116.5 16.51,-137.5 105.51,-137.5 105.51,-116.5 16.51,-116.5"/>
<text text-anchor="middle" x="61.01" y="-123.9" font-family="Ubuntu" font-size="12.00">Renderer.hpp</text>
</a>
</g>
</g>
<!-- Node2&#45;&gt;Node3 -->
<g id="edge2" class="edge">
<title>Node2&#45;&gt;Node3</title>
<path fill="none" stroke="midnightblue" d="M30.19,-226.66C12.49,-213.62 -6.6,-193.89 3.01,-174 10.9,-157.68 27.69,-145.39 41.19,-137.63"/>
<polygon fill="midnightblue" stroke="midnightblue" points="28.41,-229.68 38.63,-232.49 32.39,-223.93 28.41,-229.68"/>
</g>
<!-- Node6 -->
<g id="node6" class="node">
<title>Node6</title>
<g id="a_node6"><a xlink:href="_resolution_8hpp_source.html" target="_top" xlink:title=" ">
<polygon fill="none" stroke="black" points="12.51,-174.5 12.51,-195.5 109.51,-195.5 109.51,-174.5 12.51,-174.5"/>
<text text-anchor="middle" x="61.01" y="-181.9" font-family="Ubuntu" font-size="12.00">Resolution.hpp</text>
</a>
</g>
</g>
<!-- Node2&#45;&gt;Node6 -->
<g id="edge5" class="edge">
<title>Node2&#45;&gt;Node6</title>
<path fill="none" stroke="midnightblue" d="M57.14,-222.16C58.1,-213.16 59.2,-202.92 59.98,-195.64"/>
<polygon fill="midnightblue" stroke="midnightblue" points="53.64,-221.93 56.06,-232.25 60.6,-222.68 53.64,-221.93"/>
</g>
<!-- Node4 -->
<g id="node4" class="node">
<title>Node4</title>
<g id="a_node4"><a xlink:href="_game_8hpp.html" target="_top" xlink:title="Class ASGE::Game.">
<polygon fill="none" stroke="black" points="25.51,-58.5 25.51,-79.5 96.51,-79.5 96.51,-58.5 25.51,-58.5"/>
<text text-anchor="middle" x="61.01" y="-65.9" font-family="Ubuntu" font-size="12.00">Game.hpp</text>
</a>
</g>
</g>
<!-- Node3&#45;&gt;Node4 -->
<g id="edge3" class="edge">
<title>Node3&#45;&gt;Node4</title>
<path fill="none" stroke="midnightblue" d="M61.01,-106.16C61.01,-97.16 61.01,-86.92 61.01,-79.64"/>
<polygon fill="midnightblue" stroke="midnightblue" points="57.51,-106.25 61.01,-116.25 64.51,-106.25 57.51,-106.25"/>
</g>
<!-- Node5 -->
<g id="node5" class="node">
<title>Node5</title>
<g id="a_node5"><a xlink:href="_o_g_l_game_8hpp.html" target="_top" xlink:title="Class ASGE::OGLGame.">
<polygon fill="none" stroke="black" points="13.51,-0.5 13.51,-21.5 108.51,-21.5 108.51,-0.5 13.51,-0.5"/>
<text text-anchor="middle" x="61.01" y="-7.9" font-family="Ubuntu" font-size="12.00">OGLGame.hpp</text>
</a>
</g>
</g>
<!-- Node4&#45;&gt;Node5 -->
<g id="edge4" class="edge">
<title>Node4&#45;&gt;Node5</title>
<path fill="none" stroke="midnightblue" d="M61.01,-48.16C61.01,-39.16 61.01,-28.92 61.01,-21.64"/>
<polygon fill="midnightblue" stroke="midnightblue" points="57.51,-48.25 61.01,-58.25 64.51,-48.25 57.51,-48.25"/>
</g>
<!-- Node6&#45;&gt;Node3 -->
<g id="edge6" class="edge">
<title>Node6&#45;&gt;Node3</title>
<path fill="none" stroke="midnightblue" d="M61.01,-164.16C61.01,-155.16 61.01,-144.92 61.01,-137.64"/>
<polygon fill="midnightblue" stroke="midnightblue" points="57.51,-164.25 61.01,-174.25 64.51,-164.25 57.51,-164.25"/>
</g>
<!-- Node8 -->
<g id="node8" class="node">
<title>Node8</title>
<g id="a_node8"><a xlink:href="_sprite_8hpp.html" target="_top" xlink:title="Class ASGE::Sprite, Enum ASGE::Sprite::FlipFlags, Enum ASGE::Sprite::SourceRectIndex.">
<polygon fill="none" stroke="black" points="128.01,-174.5 128.01,-195.5 200.01,-195.5 200.01,-174.5 128.01,-174.5"/>
<text text-anchor="middle" x="164.01" y="-181.9" font-family="Ubuntu" font-size="12.00">Sprite.hpp</text>
</a>
</g>
</g>
<!-- Node7&#45;&gt;Node8 -->
<g id="edge8" class="edge">
<title>Node7&#45;&gt;Node8</title>
<path fill="none" stroke="midnightblue" d="M167.89,-222.16C166.92,-213.16 165.83,-202.92 165.05,-195.64"/>
<polygon fill="midnightblue" stroke="midnightblue" points="164.42,-222.68 168.97,-232.25 171.38,-221.93 164.42,-222.68"/>
</g>
<!-- Node9 -->
<g id="node9" class="node">
<title>Node9</title>
<g id="a_node9"><a xlink:href="_text_8hpp.html" target="_top" xlink:title="Struct ASGE::Text.">
<polygon fill="none" stroke="black" points="218.01,-174.5 218.01,-195.5 282.01,-195.5 282.01,-174.5 218.01,-174.5"/>
<text text-anchor="middle" x="250.01" y="-181.9" font-family="Ubuntu" font-size="12.00">Text.hpp</text>
</a>
</g>
</g>
<!-- Node7&#45;&gt;Node9 -->
<g id="edge9" class="edge">
<title>Node7&#45;&gt;Node9</title>
<path fill="none" stroke="midnightblue" d="M192.17,-226.49C206.28,-216.61 224.13,-204.12 236.24,-195.64"/>
<polygon fill="midnightblue" stroke="midnightblue" points="190.13,-223.64 183.95,-232.25 194.15,-229.38 190.13,-223.64"/>
</g>
<!-- Node9&#45;&gt;Node3 -->
<g id="edge10" class="edge">
<title>Node9&#45;&gt;Node3</title>
<path fill="none" stroke="midnightblue" d="M208.12,-171.59C173.45,-161.32 124.92,-146.94 93.23,-137.55"/>
<polygon fill="midnightblue" stroke="midnightblue" points="207.37,-175.02 217.95,-174.5 209.36,-168.3 207.37,-175.02"/>
</g>
</g>
</svg>
