<?xml version="1.0" encoding="UTF-8" standalone="no"?>
<!DOCTYPE svg PUBLIC "-//W3C//DTD SVG 1.1//EN"
 "http://www.w3.org/Graphics/SVG/1.1/DTD/svg11.dtd">
<!-- Generated by graphviz version 2.48.0 (0)
 -->
<!-- Title: RenderTarget.hpp Pages: 1 -->
<!--zoomable 204 -->
<svg id="main" version="1.1" xmlns="http://www.w3.org/2000/svg" xmlns:xlink="http://www.w3.org/1999/xlink" xml:space="preserve" onload="init(evt)">
<style type="text/css"><![CDATA[
.edge:hover path { stroke: red; }
.edge:hover polygon { stroke: red; fill: red; }
]]></style>
<script type="text/javascript"><![CDATA[
var edges = document.getElementsByTagName('g');
if (edges && edges.length) {
  for (var i=0;i<edges.length;i++) {
    if (edges[i].id.substr(0,4)=='edge') {
      edges[i].setAttribute('class','edge');
    }
  }
}
]]></script>
        <defs>
                <circle id="rim" cx="0" cy="0" r="7"/>
                <circle id="rim2" cx="0" cy="0" r="3.5"/>
                <g id="zoomPlus">
                        <use xlink:href="#rim" fill="#404040">
                                <set attributeName="fill" to="#808080" begin="zoomplus.mouseover" end="zoomplus.mouseout"/>
                        </use>
                        <path d="M-4,0h8M0,-4v8" fill="none" stroke="white" stroke-width="1.5" pointer-events="none"/>
                </g>
                <g id="zoomMin">
                        <use xlink:href="#rim" fill="#404040">
                                <set attributeName="fill" to="#808080" begin="zoomminus.mouseover" end="zoomminus.mouseout"/>
                        </use>
                        <path d="M-4,0h8" fill="none" stroke="white" stroke-width="1.5" pointer-events="none"/>
                </g>
                <g id="dirArrow">
                        <path fill="none" stroke="white" stroke-width="1.5" d="M0,-3.0v7 M-2.5,-0.5L0,-3.0L2.5,-0.5"/>
                </g>
               <g id="resetDef">
                       <use xlink:href="#rim2" fill="#404040">
                               <set attributeName="fill" to="#808080" begin="reset.mouseover" end="reset.mouseout"/>
                       </use>
               </g>
        </defs>

<script type="text/javascript">
var viewWidth = 581;
var viewHeight = 204;
var sectionId = 'dynsection-0';
</script>
<script xlink:href="svgpan.js"/>
<svg id="graph" class="graph">
<g id="viewport">
<title>RenderTarget.hpp</title>
<!-- Node1 -->
<g id="node1" class="node">
<title>Node1</title>
<g id="a_node1"><a xlink:title="Class ASGE::RenderTarget.">
<polygon fill="#bfbfbf" stroke="black" points="370,-174.5 370,-195.5 484,-195.5 484,-174.5 370,-174.5"/>
<text text-anchor="middle" x="427" y="-181.9" font-family="Ubuntu" font-size="12.00">RenderTarget.hpp</text>
</a>
</g>
</g>
<!-- Node2 -->
<g id="node2" class="node">
<title>Node2</title>
<g id="a_node2"><a xlink:href="_texture_8hpp.html" target="_top" xlink:title="Class ASGE::Texture2D, Enum Class ASGE::SpriteSortMode.">
<polygon fill="none" stroke="black" points="207.5,-116.5 207.5,-137.5 288.5,-137.5 288.5,-116.5 207.5,-116.5"/>
<text text-anchor="middle" x="248" y="-123.9" font-family="Ubuntu" font-size="12.00">Texture.hpp</text>
</a>
</g>
</g>
<!-- Node1&#45;&gt;Node2 -->
<g id="edge1" class="edge">
<title>Node1&#45;&gt;Node2</title>
<path fill="none" stroke="midnightblue" d="M396.23,-174.37C366.33,-165.02 320.79,-150.77 288.08,-140.54"/>
<polygon fill="midnightblue" stroke="midnightblue" points="288.96,-137.15 278.37,-137.5 286.87,-143.83 288.96,-137.15"/>
</g>
<!-- Node9 -->
<g id="node9" class="node">
<title>Node9</title>
<g id="a_node9"><a xlink:href="_viewport_8hpp.html" target="_top" xlink:title="Struct ASGE::Viewport.">
<polygon fill="none" stroke="black" points="335.5,-116.5 335.5,-137.5 424.5,-137.5 424.5,-116.5 335.5,-116.5"/>
<text text-anchor="middle" x="380" y="-123.9" font-family="Ubuntu" font-size="12.00">Viewport.hpp</text>
</a>
</g>
</g>
<!-- Node1&#45;&gt;Node9 -->
<g id="edge8" class="edge">
<title>Node1&#45;&gt;Node9</title>
<path fill="none" stroke="midnightblue" d="M418.81,-174.25C412.14,-166.3 402.55,-154.87 394.57,-145.37"/>
<polygon fill="midnightblue" stroke="midnightblue" points="397.2,-143.05 388.09,-137.64 391.84,-147.55 397.2,-143.05"/>
</g>
<!-- Node11 -->
<g id="node11" class="node">
<title>Node11</title>
<g id="a_node11"><a xlink:title=" ">
<polygon fill="none" stroke="#bfbfbf" points="443,-116.5 443,-137.5 505,-137.5 505,-116.5 443,-116.5"/>
<text text-anchor="middle" x="474" y="-123.9" font-family="Ubuntu" font-size="12.00">memory</text>
</a>
</g>
</g>
<!-- Node1&#45;&gt;Node11 -->
<g id="edge10" class="edge">
<title>Node1&#45;&gt;Node11</title>
<path fill="none" stroke="midnightblue" d="M435.19,-174.25C441.86,-166.3 451.45,-154.87 459.43,-145.37"/>
<polygon fill="midnightblue" stroke="midnightblue" points="462.16,-147.55 465.91,-137.64 456.8,-143.05 462.16,-147.55"/>
</g>
<!-- Node12 -->
<g id="node12" class="node">
<title>Node12</title>
<g id="a_node12"><a xlink:title=" ">
<polygon fill="none" stroke="#bfbfbf" points="523,-116.5 523,-137.5 573,-137.5 573,-116.5 523,-116.5"/>
<text text-anchor="middle" x="548" y="-123.9" font-family="Ubuntu" font-size="12.00">vector</text>
</a>
</g>
</g>
<!-- Node1&#45;&gt;Node12 -->
<g id="edge11" class="edge">
<title>Node1&#45;&gt;Node12</title>
<path fill="none" stroke="midnightblue" d="M447.8,-174.37C467.22,-165.38 496.42,-151.87 518.3,-141.75"/>
<polygon fill="midnightblue" stroke="midnightblue" points="519.87,-144.88 527.47,-137.5 516.93,-138.52 519.87,-144.88"/>
</g>
<!-- Node3 -->
<g id="node3" class="node">
<title>Node3</title>
<g id="a_node3"><a xlink:href="_game_settings_8hpp.html" target="_top" xlink:title="Struct ASGE::GameSettings, Enum ASGE::GameSettings::WindowMode, Enum ASGE::GameSettings::MagFilter,...">
<polygon fill="none" stroke="black" points="0,-58.5 0,-79.5 116,-79.5 116,-58.5 0,-58.5"/>
<text text-anchor="middle" x="58" y="-65.9" font-family="Ubuntu" font-size="12.00">GameSettings.hpp</text>
</a>
</g>
</g>
<!-- Node2&#45;&gt;Node3 -->
<g id="edge2" class="edge">
<title>Node2&#45;&gt;Node3</title>
<path fill="none" stroke="midnightblue" d="M215.34,-116.37C183.47,-106.98 134.85,-92.65 100.09,-82.41"/>
<polygon fill="midnightblue" stroke="midnightblue" points="100.82,-78.97 90.24,-79.5 98.84,-85.69 100.82,-78.97"/>
</g>
<!-- Node5 -->
<g id="node5" class="node">
<title>Node5</title>
<g id="a_node5"><a xlink:href="_non_copyable_8hpp.html" target="_top" xlink:title="Class ASGE::NonCopyable.">
<polygon fill="none" stroke="black" points="134,-58.5 134,-79.5 246,-79.5 246,-58.5 134,-58.5"/>
<text text-anchor="middle" x="190" y="-65.9" font-family="Ubuntu" font-size="12.00">NonCopyable.hpp</text>
</a>
</g>
</g>
<!-- Node2&#45;&gt;Node5 -->
<g id="edge4" class="edge">
<title>Node2&#45;&gt;Node5</title>
<path fill="none" stroke="midnightblue" d="M237.9,-116.25C229.5,-108.14 217.35,-96.41 207.39,-86.79"/>
<polygon fill="midnightblue" stroke="midnightblue" points="209.61,-84.07 199.99,-79.64 204.75,-89.11 209.61,-84.07"/>
</g>
<!-- Node6 -->
<g id="node6" class="node">
<title>Node6</title>
<g id="a_node6"><a xlink:href="_pixel_buffer_8hpp.html" target="_top" xlink:title="Class ASGE::PixelBuffer.">
<polygon fill="none" stroke="black" points="264,-58.5 264,-79.5 364,-79.5 364,-58.5 264,-58.5"/>
<text text-anchor="middle" x="314" y="-65.9" font-family="Ubuntu" font-size="12.00">PixelBuffer.hpp</text>
</a>
</g>
</g>
<!-- Node2&#45;&gt;Node6 -->
<g id="edge5" class="edge">
<title>Node2&#45;&gt;Node6</title>
<path fill="none" stroke="midnightblue" d="M259.5,-116.25C269.24,-107.97 283.43,-95.94 294.88,-86.22"/>
<polygon fill="midnightblue" stroke="midnightblue" points="297.27,-88.78 302.64,-79.64 292.75,-83.44 297.27,-88.78"/>
</g>
<!-- Node4 -->
<g id="node4" class="node">
<title>Node4</title>
<g id="a_node4"><a xlink:title=" ">
<polygon fill="none" stroke="#bfbfbf" points="34.5,-0.5 34.5,-21.5 81.5,-21.5 81.5,-0.5 34.5,-0.5"/>
<text text-anchor="middle" x="58" y="-7.9" font-family="Ubuntu" font-size="12.00">string</text>
</a>
</g>
</g>
<!-- Node3&#45;&gt;Node4 -->
<g id="edge3" class="edge">
<title>Node3&#45;&gt;Node4</title>
<path fill="none" stroke="midnightblue" d="M58,-58.25C58,-50.94 58,-40.69 58,-31.7"/>
<polygon fill="midnightblue" stroke="midnightblue" points="61.5,-31.64 58,-21.64 54.5,-31.64 61.5,-31.64"/>
</g>
<!-- Node7 -->
<g id="node7" class="node">
<title>Node7</title>
<g id="a_node7"><a xlink:title=" ">
<polygon fill="none" stroke="#bfbfbf" points="258,-0.5 258,-21.5 302,-21.5 302,-0.5 258,-0.5"/>
<text text-anchor="middle" x="280" y="-7.9" font-family="Ubuntu" font-size="12.00">array</text>
</a>
</g>
</g>
<!-- Node6&#45;&gt;Node7 -->
<g id="edge6" class="edge">
<title>Node6&#45;&gt;Node7</title>
<path fill="none" stroke="midnightblue" d="M308.08,-58.25C303.4,-50.54 296.73,-39.56 291.07,-30.23"/>
<polygon fill="midnightblue" stroke="midnightblue" points="294.04,-28.37 285.85,-21.64 288.05,-32.01 294.04,-28.37"/>
</g>
<!-- Node8 -->
<g id="node8" class="node">
<title>Node8</title>
<g id="a_node8"><a xlink:title=" ">
<polygon fill="none" stroke="#bfbfbf" points="320.5,-0.5 320.5,-21.5 373.5,-21.5 373.5,-0.5 320.5,-0.5"/>
<text text-anchor="middle" x="347" y="-7.9" font-family="Ubuntu" font-size="12.00">atomic</text>
</a>
</g>
</g>
<!-- Node6&#45;&gt;Node8 -->
<g id="edge7" class="edge">
<title>Node6&#45;&gt;Node8</title>
<path fill="none" stroke="midnightblue" d="M319.75,-58.25C324.24,-50.62 330.62,-39.79 336.08,-30.53"/>
<polygon fill="midnightblue" stroke="midnightblue" points="339.26,-32.04 341.32,-21.64 333.23,-28.48 339.26,-32.04"/>
</g>
<!-- Node10 -->
<g id="node10" class="node">
<title>Node10</title>
<g id="a_node10"><a xlink:title=" ">
<polygon fill="none" stroke="#bfbfbf" points="382.5,-58.5 382.5,-79.5 435.5,-79.5 435.5,-58.5 382.5,-58.5"/>
<text text-anchor="middle" x="409" y="-65.9" font-family="Ubuntu" font-size="12.00">cstdint</text>
</a>
</g>
</g>
<!-- Node9&#45;&gt;Node10 -->
<g id="edge9" class="edge">
<title>Node9&#45;&gt;Node10</title>
<path fill="none" stroke="midnightblue" d="M385.05,-116.25C389,-108.62 394.61,-97.79 399.41,-88.53"/>
<polygon fill="midnightblue" stroke="midnightblue" points="402.52,-90.13 404.01,-79.64 396.3,-86.91 402.52,-90.13"/>
</g>
</g>
</svg>
        <g id="navigator" transform="translate(0 0)" fill="#404254">
                <rect fill="#f2f5e9" fill-opacity="0.5" stroke="#606060" stroke-width=".5" x="0" y="0" width="60" height="60"/>
                <use id="zoomplus" xlink:href="#zoomPlus" x="17" y="9" onmousedown="handleZoom(evt,'in')"/>
                <use id="zoomminus" xlink:href="#zoomMin" x="42" y="9" onmousedown="handleZoom(evt,'out')"/>
                <use id="reset" xlink:href="#resetDef" x="30" y="36" onmousedown="handleReset()"/>
                <g id="arrowUp" xlink:href="#dirArrow" transform="translate(30 24)" onmousedown="handlePan(0,-1)">
                  <use xlink:href="#rim" fill="#404040">
                        <set attributeName="fill" to="#808080" begin="arrowUp.mouseover" end="arrowUp.mouseout"/>
                  </use>
                  <path fill="none" stroke="white" stroke-width="1.5" d="M0,-3.0v7 M-2.5,-0.5L0,-3.0L2.5,-0.5"/>
                </g>
                <g id="arrowRight" xlink:href="#dirArrow" transform="rotate(90) translate(36 -43)" onmousedown="handlePan(1,0)">
                  <use xlink:href="#rim" fill="#404040">
                        <set attributeName="fill" to="#808080" begin="arrowRight.mouseover" end="arrowRight.mouseout"/>
                  </use>
                  <path fill="none" stroke="white" stroke-width="1.5" d="M0,-3.0v7 M-2.5,-0.5L0,-3.0L2.5,-0.5"/>
                </g>
                <g id="arrowDown" xlink:href="#dirArrow" transform="rotate(180) translate(-30 -48)" onmousedown="handlePan(0,1)">
                  <use xlink:href="#rim" fill="#404040">
                        <set attributeName="fill" to="#808080" begin="arrowDown.mouseover" end="arrowDown.mouseout"/>
                  </use>
                  <path fill="none" stroke="white" stroke-width="1.5" d="M0,-3.0v7 M-2.5,-0.5L0,-3.0L2.5,-0.5"/>
                </g>
                <g id="arrowLeft" xlink:href="#dirArrow" transform="rotate(270) translate(-36 17)" onmousedown="handlePan(-1,0)">
                  <use xlink:href="#rim" fill="#404040">
                        <set attributeName="fill" to="#808080" begin="arrowLeft.mouseover" end="arrowLeft.mouseout"/>
                  </use>
                  <path fill="none" stroke="white" stroke-width="1.5" d="M0,-3.0v7 M-2.5,-0.5L0,-3.0L2.5,-0.5"/>
                </g>
        </g>
        <svg viewBox="0 0 15 15" width="100%" height="30px" preserveAspectRatio="xMaxYMin meet">
         <g id="arrow_out" transform="scale(0.3 0.3)">
          <a xlink:href="_render_target_8hpp__incl_org.svg" target="_base">
           <rect id="button" ry="5" rx="5" y="6" x="6" height="38" width="38"
                fill="#f2f5e9" fill-opacity="0.5" stroke="#606060" stroke-width="1.0"/>
           <path id="arrow"
             d="M 11.500037,31.436501 C 11.940474,20.09759 22.043105,11.32322 32.158766,21.979434 L 37.068811,17.246167 C 37.068811,17.246167 37.088388,32 37.088388,32 L 22.160133,31.978069 C 22.160133,31.978069 26.997745,27.140456 26.997745,27.140456 C 18.528582,18.264221 13.291696,25.230495 11.500037,31.436501 z"
             style="fill:#404040;"/>
          </a>
         </g>
        </svg>
</svg>
