<?xml version="1.0" encoding="UTF-8" standalone="no"?>
<!DOCTYPE svg PUBLIC "-//W3C//DTD SVG 1.1//EN"
 "http://www.w3.org/Graphics/SVG/1.1/DTD/svg11.dtd">
<!-- Generated by graphviz version 2.48.0 (0)
 -->
<!-- Title: Renderer.hpp Pages: 1 -->
<svg width="1071pt" height="320pt"
 viewBox="0.00 0.00 1071.22 320.00" xmlns="http://www.w3.org/2000/svg" xmlns:xlink="http://www.w3.org/1999/xlink">
<g id="graph0" class="graph" transform="scale(1 1) rotate(0) translate(4 316)">
<title>Renderer.hpp</title>
<!-- Node1 -->
<g id="node1" class="node">
<title>Node1</title>
<g id="a_node1"><a xlink:title="Class ASGE::Renderer.">
<polygon fill="#bfbfbf" stroke="black" points="560.72,-290.5 560.72,-311.5 649.72,-311.5 649.72,-290.5 560.72,-290.5"/>
<text text-anchor="middle" x="605.22" y="-297.9" font-family="Ubuntu" font-size="12.00">Renderer.hpp</text>
</a>
</g>
</g>
<!-- Node2 -->
<g id="node2" class="node">
<title>Node2</title>
<g id="a_node2"><a xlink:href="_camera_8hpp.html" target="_top" xlink:title="Class ASGE::Camera, Struct ASGE::Camera::CameraView.">
<polygon fill="none" stroke="black" points="681.72,-174.5 681.72,-195.5 762.72,-195.5 762.72,-174.5 681.72,-174.5"/>
<text text-anchor="middle" x="722.22" y="-181.9" font-family="Ubuntu" font-size="12.00">Camera.hpp</text>
</a>
</g>
</g>
<!-- Node1&#45;&gt;Node2 -->
<g id="edge1" class="edge">
<title>Node1&#45;&gt;Node2</title>
<path fill="none" stroke="midnightblue" d="M622.35,-290.44C636.62,-281.98 657.01,-268.72 672.22,-254 687.76,-238.95 702.01,-218.64 711.28,-204.14"/>
<polygon fill="midnightblue" stroke="midnightblue" points="714.31,-205.91 716.63,-195.57 708.37,-202.21 714.31,-205.91"/>
</g>
<!-- Node7 -->
<g id="node7" class="node">
<title>Node7</title>
<g id="a_node7"><a xlink:title=" ">
<polygon fill="none" stroke="#bfbfbf" points="397.72,-0.5 397.72,-21.5 444.72,-21.5 444.72,-0.5 397.72,-0.5"/>
<text text-anchor="middle" x="421.22" y="-7.9" font-family="Ubuntu" font-size="12.00">string</text>
</a>
</g>
</g>
<!-- Node1&#45;&gt;Node7 -->
<g id="edge40" class="edge">
<title>Node1&#45;&gt;Node7</title>
<path fill="none" stroke="midnightblue" d="M560.31,-296.28C420.34,-284.11 1.22,-242.89 1.22,-186 1.22,-186 1.22,-186 1.22,-126 1.22,-94.62 -3.65,-78.37 20.22,-58 47.97,-34.32 295.94,-18.73 387.47,-13.73"/>
<polygon fill="midnightblue" stroke="midnightblue" points="387.79,-17.22 397.58,-13.19 387.41,-10.23 387.79,-17.22"/>
</g>
<!-- Node8 -->
<g id="node8" class="node">
<title>Node8</title>
<g id="a_node8"><a xlink:href="_viewport_8hpp.html" target="_top" xlink:title="Struct ASGE::Viewport.">
<polygon fill="none" stroke="black" points="819.72,-116.5 819.72,-137.5 908.72,-137.5 908.72,-116.5 819.72,-116.5"/>
<text text-anchor="middle" x="864.22" y="-123.9" font-family="Ubuntu" font-size="12.00">Viewport.hpp</text>
</a>
</g>
</g>
<!-- Node1&#45;&gt;Node8 -->
<g id="edge32" class="edge">
<title>Node1&#45;&gt;Node8</title>
<path fill="none" stroke="midnightblue" d="M649.85,-296.46C713.48,-290.66 826.21,-277.38 859.22,-254 890.6,-231.77 902.6,-211.03 892.22,-174 889.43,-164.06 883.84,-154.13 878.38,-146.06"/>
<polygon fill="midnightblue" stroke="midnightblue" points="881.12,-143.88 872.43,-137.83 875.45,-147.99 881.12,-143.88"/>
</g>
<!-- Node10 -->
<g id="node10" class="node">
<title>Node10</title>
<g id="a_node10"><a xlink:href="_colours_8hpp.html" target="_top" xlink:title="Struct ASGE::Colour, Namespace ASGE::COLOURS.">
<polygon fill="none" stroke="black" points="583.22,-174.5 583.22,-195.5 663.22,-195.5 663.22,-174.5 583.22,-174.5"/>
<text text-anchor="middle" x="623.22" y="-181.9" font-family="Ubuntu" font-size="12.00">Colours.hpp</text>
</a>
</g>
</g>
<!-- Node1&#45;&gt;Node10 -->
<g id="edge10" class="edge">
<title>Node1&#45;&gt;Node10</title>
<path fill="none" stroke="midnightblue" d="M601.24,-290.15C596.4,-276.78 589.55,-252.22 595.22,-232 598.01,-222.06 603.6,-212.13 609.06,-204.06"/>
<polygon fill="midnightblue" stroke="midnightblue" points="611.99,-205.99 615.01,-195.83 606.31,-201.88 611.99,-205.99"/>
</g>
<!-- Node11 -->
<g id="node11" class="node">
<title>Node11</title>
<g id="a_node11"><a xlink:href="_game_settings_8hpp.html" target="_top" xlink:title="Struct ASGE::GameSettings, Enum ASGE::GameSettings::WindowMode, Enum ASGE::GameSettings::MagFilter,...">
<polygon fill="none" stroke="black" points="29.22,-58.5 29.22,-79.5 145.22,-79.5 145.22,-58.5 29.22,-58.5"/>
<text text-anchor="middle" x="87.22" y="-65.9" font-family="Ubuntu" font-size="12.00">GameSettings.hpp</text>
</a>
</g>
</g>
<!-- Node1&#45;&gt;Node11 -->
<g id="edge12" class="edge">
<title>Node1&#45;&gt;Node11</title>
<path fill="none" stroke="midnightblue" d="M560.52,-295.55C514.32,-289.87 440.76,-277.79 381.22,-254 269.06,-209.19 152.18,-121.65 106.82,-85.84"/>
<polygon fill="midnightblue" stroke="midnightblue" points="108.97,-83.07 98.97,-79.59 104.61,-88.55 108.97,-83.07"/>
</g>
<!-- Node12 -->
<g id="node12" class="node">
<title>Node12</title>
<g id="a_node12"><a xlink:href="_text_8hpp.html" target="_top" xlink:title="Struct ASGE::Text.">
<polygon fill="none" stroke="black" points="477.22,-232.5 477.22,-253.5 541.22,-253.5 541.22,-232.5 477.22,-232.5"/>
<text text-anchor="middle" x="509.22" y="-239.9" font-family="Ubuntu" font-size="12.00">Text.hpp</text>
</a>
</g>
</g>
<!-- Node1&#45;&gt;Node12 -->
<g id="edge14" class="edge">
<title>Node1&#45;&gt;Node12</title>
<path fill="none" stroke="midnightblue" d="M588.5,-290.25C573.63,-281.57 551.67,-268.76 534.63,-258.82"/>
<polygon fill="midnightblue" stroke="midnightblue" points="536.15,-255.66 525.75,-253.64 532.62,-261.7 536.15,-255.66"/>
</g>
<!-- Node15 -->
<g id="node15" class="node">
<title>Node15</title>
<g id="a_node15"><a xlink:href="_texture_8hpp.html" target="_top" xlink:title="Class ASGE::Texture2D, Enum Class ASGE::SpriteSortMode.">
<polygon fill="none" stroke="black" points="211.72,-116.5 211.72,-137.5 292.72,-137.5 292.72,-116.5 211.72,-116.5"/>
<text text-anchor="middle" x="252.22" y="-123.9" font-family="Ubuntu" font-size="12.00">Texture.hpp</text>
</a>
</g>
</g>
<!-- Node1&#45;&gt;Node15 -->
<g id="edge29" class="edge">
<title>Node1&#45;&gt;Node15</title>
<path fill="none" stroke="midnightblue" d="M560.48,-290.89C501.11,-277.31 394.77,-247.63 317.22,-196 296.54,-182.23 277.48,-160.81 265.42,-145.7"/>
<polygon fill="midnightblue" stroke="midnightblue" points="268.06,-143.39 259.17,-137.63 262.53,-147.68 268.06,-143.39"/>
</g>
<!-- Node20 -->
<g id="node20" class="node">
<title>Node20</title>
<g id="a_node20"><a xlink:href="_tile_8hpp.html" target="_top" xlink:title="Class ASGE::Tile, Enum ASGE::Sprite::FlipFlags, Enum ASGE::Sprite::SourceRectIndex.">
<polygon fill="none" stroke="black" points="604.72,-232.5 604.72,-253.5 663.72,-253.5 663.72,-232.5 604.72,-232.5"/>
<text text-anchor="middle" x="634.22" y="-239.9" font-family="Ubuntu" font-size="12.00">Tile.hpp</text>
</a>
</g>
</g>
<!-- Node1&#45;&gt;Node20 -->
<g id="edge30" class="edge">
<title>Node1&#45;&gt;Node20</title>
<path fill="none" stroke="midnightblue" d="M610.27,-290.25C614.22,-282.62 619.83,-271.79 624.62,-262.53"/>
<polygon fill="midnightblue" stroke="midnightblue" points="627.73,-264.13 629.22,-253.64 621.52,-260.91 627.73,-264.13"/>
</g>
<!-- Node21 -->
<g id="node21" class="node">
<title>Node21</title>
<g id="a_node21"><a xlink:href="_resolution_8hpp_source.html" target="_top" xlink:title=" ">
<polygon fill="none" stroke="black" points="753.72,-232.5 753.72,-253.5 850.72,-253.5 850.72,-232.5 753.72,-232.5"/>
<text text-anchor="middle" x="802.22" y="-239.9" font-family="Ubuntu" font-size="12.00">Resolution.hpp</text>
</a>
</g>
</g>
<!-- Node1&#45;&gt;Node21 -->
<g id="edge33" class="edge">
<title>Node1&#45;&gt;Node21</title>
<path fill="none" stroke="midnightblue" d="M639.08,-290.37C672.27,-280.94 722.97,-266.53 759.04,-256.27"/>
<polygon fill="midnightblue" stroke="midnightblue" points="760.13,-259.6 768.79,-253.5 758.22,-252.87 760.13,-259.6"/>
</g>
<!-- Node23 -->
<g id="node23" class="node">
<title>Node23</title>
<g id="a_node23"><a xlink:title=" ">
<polygon fill="none" stroke="#bfbfbf" points="1001.22,-232.5 1001.22,-253.5 1063.22,-253.5 1063.22,-232.5 1001.22,-232.5"/>
<text text-anchor="middle" x="1032.22" y="-239.9" font-family="Ubuntu" font-size="12.00">memory</text>
</a>
</g>
</g>
<!-- Node1&#45;&gt;Node23 -->
<g id="edge39" class="edge">
<title>Node1&#45;&gt;Node23</title>
<path fill="none" stroke="midnightblue" d="M649.83,-296.07C721.34,-289.45 865.9,-274.73 987.22,-254 988.46,-253.79 989.72,-253.56 990.99,-253.33"/>
<polygon fill="midnightblue" stroke="midnightblue" points="991.69,-256.76 1000.83,-251.39 990.34,-249.89 991.69,-256.76"/>
</g>
<!-- Node3 -->
<g id="node3" class="node">
<title>Node3</title>
<g id="a_node3"><a xlink:href="_game_time_8hpp.html" target="_top" xlink:title="Struct ASGE::GameTime.">
<polygon fill="none" stroke="black" points="665.22,-116.5 665.22,-137.5 763.22,-137.5 763.22,-116.5 665.22,-116.5"/>
<text text-anchor="middle" x="714.22" y="-123.9" font-family="Ubuntu" font-size="12.00">GameTime.hpp</text>
</a>
</g>
</g>
<!-- Node2&#45;&gt;Node3 -->
<g id="edge2" class="edge">
<title>Node2&#45;&gt;Node3</title>
<path fill="none" stroke="midnightblue" d="M720.82,-174.25C719.78,-166.94 718.32,-156.69 717.03,-147.7"/>
<polygon fill="midnightblue" stroke="midnightblue" points="720.47,-147.05 715.6,-137.64 713.55,-148.04 720.47,-147.05"/>
</g>
<!-- Node5 -->
<g id="node5" class="node">
<title>Node5</title>
<g id="a_node5"><a xlink:href="_point2_d_8hpp.html" target="_top" xlink:title="Class ASGE::Point2D.">
<polygon fill="none" stroke="black" points="487.72,-116.5 487.72,-137.5 570.72,-137.5 570.72,-116.5 487.72,-116.5"/>
<text text-anchor="middle" x="529.22" y="-123.9" font-family="Ubuntu" font-size="12.00">Point2D.hpp</text>
</a>
</g>
</g>
<!-- Node2&#45;&gt;Node5 -->
<g id="edge4" class="edge">
<title>Node2&#45;&gt;Node5</title>
<path fill="none" stroke="midnightblue" d="M689.04,-174.37C656.67,-164.98 607.28,-150.65 571.98,-140.41"/>
<polygon fill="midnightblue" stroke="midnightblue" points="572.54,-136.93 561.96,-137.5 570.59,-143.65 572.54,-136.93"/>
</g>
<!-- Node6 -->
<g id="node6" class="node">
<title>Node6</title>
<g id="a_node6"><a xlink:title=" ">
<polygon fill="none" stroke="#bfbfbf" points="577.22,-0.5 577.22,-21.5 621.22,-21.5 621.22,-0.5 577.22,-0.5"/>
<text text-anchor="middle" x="599.22" y="-7.9" font-family="Ubuntu" font-size="12.00">array</text>
</a>
</g>
</g>
<!-- Node2&#45;&gt;Node6 -->
<g id="edge9" class="edge">
<title>Node2&#45;&gt;Node6</title>
<path fill="none" stroke="midnightblue" d="M703,-174.38C688.53,-166.33 669.07,-153.65 656.22,-138 631.6,-108 637.37,-93.29 621.22,-58 617.13,-49.07 612.46,-39.25 608.47,-30.98"/>
<polygon fill="midnightblue" stroke="midnightblue" points="611.55,-29.3 604.04,-21.83 605.25,-32.35 611.55,-29.3"/>
</g>
<!-- Node2&#45;&gt;Node8 -->
<g id="edge7" class="edge">
<title>Node2&#45;&gt;Node8</title>
<path fill="none" stroke="midnightblue" d="M746.63,-174.37C769.83,-165.22 804.92,-151.38 830.73,-141.21"/>
<polygon fill="midnightblue" stroke="midnightblue" points="832.11,-144.43 840.13,-137.5 829.54,-137.91 832.11,-144.43"/>
</g>
<!-- Node4 -->
<g id="node4" class="node">
<title>Node4</title>
<g id="a_node4"><a xlink:title=" ">
<polygon fill="none" stroke="#bfbfbf" points="687.72,-58.5 687.72,-79.5 740.72,-79.5 740.72,-58.5 687.72,-58.5"/>
<text text-anchor="middle" x="714.22" y="-65.9" font-family="Ubuntu" font-size="12.00">chrono</text>
</a>
</g>
</g>
<!-- Node3&#45;&gt;Node4 -->
<g id="edge3" class="edge">
<title>Node3&#45;&gt;Node4</title>
<path fill="none" stroke="midnightblue" d="M714.22,-116.25C714.22,-108.94 714.22,-98.69 714.22,-89.7"/>
<polygon fill="midnightblue" stroke="midnightblue" points="717.72,-89.64 714.22,-79.64 710.72,-89.64 717.72,-89.64"/>
</g>
<!-- Node5&#45;&gt;Node6 -->
<g id="edge5" class="edge">
<title>Node5&#45;&gt;Node6</title>
<path fill="none" stroke="midnightblue" d="M535.19,-116.28C546.86,-97.27 572.89,-54.88 587.92,-30.4"/>
<polygon fill="midnightblue" stroke="midnightblue" points="591.02,-32.05 593.27,-21.69 585.05,-28.39 591.02,-32.05"/>
</g>
<!-- Node5&#45;&gt;Node7 -->
<g id="edge6" class="edge">
<title>Node5&#45;&gt;Node7</title>
<path fill="none" stroke="midnightblue" d="M522.06,-116.36C511.81,-102.81 492.12,-77.59 473.22,-58 463.15,-47.57 451.06,-36.78 441.07,-28.28"/>
<polygon fill="midnightblue" stroke="midnightblue" points="443.18,-25.47 433.27,-21.73 438.68,-30.84 443.18,-25.47"/>
</g>
<!-- Node9 -->
<g id="node9" class="node">
<title>Node9</title>
<g id="a_node9"><a xlink:title=" ">
<polygon fill="none" stroke="#bfbfbf" points="873.72,-58.5 873.72,-79.5 926.72,-79.5 926.72,-58.5 873.72,-58.5"/>
<text text-anchor="middle" x="900.22" y="-65.9" font-family="Ubuntu" font-size="12.00">cstdint</text>
</a>
</g>
</g>
<!-- Node8&#45;&gt;Node9 -->
<g id="edge8" class="edge">
<title>Node8&#45;&gt;Node9</title>
<path fill="none" stroke="midnightblue" d="M870.49,-116.25C875.44,-108.54 882.5,-97.56 888.5,-88.23"/>
<polygon fill="midnightblue" stroke="midnightblue" points="891.56,-89.95 894.02,-79.64 885.67,-86.16 891.56,-89.95"/>
</g>
<!-- Node10&#45;&gt;Node6 -->
<g id="edge11" class="edge">
<title>Node10&#45;&gt;Node6</title>
<path fill="none" stroke="midnightblue" d="M621.86,-174.26C618.03,-146.82 607.1,-68.51 601.96,-31.64"/>
<polygon fill="midnightblue" stroke="midnightblue" points="605.41,-31.05 600.56,-21.63 598.48,-32.02 605.41,-31.05"/>
</g>
<!-- Node11&#45;&gt;Node7 -->
<g id="edge13" class="edge">
<title>Node11&#45;&gt;Node7</title>
<path fill="none" stroke="midnightblue" d="M144.26,-58.44C214.24,-46.7 330.61,-27.19 387.63,-17.63"/>
<polygon fill="midnightblue" stroke="midnightblue" points="388.28,-21.07 397.56,-15.97 387.12,-14.17 388.28,-21.07"/>
</g>
<!-- Node12&#45;&gt;Node7 -->
<g id="edge28" class="edge">
<title>Node12&#45;&gt;Node7</title>
<path fill="none" stroke="midnightblue" d="M486.38,-232.35C471.58,-224.78 453.41,-212.72 444.22,-196 427.07,-164.8 444.31,-151.36 440.22,-116 436.78,-86.33 430.03,-52.35 425.58,-31.53"/>
<polygon fill="midnightblue" stroke="midnightblue" points="428.98,-30.71 423.43,-21.69 422.14,-32.2 428.98,-30.71"/>
</g>
<!-- Node12&#45;&gt;Node10 -->
<g id="edge15" class="edge">
<title>Node12&#45;&gt;Node10</title>
<path fill="none" stroke="midnightblue" d="M528.82,-232.37C546.95,-223.46 574.13,-210.11 594.68,-200.02"/>
<polygon fill="midnightblue" stroke="midnightblue" points="596.44,-203.05 603.88,-195.5 593.36,-196.77 596.44,-203.05"/>
</g>
<!-- Node13 -->
<g id="node13" class="node">
<title>Node13</title>
<g id="a_node13"><a xlink:href="_font_8hpp.html" target="_top" xlink:title="Struct ASGE::Font.">
<polygon fill="none" stroke="black" points="326.72,-174.5 326.72,-195.5 391.72,-195.5 391.72,-174.5 326.72,-174.5"/>
<text text-anchor="middle" x="359.22" y="-181.9" font-family="Ubuntu" font-size="12.00">Font.hpp</text>
</a>
</g>
</g>
<!-- Node12&#45;&gt;Node13 -->
<g id="edge16" class="edge">
<title>Node12&#45;&gt;Node13</title>
<path fill="none" stroke="midnightblue" d="M483.43,-232.37C458.81,-223.18 421.53,-209.26 394.23,-199.07"/>
<polygon fill="midnightblue" stroke="midnightblue" points="395.26,-195.72 384.67,-195.5 392.81,-202.28 395.26,-195.72"/>
</g>
<!-- Node19 -->
<g id="node19" class="node">
<title>Node19</title>
<g id="a_node19"><a xlink:href="_sprite_bounds_8hpp.html" target="_top" xlink:title="Struct ASGE::SpriteBounds.">
<polygon fill="none" stroke="black" points="453.22,-174.5 453.22,-195.5 565.22,-195.5 565.22,-174.5 453.22,-174.5"/>
<text text-anchor="middle" x="509.22" y="-181.9" font-family="Ubuntu" font-size="12.00">SpriteBounds.hpp</text>
</a>
</g>
</g>
<!-- Node12&#45;&gt;Node19 -->
<g id="edge26" class="edge">
<title>Node12&#45;&gt;Node19</title>
<path fill="none" stroke="midnightblue" d="M509.22,-232.25C509.22,-224.94 509.22,-214.69 509.22,-205.7"/>
<polygon fill="midnightblue" stroke="midnightblue" points="512.72,-205.64 509.22,-195.64 505.72,-205.64 512.72,-205.64"/>
</g>
<!-- Node13&#45;&gt;Node7 -->
<g id="edge24" class="edge">
<title>Node13&#45;&gt;Node7</title>
<path fill="none" stroke="midnightblue" d="M360.9,-174.43C363.49,-160.96 369.12,-135.83 378.22,-116 386.24,-98.52 394.2,-97.48 402.22,-80 409.4,-64.35 414.42,-45.41 417.49,-31.49"/>
<polygon fill="midnightblue" stroke="midnightblue" points="420.94,-32.07 419.54,-21.57 414.09,-30.66 420.94,-32.07"/>
</g>
<!-- Node14 -->
<g id="node14" class="node">
<title>Node14</title>
<g id="a_node14"><a xlink:href="_non_copyable_8hpp.html" target="_top" xlink:title="Class ASGE::NonCopyable.">
<polygon fill="none" stroke="black" points="281.22,-58.5 281.22,-79.5 393.22,-79.5 393.22,-58.5 281.22,-58.5"/>
<text text-anchor="middle" x="337.22" y="-65.9" font-family="Ubuntu" font-size="12.00">NonCopyable.hpp</text>
</a>
</g>
</g>
<!-- Node13&#45;&gt;Node14 -->
<g id="edge17" class="edge">
<title>Node13&#45;&gt;Node14</title>
<path fill="none" stroke="midnightblue" d="M355.7,-174.26C352.5,-165.04 347.89,-150.75 345.22,-138 341.87,-122 339.81,-103.57 338.62,-89.94"/>
<polygon fill="midnightblue" stroke="midnightblue" points="342.1,-89.47 337.82,-79.77 335.12,-90.02 342.1,-89.47"/>
</g>
<!-- Node13&#45;&gt;Node15 -->
<g id="edge18" class="edge">
<title>Node13&#45;&gt;Node15</title>
<path fill="none" stroke="midnightblue" d="M340.58,-174.25C323.78,-165.45 298.85,-152.41 279.76,-142.41"/>
<polygon fill="midnightblue" stroke="midnightblue" points="281.13,-139.18 270.64,-137.64 277.88,-145.38 281.13,-139.18"/>
</g>
<!-- Node18 -->
<g id="node18" class="node">
<title>Node18</title>
<g id="a_node18"><a xlink:title=" ">
<polygon fill="none" stroke="#bfbfbf" points="387.22,-116.5 387.22,-137.5 431.22,-137.5 431.22,-116.5 387.22,-116.5"/>
<text text-anchor="middle" x="409.22" y="-123.9" font-family="Ubuntu" font-size="12.00">tuple</text>
</a>
</g>
</g>
<!-- Node13&#45;&gt;Node18 -->
<g id="edge25" class="edge">
<title>Node13&#45;&gt;Node18</title>
<path fill="none" stroke="midnightblue" d="M367.93,-174.25C375.03,-166.3 385.23,-154.87 393.71,-145.37"/>
<polygon fill="midnightblue" stroke="midnightblue" points="396.56,-147.43 400.61,-137.64 391.34,-142.77 396.56,-147.43"/>
</g>
<!-- Node15&#45;&gt;Node11 -->
<g id="edge19" class="edge">
<title>Node15&#45;&gt;Node11</title>
<path fill="none" stroke="midnightblue" d="M223.85,-116.37C196.54,-107.1 155.04,-93.02 124.94,-82.8"/>
<polygon fill="midnightblue" stroke="midnightblue" points="125.81,-79.4 115.21,-79.5 123.56,-86.03 125.81,-79.4"/>
</g>
<!-- Node15&#45;&gt;Node14 -->
<g id="edge20" class="edge">
<title>Node15&#45;&gt;Node14</title>
<path fill="none" stroke="midnightblue" d="M267.02,-116.25C279.94,-107.73 298.91,-95.24 313.87,-85.38"/>
<polygon fill="midnightblue" stroke="midnightblue" points="316.16,-88.07 322.58,-79.64 312.31,-82.22 316.16,-88.07"/>
</g>
<!-- Node16 -->
<g id="node16" class="node">
<title>Node16</title>
<g id="a_node16"><a xlink:href="_pixel_buffer_8hpp.html" target="_top" xlink:title="Class ASGE::PixelBuffer.">
<polygon fill="none" stroke="black" points="163.22,-58.5 163.22,-79.5 263.22,-79.5 263.22,-58.5 163.22,-58.5"/>
<text text-anchor="middle" x="213.22" y="-65.9" font-family="Ubuntu" font-size="12.00">PixelBuffer.hpp</text>
</a>
</g>
</g>
<!-- Node15&#45;&gt;Node16 -->
<g id="edge21" class="edge">
<title>Node15&#45;&gt;Node16</title>
<path fill="none" stroke="midnightblue" d="M245.43,-116.25C240,-108.46 232.25,-97.33 225.71,-87.94"/>
<polygon fill="midnightblue" stroke="midnightblue" points="228.52,-85.85 219.93,-79.64 222.78,-89.85 228.52,-85.85"/>
</g>
<!-- Node16&#45;&gt;Node6 -->
<g id="edge22" class="edge">
<title>Node16&#45;&gt;Node6</title>
<path fill="none" stroke="midnightblue" d="M263.41,-59.39C266.39,-58.91 269.34,-58.45 272.22,-58 379.95,-41.3 508.07,-24.03 566.84,-16.25"/>
<polygon fill="midnightblue" stroke="midnightblue" points="567.53,-19.69 576.98,-14.91 566.61,-12.75 567.53,-19.69"/>
</g>
<!-- Node17 -->
<g id="node17" class="node">
<title>Node17</title>
<g id="a_node17"><a xlink:title=" ">
<polygon fill="none" stroke="#bfbfbf" points="186.72,-0.5 186.72,-21.5 239.72,-21.5 239.72,-0.5 186.72,-0.5"/>
<text text-anchor="middle" x="213.22" y="-7.9" font-family="Ubuntu" font-size="12.00">atomic</text>
</a>
</g>
</g>
<!-- Node16&#45;&gt;Node17 -->
<g id="edge23" class="edge">
<title>Node16&#45;&gt;Node17</title>
<path fill="none" stroke="midnightblue" d="M213.22,-58.25C213.22,-50.94 213.22,-40.69 213.22,-31.7"/>
<polygon fill="midnightblue" stroke="midnightblue" points="216.72,-31.64 213.22,-21.64 209.72,-31.64 216.72,-31.64"/>
</g>
<!-- Node19&#45;&gt;Node5 -->
<g id="edge27" class="edge">
<title>Node19&#45;&gt;Node5</title>
<path fill="none" stroke="midnightblue" d="M512.7,-174.25C515.37,-166.78 519.13,-156.24 522.39,-147.11"/>
<polygon fill="midnightblue" stroke="midnightblue" points="525.71,-148.24 525.77,-137.64 519.11,-145.88 525.71,-148.24"/>
</g>
<!-- Node20&#45;&gt;Node10 -->
<g id="edge31" class="edge">
<title>Node20&#45;&gt;Node10</title>
<path fill="none" stroke="midnightblue" d="M632.3,-232.25C630.87,-224.94 628.85,-214.69 627.09,-205.7"/>
<polygon fill="midnightblue" stroke="midnightblue" points="630.47,-204.78 625.11,-195.64 623.61,-206.13 630.47,-204.78"/>
</g>
<!-- Node21&#45;&gt;Node2 -->
<g id="edge34" class="edge">
<title>Node21&#45;&gt;Node2</title>
<path fill="none" stroke="midnightblue" d="M788.28,-232.25C776.12,-223.73 758.27,-211.24 744.19,-201.38"/>
<polygon fill="midnightblue" stroke="midnightblue" points="746.19,-198.51 735.99,-195.64 742.18,-204.24 746.19,-198.51"/>
</g>
<!-- Node21&#45;&gt;Node6 -->
<g id="edge38" class="edge">
<title>Node21&#45;&gt;Node6</title>
<path fill="none" stroke="midnightblue" d="M802.64,-232.24C803.39,-201.51 801.25,-106.03 749.22,-58 716.62,-27.91 664.78,-17.49 631.38,-13.89"/>
<polygon fill="midnightblue" stroke="midnightblue" points="631.52,-10.38 621.24,-12.94 630.87,-17.35 631.52,-10.38"/>
</g>
<!-- Node21&#45;&gt;Node8 -->
<g id="edge35" class="edge">
<title>Node21&#45;&gt;Node8</title>
<path fill="none" stroke="midnightblue" d="M829.91,-232.43C846.26,-225.18 865.59,-213.44 875.22,-196 883.49,-181 879.07,-161.5 873.56,-147.23"/>
<polygon fill="midnightblue" stroke="midnightblue" points="876.71,-145.69 869.52,-137.9 870.28,-148.47 876.71,-145.69"/>
</g>
<!-- Node21&#45;&gt;Node9 -->
<g id="edge36" class="edge">
<title>Node21&#45;&gt;Node9</title>
<path fill="none" stroke="midnightblue" d="M832.68,-232.47C851.88,-225.14 876.03,-213.29 892.22,-196 917.68,-168.81 923.78,-152.67 917.22,-116 915.57,-106.81 912.22,-97.05 908.92,-88.89"/>
<polygon fill="midnightblue" stroke="midnightblue" points="912.08,-87.38 904.9,-79.59 905.65,-90.16 912.08,-87.38"/>
</g>
<!-- Node22 -->
<g id="node22" class="node">
<title>Node22</title>
<g id="a_node22"><a xlink:title=" ">
<polygon fill="none" stroke="#bfbfbf" points="819.72,-174.5 819.72,-195.5 866.72,-195.5 866.72,-174.5 819.72,-174.5"/>
<text text-anchor="middle" x="843.22" y="-181.9" font-family="Ubuntu" font-size="12.00">utility</text>
</a>
</g>
</g>
<!-- Node21&#45;&gt;Node22 -->
<g id="edge37" class="edge">
<title>Node21&#45;&gt;Node22</title>
<path fill="none" stroke="midnightblue" d="M809.36,-232.25C815.06,-224.46 823.21,-213.33 830.08,-203.94"/>
<polygon fill="midnightblue" stroke="midnightblue" points="833.08,-205.78 836.16,-195.64 827.43,-201.64 833.08,-205.78"/>
</g>
</g>
</svg>
