<?xml version="1.0" encoding="UTF-8" standalone="no"?>
<!DOCTYPE svg PUBLIC "-//W3C//DTD SVG 1.1//EN"
 "http://www.w3.org/Graphics/SVG/1.1/DTD/svg11.dtd">
<!-- Generated by graphviz version 2.48.0 (0)
 -->
<!-- Title: RenderTarget.hpp Pages: 1 -->
<svg width="581pt" height="204pt"
 viewBox="0.00 0.00 581.00 204.00" xmlns="http://www.w3.org/2000/svg" xmlns:xlink="http://www.w3.org/1999/xlink">
<g id="graph0" class="graph" transform="scale(1 1) rotate(0) translate(4 200)">
<title>RenderTarget.hpp</title>
<!-- Node1 -->
<g id="node1" class="node">
<title>Node1</title>
<g id="a_node1"><a xlink:title="Class ASGE::RenderTarget.">
<polygon fill="#bfbfbf" stroke="black" points="370,-174.5 370,-195.5 484,-195.5 484,-174.5 370,-174.5"/>
<text text-anchor="middle" x="427" y="-181.9" font-family="Ubuntu" font-size="12.00">RenderTarget.hpp</text>
</a>
</g>
</g>
<!-- Node2 -->
<g id="node2" class="node">
<title>Node2</title>
<g id="a_node2"><a xlink:href="_texture_8hpp.html" target="_top" xlink:title="Class ASGE::Texture2D, Enum Class ASGE::SpriteSortMode.">
<polygon fill="none" stroke="black" points="207.5,-116.5 207.5,-137.5 288.5,-137.5 288.5,-116.5 207.5,-116.5"/>
<text text-anchor="middle" x="248" y="-123.9" font-family="Ubuntu" font-size="12.00">Texture.hpp</text>
</a>
</g>
</g>
<!-- Node1&#45;&gt;Node2 -->
<g id="edge1" class="edge">
<title>Node1&#45;&gt;Node2</title>
<path fill="none" stroke="midnightblue" d="M396.23,-174.37C366.33,-165.02 320.79,-150.77 288.08,-140.54"/>
<polygon fill="midnightblue" stroke="midnightblue" points="288.96,-137.15 278.37,-137.5 286.87,-143.83 288.96,-137.15"/>
</g>
<!-- Node9 -->
<g id="node9" class="node">
<title>Node9</title>
<g id="a_node9"><a xlink:href="_viewport_8hpp.html" target="_top" xlink:title="Struct ASGE::Viewport.">
<polygon fill="none" stroke="black" points="335.5,-116.5 335.5,-137.5 424.5,-137.5 424.5,-116.5 335.5,-116.5"/>
<text text-anchor="middle" x="380" y="-123.9" font-family="Ubuntu" font-size="12.00">Viewport.hpp</text>
</a>
</g>
</g>
<!-- Node1&#45;&gt;Node9 -->
<g id="edge8" class="edge">
<title>Node1&#45;&gt;Node9</title>
<path fill="none" stroke="midnightblue" d="M418.81,-174.25C412.14,-166.3 402.55,-154.87 394.57,-145.37"/>
<polygon fill="midnightblue" stroke="midnightblue" points="397.2,-143.05 388.09,-137.64 391.84,-147.55 397.2,-143.05"/>
</g>
<!-- Node11 -->
<g id="node11" class="node">
<title>Node11</title>
<g id="a_node11"><a xlink:title=" ">
<polygon fill="none" stroke="#bfbfbf" points="443,-116.5 443,-137.5 505,-137.5 505,-116.5 443,-116.5"/>
<text text-anchor="middle" x="474" y="-123.9" font-family="Ubuntu" font-size="12.00">memory</text>
</a>
</g>
</g>
<!-- Node1&#45;&gt;Node11 -->
<g id="edge10" class="edge">
<title>Node1&#45;&gt;Node11</title>
<path fill="none" stroke="midnightblue" d="M435.19,-174.25C441.86,-166.3 451.45,-154.87 459.43,-145.37"/>
<polygon fill="midnightblue" stroke="midnightblue" points="462.16,-147.55 465.91,-137.64 456.8,-143.05 462.16,-147.55"/>
</g>
<!-- Node12 -->
<g id="node12" class="node">
<title>Node12</title>
<g id="a_node12"><a xlink:title=" ">
<polygon fill="none" stroke="#bfbfbf" points="523,-116.5 523,-137.5 573,-137.5 573,-116.5 523,-116.5"/>
<text text-anchor="middle" x="548" y="-123.9" font-family="Ubuntu" font-size="12.00">vector</text>
</a>
</g>
</g>
<!-- Node1&#45;&gt;Node12 -->
<g id="edge11" class="edge">
<title>Node1&#45;&gt;Node12</title>
<path fill="none" stroke="midnightblue" d="M447.8,-174.37C467.22,-165.38 496.42,-151.87 518.3,-141.75"/>
<polygon fill="midnightblue" stroke="midnightblue" points="519.87,-144.88 527.47,-137.5 516.93,-138.52 519.87,-144.88"/>
</g>
<!-- Node3 -->
<g id="node3" class="node">
<title>Node3</title>
<g id="a_node3"><a xlink:href="_game_settings_8hpp.html" target="_top" xlink:title="Struct ASGE::GameSettings, Enum ASGE::GameSettings::WindowMode, Enum ASGE::GameSettings::MagFilter,...">
<polygon fill="none" stroke="black" points="0,-58.5 0,-79.5 116,-79.5 116,-58.5 0,-58.5"/>
<text text-anchor="middle" x="58" y="-65.9" font-family="Ubuntu" font-size="12.00">GameSettings.hpp</text>
</a>
</g>
</g>
<!-- Node2&#45;&gt;Node3 -->
<g id="edge2" class="edge">
<title>Node2&#45;&gt;Node3</title>
<path fill="none" stroke="midnightblue" d="M215.34,-116.37C183.47,-106.98 134.85,-92.65 100.09,-82.41"/>
<polygon fill="midnightblue" stroke="midnightblue" points="100.82,-78.97 90.24,-79.5 98.84,-85.69 100.82,-78.97"/>
</g>
<!-- Node5 -->
<g id="node5" class="node">
<title>Node5</title>
<g id="a_node5"><a xlink:href="_non_copyable_8hpp.html" target="_top" xlink:title="Class ASGE::NonCopyable.">
<polygon fill="none" stroke="black" points="134,-58.5 134,-79.5 246,-79.5 246,-58.5 134,-58.5"/>
<text text-anchor="middle" x="190" y="-65.9" font-family="Ubuntu" font-size="12.00">NonCopyable.hpp</text>
</a>
</g>
</g>
<!-- Node2&#45;&gt;Node5 -->
<g id="edge4" class="edge">
<title>Node2&#45;&gt;Node5</title>
<path fill="none" stroke="midnightblue" d="M237.9,-116.25C229.5,-108.14 217.35,-96.41 207.39,-86.79"/>
<polygon fill="midnightblue" stroke="midnightblue" points="209.61,-84.07 199.99,-79.64 204.75,-89.11 209.61,-84.07"/>
</g>
<!-- Node6 -->
<g id="node6" class="node">
<title>Node6</title>
<g id="a_node6"><a xlink:href="_pixel_buffer_8hpp.html" target="_top" xlink:title="Class ASGE::PixelBuffer.">
<polygon fill="none" stroke="black" points="264,-58.5 264,-79.5 364,-79.5 364,-58.5 264,-58.5"/>
<text text-anchor="middle" x="314" y="-65.9" font-family="Ubuntu" font-size="12.00">PixelBuffer.hpp</text>
</a>
</g>
</g>
<!-- Node2&#45;&gt;Node6 -->
<g id="edge5" class="edge">
<title>Node2&#45;&gt;Node6</title>
<path fill="none" stroke="midnightblue" d="M259.5,-116.25C269.24,-107.97 283.43,-95.94 294.88,-86.22"/>
<polygon fill="midnightblue" stroke="midnightblue" points="297.27,-88.78 302.64,-79.64 292.75,-83.44 297.27,-88.78"/>
</g>
<!-- Node4 -->
<g id="node4" class="node">
<title>Node4</title>
<g id="a_node4"><a xlink:title=" ">
<polygon fill="none" stroke="#bfbfbf" points="34.5,-0.5 34.5,-21.5 81.5,-21.5 81.5,-0.5 34.5,-0.5"/>
<text text-anchor="middle" x="58" y="-7.9" font-family="Ubuntu" font-size="12.00">string</text>
</a>
</g>
</g>
<!-- Node3&#45;&gt;Node4 -->
<g id="edge3" class="edge">
<title>Node3&#45;&gt;Node4</title>
<path fill="none" stroke="midnightblue" d="M58,-58.25C58,-50.94 58,-40.69 58,-31.7"/>
<polygon fill="midnightblue" stroke="midnightblue" points="61.5,-31.64 58,-21.64 54.5,-31.64 61.5,-31.64"/>
</g>
<!-- Node7 -->
<g id="node7" class="node">
<title>Node7</title>
<g id="a_node7"><a xlink:title=" ">
<polygon fill="none" stroke="#bfbfbf" points="258,-0.5 258,-21.5 302,-21.5 302,-0.5 258,-0.5"/>
<text text-anchor="middle" x="280" y="-7.9" font-family="Ubuntu" font-size="12.00">array</text>
</a>
</g>
</g>
<!-- Node6&#45;&gt;Node7 -->
<g id="edge6" class="edge">
<title>Node6&#45;&gt;Node7</title>
<path fill="none" stroke="midnightblue" d="M308.08,-58.25C303.4,-50.54 296.73,-39.56 291.07,-30.23"/>
<polygon fill="midnightblue" stroke="midnightblue" points="294.04,-28.37 285.85,-21.64 288.05,-32.01 294.04,-28.37"/>
</g>
<!-- Node8 -->
<g id="node8" class="node">
<title>Node8</title>
<g id="a_node8"><a xlink:title=" ">
<polygon fill="none" stroke="#bfbfbf" points="320.5,-0.5 320.5,-21.5 373.5,-21.5 373.5,-0.5 320.5,-0.5"/>
<text text-anchor="middle" x="347" y="-7.9" font-family="Ubuntu" font-size="12.00">atomic</text>
</a>
</g>
</g>
<!-- Node6&#45;&gt;Node8 -->
<g id="edge7" class="edge">
<title>Node6&#45;&gt;Node8</title>
<path fill="none" stroke="midnightblue" d="M319.75,-58.25C324.24,-50.62 330.62,-39.79 336.08,-30.53"/>
<polygon fill="midnightblue" stroke="midnightblue" points="339.26,-32.04 341.32,-21.64 333.23,-28.48 339.26,-32.04"/>
</g>
<!-- Node10 -->
<g id="node10" class="node">
<title>Node10</title>
<g id="a_node10"><a xlink:title=" ">
<polygon fill="none" stroke="#bfbfbf" points="382.5,-58.5 382.5,-79.5 435.5,-79.5 435.5,-58.5 382.5,-58.5"/>
<text text-anchor="middle" x="409" y="-65.9" font-family="Ubuntu" font-size="12.00">cstdint</text>
</a>
</g>
</g>
<!-- Node9&#45;&gt;Node10 -->
<g id="edge9" class="edge">
<title>Node9&#45;&gt;Node10</title>
<path fill="none" stroke="midnightblue" d="M385.05,-116.25C389,-108.62 394.61,-97.79 399.41,-88.53"/>
<polygon fill="midnightblue" stroke="midnightblue" points="402.52,-90.13 404.01,-79.64 396.3,-86.91 402.52,-90.13"/>
</g>
</g>
</svg>
