<?xml version="1.0" encoding="UTF-8" standalone="no"?>
<!DOCTYPE svg PUBLIC "-//W3C//DTD SVG 1.1//EN"
 "http://www.w3.org/Graphics/SVG/1.1/DTD/svg11.dtd">
<!-- Generated by graphviz version 2.48.0 (0)
 -->
<!-- Title: Shader.hpp Pages: 1 -->
<svg width="474pt" height="146pt"
 viewBox="0.00 0.00 473.50 146.00" xmlns="http://www.w3.org/2000/svg" xmlns:xlink="http://www.w3.org/1999/xlink">
<g id="graph0" class="graph" transform="scale(1 1) rotate(0) translate(4 142)">
<title>Shader.hpp</title>
<!-- Node1 -->
<g id="node1" class="node">
<title>Node1</title>
<g id="a_node1"><a xlink:title="Namespace ASGE::SHADER_LIB, Class ASGE::SHADER_LIB::Shader.">
<polygon fill="#bfbfbf" stroke="black" points="231.5,-116.5 231.5,-137.5 308.5,-137.5 308.5,-116.5 231.5,-116.5"/>
<text text-anchor="middle" x="270" y="-123.9" font-family="Ubuntu" font-size="12.00">Shader.hpp</text>
</a>
</g>
</g>
<!-- Node2 -->
<g id="node2" class="node">
<title>Node2</title>
<g id="a_node2"><a xlink:href="_non_copyable_8hpp.html" target="_top" xlink:title="Class ASGE::NonCopyable.">
<polygon fill="none" stroke="black" points="0,-58.5 0,-79.5 112,-79.5 112,-58.5 0,-58.5"/>
<text text-anchor="middle" x="56" y="-65.9" font-family="Ubuntu" font-size="12.00">NonCopyable.hpp</text>
</a>
</g>
</g>
<!-- Node1&#45;&gt;Node2 -->
<g id="edge1" class="edge">
<title>Node1&#45;&gt;Node2</title>
<path fill="none" stroke="midnightblue" d="M233.21,-116.37C196.93,-106.88 141.38,-92.34 102.16,-82.08"/>
<polygon fill="midnightblue" stroke="midnightblue" points="102.87,-78.65 92.31,-79.5 101.1,-85.42 102.87,-78.65"/>
</g>
<!-- Node3 -->
<g id="node3" class="node">
<title>Node3</title>
<g id="a_node3"><a xlink:href="_value_8hpp.html" target="_top" xlink:title="Namespace ASGE, Class ASGE::ValueBase, Class ASGE::Value&lt; T &gt; Stores the generic value class.">
<polygon fill="none" stroke="black" points="130,-58.5 130,-79.5 200,-79.5 200,-58.5 130,-58.5"/>
<text text-anchor="middle" x="165" y="-65.9" font-family="Ubuntu" font-size="12.00">Value.hpp</text>
</a>
</g>
</g>
<!-- Node1&#45;&gt;Node3 -->
<g id="edge2" class="edge">
<title>Node1&#45;&gt;Node3</title>
<path fill="none" stroke="midnightblue" d="M251.71,-116.25C235.22,-107.45 210.76,-94.41 192.02,-84.41"/>
<polygon fill="midnightblue" stroke="midnightblue" points="193.55,-81.26 183.08,-79.64 190.26,-87.44 193.55,-81.26"/>
</g>
<!-- Node5 -->
<g id="node5" class="node">
<title>Node5</title>
<g id="a_node5"><a xlink:title=" ">
<polygon fill="none" stroke="#bfbfbf" points="218,-58.5 218,-79.5 262,-79.5 262,-58.5 218,-58.5"/>
<text text-anchor="middle" x="240" y="-65.9" font-family="Ubuntu" font-size="12.00">array</text>
</a>
</g>
</g>
<!-- Node1&#45;&gt;Node5 -->
<g id="edge4" class="edge">
<title>Node1&#45;&gt;Node5</title>
<path fill="none" stroke="midnightblue" d="M264.77,-116.25C260.69,-108.62 254.89,-97.79 249.93,-88.53"/>
<polygon fill="midnightblue" stroke="midnightblue" points="252.97,-86.8 245.17,-79.64 246.8,-90.11 252.97,-86.8"/>
</g>
<!-- Node6 -->
<g id="node6" class="node">
<title>Node6</title>
<g id="a_node6"><a xlink:title=" ">
<polygon fill="none" stroke="#bfbfbf" points="280,-58.5 280,-79.5 320,-79.5 320,-58.5 280,-58.5"/>
<text text-anchor="middle" x="300" y="-65.9" font-family="Ubuntu" font-size="12.00">map</text>
</a>
</g>
</g>
<!-- Node1&#45;&gt;Node6 -->
<g id="edge5" class="edge">
<title>Node1&#45;&gt;Node6</title>
<path fill="none" stroke="midnightblue" d="M275.23,-116.25C279.31,-108.62 285.11,-97.79 290.07,-88.53"/>
<polygon fill="midnightblue" stroke="midnightblue" points="293.2,-90.11 294.83,-79.64 287.03,-86.8 293.2,-90.11"/>
</g>
<!-- Node7 -->
<g id="node7" class="node">
<title>Node7</title>
<g id="a_node7"><a xlink:title=" ">
<polygon fill="none" stroke="#bfbfbf" points="338,-58.5 338,-79.5 400,-79.5 400,-58.5 338,-58.5"/>
<text text-anchor="middle" x="369" y="-65.9" font-family="Ubuntu" font-size="12.00">memory</text>
</a>
</g>
</g>
<!-- Node1&#45;&gt;Node7 -->
<g id="edge6" class="edge">
<title>Node1&#45;&gt;Node7</title>
<path fill="none" stroke="midnightblue" d="M287.24,-116.25C302.58,-107.57 325.22,-94.76 342.79,-84.82"/>
<polygon fill="midnightblue" stroke="midnightblue" points="344.97,-87.61 351.95,-79.64 341.53,-81.52 344.97,-87.61"/>
</g>
<!-- Node8 -->
<g id="node8" class="node">
<title>Node8</title>
<g id="a_node8"><a xlink:title=" ">
<polygon fill="none" stroke="#bfbfbf" points="418.5,-58.5 418.5,-79.5 465.5,-79.5 465.5,-58.5 418.5,-58.5"/>
<text text-anchor="middle" x="442" y="-65.9" font-family="Ubuntu" font-size="12.00">string</text>
</a>
</g>
</g>
<!-- Node1&#45;&gt;Node8 -->
<g id="edge7" class="edge">
<title>Node1&#45;&gt;Node8</title>
<path fill="none" stroke="midnightblue" d="M299.57,-116.37C329.9,-106.5 377.01,-91.16 408.65,-80.86"/>
<polygon fill="midnightblue" stroke="midnightblue" points="409.92,-84.13 418.34,-77.7 407.75,-77.47 409.92,-84.13"/>
</g>
<!-- Node4 -->
<g id="node4" class="node">
<title>Node4</title>
<g id="a_node4"><a xlink:title=" ">
<polygon fill="none" stroke="#bfbfbf" points="147.5,-0.5 147.5,-21.5 182.5,-21.5 182.5,-0.5 147.5,-0.5"/>
<text text-anchor="middle" x="165" y="-7.9" font-family="Ubuntu" font-size="12.00">any</text>
</a>
</g>
</g>
<!-- Node3&#45;&gt;Node4 -->
<g id="edge3" class="edge">
<title>Node3&#45;&gt;Node4</title>
<path fill="none" stroke="midnightblue" d="M165,-58.25C165,-50.94 165,-40.69 165,-31.7"/>
<polygon fill="midnightblue" stroke="midnightblue" points="168.5,-31.64 165,-21.64 161.5,-31.64 168.5,-31.64"/>
</g>
</g>
</svg>
