<?xml version="1.0" encoding="UTF-8" standalone="no"?>
<!DOCTYPE svg PUBLIC "-//W3C//DTD SVG 1.1//EN"
 "http://www.w3.org/Graphics/SVG/1.1/DTD/svg11.dtd">
<!-- Generated by graphviz version 2.48.0 (0)
 -->
<!-- Title: SpriteBounds.hpp Pages: 1 -->
<svg width="178pt" height="262pt"
 viewBox="0.00 0.00 177.50 262.00" xmlns="http://www.w3.org/2000/svg" xmlns:xlink="http://www.w3.org/1999/xlink">
<g id="graph0" class="graph" transform="scale(1 1) rotate(0) translate(4 258)">
<title>SpriteBounds.hpp</title>
<!-- Node1 -->
<g id="node1" class="node">
<title>Node1</title>
<g id="a_node1"><a xlink:title="Struct ASGE::SpriteBounds.">
<polygon fill="#bfbfbf" stroke="black" points="23,-232.5 23,-253.5 135,-253.5 135,-232.5 23,-232.5"/>
<text text-anchor="middle" x="79" y="-239.9" font-family="Ubuntu" font-size="12.00">SpriteBounds.hpp</text>
</a>
</g>
</g>
<!-- Node2 -->
<g id="node2" class="node">
<title>Node2</title>
<g id="a_node2"><a xlink:href="_sprite_8hpp.html" target="_top" xlink:title="Class ASGE::Sprite, Enum ASGE::Sprite::FlipFlags, Enum ASGE::Sprite::SourceRectIndex.">
<polygon fill="none" stroke="black" points="0,-174.5 0,-195.5 72,-195.5 72,-174.5 0,-174.5"/>
<text text-anchor="middle" x="36" y="-181.9" font-family="Ubuntu" font-size="12.00">Sprite.hpp</text>
</a>
</g>
</g>
<!-- Node1&#45;&gt;Node2 -->
<g id="edge1" class="edge">
<title>Node1&#45;&gt;Node2</title>
<path fill="none" stroke="midnightblue" d="M65.34,-224.21C58.07,-214.75 49.42,-203.48 43.4,-195.64"/>
<polygon fill="midnightblue" stroke="midnightblue" points="62.64,-226.45 71.51,-232.25 68.2,-222.18 62.64,-226.45"/>
</g>
<!-- Node3 -->
<g id="node3" class="node">
<title>Node3</title>
<g id="a_node3"><a xlink:href="_text_8hpp.html" target="_top" xlink:title="Struct ASGE::Text.">
<polygon fill="none" stroke="black" points="90,-174.5 90,-195.5 154,-195.5 154,-174.5 90,-174.5"/>
<text text-anchor="middle" x="122" y="-181.9" font-family="Ubuntu" font-size="12.00">Text.hpp</text>
</a>
</g>
</g>
<!-- Node1&#45;&gt;Node3 -->
<g id="edge2" class="edge">
<title>Node1&#45;&gt;Node3</title>
<path fill="none" stroke="midnightblue" d="M92.66,-224.21C99.93,-214.75 108.58,-203.48 114.6,-195.64"/>
<polygon fill="midnightblue" stroke="midnightblue" points="89.8,-222.18 86.49,-232.25 95.36,-226.45 89.8,-222.18"/>
</g>
<!-- Node4 -->
<g id="node4" class="node">
<title>Node4</title>
<g id="a_node4"><a xlink:href="_renderer_8hpp.html" target="_top" xlink:title="Class ASGE::Renderer.">
<polygon fill="none" stroke="black" points="77.5,-116.5 77.5,-137.5 166.5,-137.5 166.5,-116.5 77.5,-116.5"/>
<text text-anchor="middle" x="122" y="-123.9" font-family="Ubuntu" font-size="12.00">Renderer.hpp</text>
</a>
</g>
</g>
<!-- Node3&#45;&gt;Node4 -->
<g id="edge3" class="edge">
<title>Node3&#45;&gt;Node4</title>
<path fill="none" stroke="midnightblue" d="M122,-164.16C122,-155.16 122,-144.92 122,-137.64"/>
<polygon fill="midnightblue" stroke="midnightblue" points="118.5,-164.25 122,-174.25 125.5,-164.25 118.5,-164.25"/>
</g>
<!-- Node5 -->
<g id="node5" class="node">
<title>Node5</title>
<g id="a_node5"><a xlink:href="_game_8hpp.html" target="_top" xlink:title="Class ASGE::Game.">
<polygon fill="none" stroke="black" points="86.5,-58.5 86.5,-79.5 157.5,-79.5 157.5,-58.5 86.5,-58.5"/>
<text text-anchor="middle" x="122" y="-65.9" font-family="Ubuntu" font-size="12.00">Game.hpp</text>
</a>
</g>
</g>
<!-- Node4&#45;&gt;Node5 -->
<g id="edge4" class="edge">
<title>Node4&#45;&gt;Node5</title>
<path fill="none" stroke="midnightblue" d="M122,-106.16C122,-97.16 122,-86.92 122,-79.64"/>
<polygon fill="midnightblue" stroke="midnightblue" points="118.5,-106.25 122,-116.25 125.5,-106.25 118.5,-106.25"/>
</g>
<!-- Node6 -->
<g id="node6" class="node">
<title>Node6</title>
<g id="a_node6"><a xlink:href="_o_g_l_game_8hpp.html" target="_top" xlink:title="Class ASGE::OGLGame.">
<polygon fill="none" stroke="black" points="74.5,-0.5 74.5,-21.5 169.5,-21.5 169.5,-0.5 74.5,-0.5"/>
<text text-anchor="middle" x="122" y="-7.9" font-family="Ubuntu" font-size="12.00">OGLGame.hpp</text>
</a>
</g>
</g>
<!-- Node5&#45;&gt;Node6 -->
<g id="edge5" class="edge">
<title>Node5&#45;&gt;Node6</title>
<path fill="none" stroke="midnightblue" d="M122,-48.16C122,-39.16 122,-28.92 122,-21.64"/>
<polygon fill="midnightblue" stroke="midnightblue" points="118.5,-48.25 122,-58.25 125.5,-48.25 118.5,-48.25"/>
</g>
</g>
</svg>
