<?xml version="1.0" encoding="UTF-8" standalone="no"?>
<!DOCTYPE svg PUBLIC "-//W3C//DTD SVG 1.1//EN"
 "http://www.w3.org/Graphics/SVG/1.1/DTD/svg11.dtd">
<!-- Generated by graphviz version 2.48.0 (0)
 -->
<!-- Title: SpriteBounds.hpp Pages: 1 -->
<svg width="120pt" height="146pt"
 viewBox="0.00 0.00 120.00 146.00" xmlns="http://www.w3.org/2000/svg" xmlns:xlink="http://www.w3.org/1999/xlink">
<g id="graph0" class="graph" transform="scale(1 1) rotate(0) translate(4 142)">
<title>SpriteBounds.hpp</title>
<!-- Node1 -->
<g id="node1" class="node">
<title>Node1</title>
<g id="a_node1"><a xlink:title="Struct ASGE::SpriteBounds.">
<polygon fill="#bfbfbf" stroke="black" points="0,-116.5 0,-137.5 112,-137.5 112,-116.5 0,-116.5"/>
<text text-anchor="middle" x="56" y="-123.9" font-family="Ubuntu" font-size="12.00">SpriteBounds.hpp</text>
</a>
</g>
</g>
<!-- Node2 -->
<g id="node2" class="node">
<title>Node2</title>
<g id="a_node2"><a xlink:href="_point2_d_8hpp.html" target="_top" xlink:title="Class ASGE::Point2D.">
<polygon fill="none" stroke="black" points="14.5,-58.5 14.5,-79.5 97.5,-79.5 97.5,-58.5 14.5,-58.5"/>
<text text-anchor="middle" x="56" y="-65.9" font-family="Ubuntu" font-size="12.00">Point2D.hpp</text>
</a>
</g>
</g>
<!-- Node1&#45;&gt;Node2 -->
<g id="edge1" class="edge">
<title>Node1&#45;&gt;Node2</title>
<path fill="none" stroke="midnightblue" d="M56,-116.25C56,-108.94 56,-98.69 56,-89.7"/>
<polygon fill="midnightblue" stroke="midnightblue" points="59.5,-89.64 56,-79.64 52.5,-89.64 59.5,-89.64"/>
</g>
<!-- Node3 -->
<g id="node3" class="node">
<title>Node3</title>
<g id="a_node3"><a xlink:title=" ">
<polygon fill="none" stroke="#bfbfbf" points="2,-0.5 2,-21.5 46,-21.5 46,-0.5 2,-0.5"/>
<text text-anchor="middle" x="24" y="-7.9" font-family="Ubuntu" font-size="12.00">array</text>
</a>
</g>
</g>
<!-- Node2&#45;&gt;Node3 -->
<g id="edge2" class="edge">
<title>Node2&#45;&gt;Node3</title>
<path fill="none" stroke="midnightblue" d="M50.43,-58.25C46.07,-50.62 39.88,-39.79 34.59,-30.53"/>
<polygon fill="midnightblue" stroke="midnightblue" points="37.51,-28.59 29.51,-21.64 31.43,-32.06 37.51,-28.59"/>
</g>
<!-- Node4 -->
<g id="node4" class="node">
<title>Node4</title>
<g id="a_node4"><a xlink:title=" ">
<polygon fill="none" stroke="#bfbfbf" points="64.5,-0.5 64.5,-21.5 111.5,-21.5 111.5,-0.5 64.5,-0.5"/>
<text text-anchor="middle" x="88" y="-7.9" font-family="Ubuntu" font-size="12.00">string</text>
</a>
</g>
</g>
<!-- Node2&#45;&gt;Node4 -->
<g id="edge3" class="edge">
<title>Node2&#45;&gt;Node4</title>
<path fill="none" stroke="midnightblue" d="M61.57,-58.25C65.93,-50.62 72.12,-39.79 77.41,-30.53"/>
<polygon fill="midnightblue" stroke="midnightblue" points="80.57,-32.06 82.49,-21.64 74.49,-28.59 80.57,-32.06"/>
</g>
</g>
</svg>
