<?xml version="1.0" encoding="UTF-8" standalone="no"?>
<!DOCTYPE svg PUBLIC "-//W3C//DTD SVG 1.1//EN"
 "http://www.w3.org/Graphics/SVG/1.1/DTD/svg11.dtd">
<!-- Generated by graphviz version 2.48.0 (0)
 -->
<!-- Title: Sprite.hpp Pages: 1 -->
<svg width="534pt" height="204pt"
 viewBox="0.00 0.00 533.97 204.00" xmlns="http://www.w3.org/2000/svg" xmlns:xlink="http://www.w3.org/1999/xlink">
<g id="graph0" class="graph" transform="scale(1 1) rotate(0) translate(4 200)">
<title>Sprite.hpp</title>
<!-- Node1 -->
<g id="node1" class="node">
<title>Node1</title>
<g id="a_node1"><a xlink:title="Class ASGE::Sprite, Enum ASGE::Sprite::FlipFlags, Enum ASGE::Sprite::SourceRectIndex.">
<polygon fill="#bfbfbf" stroke="black" points="148.97,-174.5 148.97,-195.5 220.97,-195.5 220.97,-174.5 148.97,-174.5"/>
<text text-anchor="middle" x="184.97" y="-181.9" font-family="Ubuntu" font-size="12.00">Sprite.hpp</text>
</a>
</g>
</g>
<!-- Node2 -->
<g id="node2" class="node">
<title>Node2</title>
<g id="a_node2"><a xlink:href="_texture_8hpp.html" target="_top" xlink:title="Class ASGE::Texture2D, Enum Class ASGE::SpriteSortMode.">
<polygon fill="none" stroke="black" points="243.47,-116.5 243.47,-137.5 324.47,-137.5 324.47,-116.5 243.47,-116.5"/>
<text text-anchor="middle" x="283.97" y="-123.9" font-family="Ubuntu" font-size="12.00">Texture.hpp</text>
</a>
</g>
</g>
<!-- Node1&#45;&gt;Node2 -->
<g id="edge1" class="edge">
<title>Node1&#45;&gt;Node2</title>
<path fill="none" stroke="midnightblue" d="M202.21,-174.25C217.54,-165.57 240.19,-152.76 257.76,-142.82"/>
<polygon fill="midnightblue" stroke="midnightblue" points="259.94,-145.61 266.92,-137.64 256.49,-139.52 259.94,-145.61"/>
</g>
<!-- Node4 -->
<g id="node4" class="node">
<title>Node4</title>
<g id="a_node4"><a xlink:title=" ">
<polygon fill="none" stroke="#bfbfbf" points="40.47,-0.5 40.47,-21.5 87.47,-21.5 87.47,-0.5 40.47,-0.5"/>
<text text-anchor="middle" x="63.97" y="-7.9" font-family="Ubuntu" font-size="12.00">string</text>
</a>
</g>
</g>
<!-- Node1&#45;&gt;Node4 -->
<g id="edge15" class="edge">
<title>Node1&#45;&gt;Node4</title>
<path fill="none" stroke="midnightblue" d="M148.92,-179.92C101.83,-173.76 23.32,-160.38 5.97,-138 -3.4,-125.92 -1.41,-85.72 12.97,-58 19.23,-45.93 30.04,-35.48 40.09,-27.61"/>
<polygon fill="midnightblue" stroke="midnightblue" points="42.26,-30.36 48.25,-21.62 38.12,-24.72 42.26,-30.36"/>
</g>
<!-- Node9 -->
<g id="node9" class="node">
<title>Node9</title>
<g id="a_node9"><a xlink:href="_colours_8hpp.html" target="_top" xlink:title="Struct ASGE::Colour, Namespace ASGE::COLOURS.">
<polygon fill="none" stroke="black" points="144.97,-116.5 144.97,-137.5 224.97,-137.5 224.97,-116.5 144.97,-116.5"/>
<text text-anchor="middle" x="184.97" y="-123.9" font-family="Ubuntu" font-size="12.00">Colours.hpp</text>
</a>
</g>
</g>
<!-- Node1&#45;&gt;Node9 -->
<g id="edge8" class="edge">
<title>Node1&#45;&gt;Node9</title>
<path fill="none" stroke="midnightblue" d="M184.97,-174.25C184.97,-166.94 184.97,-156.69 184.97,-147.7"/>
<polygon fill="midnightblue" stroke="midnightblue" points="188.47,-147.64 184.97,-137.64 181.47,-147.64 188.47,-147.64"/>
</g>
<!-- Node10 -->
<g id="node10" class="node">
<title>Node10</title>
<g id="a_node10"><a xlink:href="_sprite_bounds_8hpp.html" target="_top" xlink:title="Struct ASGE::SpriteBounds.">
<polygon fill="none" stroke="black" points="14.97,-116.5 14.97,-137.5 126.97,-137.5 126.97,-116.5 14.97,-116.5"/>
<text text-anchor="middle" x="70.97" y="-123.9" font-family="Ubuntu" font-size="12.00">SpriteBounds.hpp</text>
</a>
</g>
</g>
<!-- Node1&#45;&gt;Node10 -->
<g id="edge10" class="edge">
<title>Node1&#45;&gt;Node10</title>
<path fill="none" stroke="midnightblue" d="M165.37,-174.37C147.23,-165.46 120.05,-152.11 99.51,-142.02"/>
<polygon fill="midnightblue" stroke="midnightblue" points="100.83,-138.77 90.31,-137.5 97.74,-145.05 100.83,-138.77"/>
</g>
<!-- Node12 -->
<g id="node12" class="node">
<title>Node12</title>
<g id="a_node12"><a xlink:title=" ">
<polygon fill="none" stroke="#bfbfbf" points="342.97,-116.5 342.97,-137.5 404.97,-137.5 404.97,-116.5 342.97,-116.5"/>
<text text-anchor="middle" x="373.97" y="-123.9" font-family="Ubuntu" font-size="12.00">memory</text>
</a>
</g>
</g>
<!-- Node1&#45;&gt;Node12 -->
<g id="edge14" class="edge">
<title>Node1&#45;&gt;Node12</title>
<path fill="none" stroke="midnightblue" d="M217.46,-174.37C249.45,-164.9 298.41,-150.39 333.04,-140.13"/>
<polygon fill="midnightblue" stroke="midnightblue" points="334.25,-143.42 342.84,-137.22 332.26,-136.71 334.25,-143.42"/>
</g>
<!-- Node3 -->
<g id="node3" class="node">
<title>Node3</title>
<g id="a_node3"><a xlink:href="_game_settings_8hpp.html" target="_top" xlink:title="Struct ASGE::GameSettings, Enum ASGE::GameSettings::WindowMode, Enum ASGE::GameSettings::MagFilter,...">
<polygon fill="none" stroke="black" points="161.97,-58.5 161.97,-79.5 277.97,-79.5 277.97,-58.5 161.97,-58.5"/>
<text text-anchor="middle" x="219.97" y="-65.9" font-family="Ubuntu" font-size="12.00">GameSettings.hpp</text>
</a>
</g>
</g>
<!-- Node2&#45;&gt;Node3 -->
<g id="edge2" class="edge">
<title>Node2&#45;&gt;Node3</title>
<path fill="none" stroke="midnightblue" d="M272.82,-116.25C263.46,-108.05 249.88,-96.17 238.83,-86.51"/>
<polygon fill="midnightblue" stroke="midnightblue" points="240.82,-83.59 230.99,-79.64 236.21,-88.86 240.82,-83.59"/>
</g>
<!-- Node5 -->
<g id="node5" class="node">
<title>Node5</title>
<g id="a_node5"><a xlink:href="_non_copyable_8hpp.html" target="_top" xlink:title="Class ASGE::NonCopyable.">
<polygon fill="none" stroke="black" points="295.97,-58.5 295.97,-79.5 407.97,-79.5 407.97,-58.5 295.97,-58.5"/>
<text text-anchor="middle" x="351.97" y="-65.9" font-family="Ubuntu" font-size="12.00">NonCopyable.hpp</text>
</a>
</g>
</g>
<!-- Node2&#45;&gt;Node5 -->
<g id="edge4" class="edge">
<title>Node2&#45;&gt;Node5</title>
<path fill="none" stroke="midnightblue" d="M295.81,-116.25C305.86,-107.97 320.47,-95.94 332.27,-86.22"/>
<polygon fill="midnightblue" stroke="midnightblue" points="334.76,-88.7 340.26,-79.64 330.31,-83.3 334.76,-88.7"/>
</g>
<!-- Node6 -->
<g id="node6" class="node">
<title>Node6</title>
<g id="a_node6"><a xlink:href="_pixel_buffer_8hpp.html" target="_top" xlink:title="Class ASGE::PixelBuffer.">
<polygon fill="none" stroke="black" points="425.97,-58.5 425.97,-79.5 525.97,-79.5 525.97,-58.5 425.97,-58.5"/>
<text text-anchor="middle" x="475.97" y="-65.9" font-family="Ubuntu" font-size="12.00">PixelBuffer.hpp</text>
</a>
</g>
</g>
<!-- Node2&#45;&gt;Node6 -->
<g id="edge5" class="edge">
<title>Node2&#45;&gt;Node6</title>
<path fill="none" stroke="midnightblue" d="M316.97,-116.37C349.18,-106.98 398.31,-92.65 433.43,-82.41"/>
<polygon fill="midnightblue" stroke="midnightblue" points="434.77,-85.66 443.39,-79.5 432.81,-78.94 434.77,-85.66"/>
</g>
<!-- Node3&#45;&gt;Node4 -->
<g id="edge3" class="edge">
<title>Node3&#45;&gt;Node4</title>
<path fill="none" stroke="midnightblue" d="M193.15,-58.37C166.65,-48.86 126.05,-34.29 97.45,-24.02"/>
<polygon fill="midnightblue" stroke="midnightblue" points="98.48,-20.67 87.88,-20.58 96.11,-27.26 98.48,-20.67"/>
</g>
<!-- Node7 -->
<g id="node7" class="node">
<title>Node7</title>
<g id="a_node7"><a xlink:title=" ">
<polygon fill="none" stroke="#bfbfbf" points="111.97,-0.5 111.97,-21.5 155.97,-21.5 155.97,-0.5 111.97,-0.5"/>
<text text-anchor="middle" x="133.97" y="-7.9" font-family="Ubuntu" font-size="12.00">array</text>
</a>
</g>
</g>
<!-- Node6&#45;&gt;Node7 -->
<g id="edge6" class="edge">
<title>Node6&#45;&gt;Node7</title>
<path fill="none" stroke="midnightblue" d="M425.76,-59.47C422.78,-58.97 419.84,-58.48 416.97,-58 326.01,-42.9 218.51,-25.57 166.03,-17.14"/>
<polygon fill="midnightblue" stroke="midnightblue" points="166.42,-13.66 155.99,-15.53 165.31,-20.57 166.42,-13.66"/>
</g>
<!-- Node8 -->
<g id="node8" class="node">
<title>Node8</title>
<g id="a_node8"><a xlink:title=" ">
<polygon fill="none" stroke="#bfbfbf" points="449.47,-0.5 449.47,-21.5 502.47,-21.5 502.47,-0.5 449.47,-0.5"/>
<text text-anchor="middle" x="475.97" y="-7.9" font-family="Ubuntu" font-size="12.00">atomic</text>
</a>
</g>
</g>
<!-- Node6&#45;&gt;Node8 -->
<g id="edge7" class="edge">
<title>Node6&#45;&gt;Node8</title>
<path fill="none" stroke="midnightblue" d="M475.97,-58.25C475.97,-50.94 475.97,-40.69 475.97,-31.7"/>
<polygon fill="midnightblue" stroke="midnightblue" points="479.47,-31.64 475.97,-21.64 472.47,-31.64 479.47,-31.64"/>
</g>
<!-- Node9&#45;&gt;Node7 -->
<g id="edge9" class="edge">
<title>Node9&#45;&gt;Node7</title>
<path fill="none" stroke="midnightblue" d="M176.82,-116.37C169.63,-107.45 159.35,-93.55 152.97,-80 145.63,-64.42 140.63,-45.47 137.6,-31.53"/>
<polygon fill="midnightblue" stroke="midnightblue" points="141.01,-30.7 135.6,-21.59 134.14,-32.09 141.01,-30.7"/>
</g>
<!-- Node11 -->
<g id="node11" class="node">
<title>Node11</title>
<g id="a_node11"><a xlink:href="_point2_d_8hpp.html" target="_top" xlink:title="Class ASGE::Point2D.">
<polygon fill="none" stroke="black" points="22.47,-58.5 22.47,-79.5 105.47,-79.5 105.47,-58.5 22.47,-58.5"/>
<text text-anchor="middle" x="63.97" y="-65.9" font-family="Ubuntu" font-size="12.00">Point2D.hpp</text>
</a>
</g>
</g>
<!-- Node10&#45;&gt;Node11 -->
<g id="edge11" class="edge">
<title>Node10&#45;&gt;Node11</title>
<path fill="none" stroke="midnightblue" d="M69.75,-116.25C68.83,-108.94 67.55,-98.69 66.43,-89.7"/>
<polygon fill="midnightblue" stroke="midnightblue" points="69.89,-89.13 65.17,-79.64 62.94,-90 69.89,-89.13"/>
</g>
<!-- Node11&#45;&gt;Node4 -->
<g id="edge13" class="edge">
<title>Node11&#45;&gt;Node4</title>
<path fill="none" stroke="midnightblue" d="M63.97,-58.25C63.97,-50.94 63.97,-40.69 63.97,-31.7"/>
<polygon fill="midnightblue" stroke="midnightblue" points="67.47,-31.64 63.97,-21.64 60.47,-31.64 67.47,-31.64"/>
</g>
<!-- Node11&#45;&gt;Node7 -->
<g id="edge12" class="edge">
<title>Node11&#45;&gt;Node7</title>
<path fill="none" stroke="midnightblue" d="M76.16,-58.25C86.6,-49.89 101.83,-37.71 114.04,-27.94"/>
<polygon fill="midnightblue" stroke="midnightblue" points="116.29,-30.62 121.91,-21.64 111.92,-25.16 116.29,-30.62"/>
</g>
</g>
</svg>
