<?xml version="1.0" encoding="UTF-8" standalone="no"?>
<!DOCTYPE svg PUBLIC "-//W3C//DTD SVG 1.1//EN"
 "http://www.w3.org/Graphics/SVG/1.1/DTD/svg11.dtd">
<!-- Generated by graphviz version 2.48.0 (0)
 -->
<!-- Title: Text.hpp Pages: 1 -->
<!--zoomable 262 -->
<svg id="main" version="1.1" xmlns="http://www.w3.org/2000/svg" xmlns:xlink="http://www.w3.org/1999/xlink" xml:space="preserve" onload="init(evt)">
<style type="text/css"><![CDATA[
.edge:hover path { stroke: red; }
.edge:hover polygon { stroke: red; fill: red; }
]]></style>
<script type="text/javascript"><![CDATA[
var edges = document.getElementsByTagName('g');
if (edges && edges.length) {
  for (var i=0;i<edges.length;i++) {
    if (edges[i].id.substr(0,4)=='edge') {
      edges[i].setAttribute('class','edge');
    }
  }
}
]]></script>
        <defs>
                <circle id="rim" cx="0" cy="0" r="7"/>
                <circle id="rim2" cx="0" cy="0" r="3.5"/>
                <g id="zoomPlus">
                        <use xlink:href="#rim" fill="#404040">
                                <set attributeName="fill" to="#808080" begin="zoomplus.mouseover" end="zoomplus.mouseout"/>
                        </use>
                        <path d="M-4,0h8M0,-4v8" fill="none" stroke="white" stroke-width="1.5" pointer-events="none"/>
                </g>
                <g id="zoomMin">
                        <use xlink:href="#rim" fill="#404040">
                                <set attributeName="fill" to="#808080" begin="zoomminus.mouseover" end="zoomminus.mouseout"/>
                        </use>
                        <path d="M-4,0h8" fill="none" stroke="white" stroke-width="1.5" pointer-events="none"/>
                </g>
                <g id="dirArrow">
                        <path fill="none" stroke="white" stroke-width="1.5" d="M0,-3.0v7 M-2.5,-0.5L0,-3.0L2.5,-0.5"/>
                </g>
               <g id="resetDef">
                       <use xlink:href="#rim2" fill="#404040">
                               <set attributeName="fill" to="#808080" begin="reset.mouseover" end="reset.mouseout"/>
                       </use>
               </g>
        </defs>

<script type="text/javascript">
var viewWidth = 676;
var viewHeight = 262;
var sectionId = 'dynsection-0';
</script>
<script xlink:href="svgpan.js"/>
<svg id="graph" class="graph">
<g id="viewport">
<title>Text.hpp</title>
<!-- Node1 -->
<g id="node1" class="node">
<title>Node1</title>
<g id="a_node1"><a xlink:title="Struct ASGE::Text.">
<polygon fill="#bfbfbf" stroke="black" points="164,-232.5 164,-253.5 228,-253.5 228,-232.5 164,-232.5"/>
<text text-anchor="middle" x="196" y="-239.9" font-family="Ubuntu" font-size="12.00">Text.hpp</text>
</a>
</g>
</g>
<!-- Node2 -->
<g id="node2" class="node">
<title>Node2</title>
<g id="a_node2"><a xlink:href="_colours_8hpp.html" target="_top" xlink:title="Struct ASGE::Colour, Namespace ASGE::COLOURS.">
<polygon fill="none" stroke="black" points="0,-174.5 0,-195.5 80,-195.5 80,-174.5 0,-174.5"/>
<text text-anchor="middle" x="40" y="-181.9" font-family="Ubuntu" font-size="12.00">Colours.hpp</text>
</a>
</g>
</g>
<!-- Node1&#45;&gt;Node2 -->
<g id="edge1" class="edge">
<title>Node1&#45;&gt;Node2</title>
<path fill="none" stroke="midnightblue" d="M169.18,-232.37C143.47,-223.14 104.46,-209.14 76.04,-198.94"/>
<polygon fill="midnightblue" stroke="midnightblue" points="77.06,-195.59 66.47,-195.5 74.7,-202.17 77.06,-195.59"/>
</g>
<!-- Node4 -->
<g id="node4" class="node">
<title>Node4</title>
<g id="a_node4"><a xlink:href="_font_8hpp.html" target="_top" xlink:title="Struct ASGE::Font.">
<polygon fill="none" stroke="black" points="359.5,-174.5 359.5,-195.5 424.5,-195.5 424.5,-174.5 359.5,-174.5"/>
<text text-anchor="middle" x="392" y="-181.9" font-family="Ubuntu" font-size="12.00">Font.hpp</text>
</a>
</g>
</g>
<!-- Node1&#45;&gt;Node4 -->
<g id="edge3" class="edge">
<title>Node1&#45;&gt;Node4</title>
<path fill="none" stroke="midnightblue" d="M228.37,-232.75C261.46,-223.3 313.04,-208.56 349.43,-198.16"/>
<polygon fill="midnightblue" stroke="midnightblue" points="350.61,-201.47 359.26,-195.35 348.68,-194.74 350.61,-201.47"/>
</g>
<!-- Node8 -->
<g id="node8" class="node">
<title>Node8</title>
<g id="a_node8"><a xlink:title=" ">
<polygon fill="none" stroke="#bfbfbf" points="233.5,-0.5 233.5,-21.5 280.5,-21.5 280.5,-0.5 233.5,-0.5"/>
<text text-anchor="middle" x="257" y="-7.9" font-family="Ubuntu" font-size="12.00">string</text>
</a>
</g>
</g>
<!-- Node1&#45;&gt;Node8 -->
<g id="edge18" class="edge">
<title>Node1&#45;&gt;Node8</title>
<path fill="none" stroke="midnightblue" d="M201.7,-232.45C206.9,-223.36 214.44,-209.16 219,-196 239.06,-138.13 250.14,-66.16 254.62,-31.91"/>
<polygon fill="midnightblue" stroke="midnightblue" points="258.11,-32.17 255.89,-21.82 251.16,-31.3 258.11,-32.17"/>
</g>
<!-- Node12 -->
<g id="node12" class="node">
<title>Node12</title>
<g id="a_node12"><a xlink:href="_sprite_bounds_8hpp.html" target="_top" xlink:title="Struct ASGE::SpriteBounds.">
<polygon fill="none" stroke="black" points="98,-174.5 98,-195.5 210,-195.5 210,-174.5 98,-174.5"/>
<text text-anchor="middle" x="154" y="-181.9" font-family="Ubuntu" font-size="12.00">SpriteBounds.hpp</text>
</a>
</g>
</g>
<!-- Node1&#45;&gt;Node12 -->
<g id="edge14" class="edge">
<title>Node1&#45;&gt;Node12</title>
<path fill="none" stroke="midnightblue" d="M188.68,-232.25C182.78,-224.38 174.33,-213.1 167.24,-203.65"/>
<polygon fill="midnightblue" stroke="midnightblue" points="170.03,-201.54 161.23,-195.64 164.43,-205.74 170.03,-201.54"/>
</g>
<!-- Node3 -->
<g id="node3" class="node">
<title>Node3</title>
<g id="a_node3"><a xlink:title=" ">
<polygon fill="none" stroke="#bfbfbf" points="139,-0.5 139,-21.5 183,-21.5 183,-0.5 139,-0.5"/>
<text text-anchor="middle" x="161" y="-7.9" font-family="Ubuntu" font-size="12.00">array</text>
</a>
</g>
</g>
<!-- Node2&#45;&gt;Node3 -->
<g id="edge2" class="edge">
<title>Node2&#45;&gt;Node3</title>
<path fill="none" stroke="midnightblue" d="M44.11,-174.17C53.64,-152.04 78.84,-97.17 110,-58 118.81,-46.92 130.43,-36.22 140.34,-27.93"/>
<polygon fill="midnightblue" stroke="midnightblue" points="142.61,-30.6 148.17,-21.58 138.2,-25.16 142.61,-30.6"/>
</g>
<!-- Node5 -->
<g id="node5" class="node">
<title>Node5</title>
<g id="a_node5"><a xlink:href="_non_copyable_8hpp.html" target="_top" xlink:title="Class ASGE::NonCopyable.">
<polygon fill="none" stroke="black" points="556,-58.5 556,-79.5 668,-79.5 668,-58.5 556,-58.5"/>
<text text-anchor="middle" x="612" y="-65.9" font-family="Ubuntu" font-size="12.00">NonCopyable.hpp</text>
</a>
</g>
</g>
<!-- Node4&#45;&gt;Node5 -->
<g id="edge4" class="edge">
<title>Node4&#45;&gt;Node5</title>
<path fill="none" stroke="midnightblue" d="M418.83,-174.47C441.89,-165.93 475.78,-152.54 504,-138 535.02,-122.01 568.75,-99.96 590.11,-85.35"/>
<polygon fill="midnightblue" stroke="midnightblue" points="592.23,-88.15 598.47,-79.59 588.25,-82.39 592.23,-88.15"/>
</g>
<!-- Node6 -->
<g id="node6" class="node">
<title>Node6</title>
<g id="a_node6"><a xlink:href="_texture_8hpp.html" target="_top" xlink:title="Class ASGE::Texture2D, Enum Class ASGE::SpriteSortMode.">
<polygon fill="none" stroke="black" points="351.5,-116.5 351.5,-137.5 432.5,-137.5 432.5,-116.5 351.5,-116.5"/>
<text text-anchor="middle" x="392" y="-123.9" font-family="Ubuntu" font-size="12.00">Texture.hpp</text>
</a>
</g>
</g>
<!-- Node4&#45;&gt;Node6 -->
<g id="edge5" class="edge">
<title>Node4&#45;&gt;Node6</title>
<path fill="none" stroke="midnightblue" d="M392,-174.25C392,-166.94 392,-156.69 392,-147.7"/>
<polygon fill="midnightblue" stroke="midnightblue" points="395.5,-147.64 392,-137.64 388.5,-147.64 395.5,-147.64"/>
</g>
<!-- Node4&#45;&gt;Node8 -->
<g id="edge12" class="edge">
<title>Node4&#45;&gt;Node8</title>
<path fill="none" stroke="midnightblue" d="M381.12,-174.5C370.93,-165.45 355.46,-151.27 343,-138 320.09,-113.61 313.91,-107.61 295,-80 284.05,-64.02 273.46,-44.63 266.25,-30.66"/>
<polygon fill="midnightblue" stroke="midnightblue" points="269.29,-28.9 261.65,-21.56 263.04,-32.06 269.29,-28.9"/>
</g>
<!-- Node11 -->
<g id="node11" class="node">
<title>Node11</title>
<g id="a_node11"><a xlink:title=" ">
<polygon fill="none" stroke="#bfbfbf" points="451,-116.5 451,-137.5 495,-137.5 495,-116.5 451,-116.5"/>
<text text-anchor="middle" x="473" y="-123.9" font-family="Ubuntu" font-size="12.00">tuple</text>
</a>
</g>
</g>
<!-- Node4&#45;&gt;Node11 -->
<g id="edge13" class="edge">
<title>Node4&#45;&gt;Node11</title>
<path fill="none" stroke="midnightblue" d="M406.11,-174.25C418.42,-165.73 436.5,-153.24 450.75,-143.38"/>
<polygon fill="midnightblue" stroke="midnightblue" points="452.82,-146.21 459.05,-137.64 448.84,-140.45 452.82,-146.21"/>
</g>
<!-- Node6&#45;&gt;Node5 -->
<g id="edge8" class="edge">
<title>Node6&#45;&gt;Node5</title>
<path fill="none" stroke="midnightblue" d="M429.82,-116.37C467.19,-106.86 524.47,-92.28 564.81,-82.01"/>
<polygon fill="midnightblue" stroke="midnightblue" points="565.85,-85.36 574.67,-79.5 564.12,-78.58 565.85,-85.36"/>
</g>
<!-- Node7 -->
<g id="node7" class="node">
<title>Node7</title>
<g id="a_node7"><a xlink:href="_game_settings_8hpp.html" target="_top" xlink:title="Struct ASGE::GameSettings, Enum ASGE::GameSettings::WindowMode, Enum ASGE::GameSettings::MagFilter,...">
<polygon fill="none" stroke="black" points="304,-58.5 304,-79.5 420,-79.5 420,-58.5 304,-58.5"/>
<text text-anchor="middle" x="362" y="-65.9" font-family="Ubuntu" font-size="12.00">GameSettings.hpp</text>
</a>
</g>
</g>
<!-- Node6&#45;&gt;Node7 -->
<g id="edge6" class="edge">
<title>Node6&#45;&gt;Node7</title>
<path fill="none" stroke="midnightblue" d="M386.77,-116.25C382.69,-108.62 376.89,-97.79 371.93,-88.53"/>
<polygon fill="midnightblue" stroke="midnightblue" points="374.97,-86.8 367.17,-79.64 368.8,-90.11 374.97,-86.8"/>
</g>
<!-- Node9 -->
<g id="node9" class="node">
<title>Node9</title>
<g id="a_node9"><a xlink:href="_pixel_buffer_8hpp.html" target="_top" xlink:title="Class ASGE::PixelBuffer.">
<polygon fill="none" stroke="black" points="438,-58.5 438,-79.5 538,-79.5 538,-58.5 438,-58.5"/>
<text text-anchor="middle" x="488" y="-65.9" font-family="Ubuntu" font-size="12.00">PixelBuffer.hpp</text>
</a>
</g>
</g>
<!-- Node6&#45;&gt;Node9 -->
<g id="edge9" class="edge">
<title>Node6&#45;&gt;Node9</title>
<path fill="none" stroke="midnightblue" d="M408.72,-116.25C423.59,-107.57 445.55,-94.76 462.59,-84.82"/>
<polygon fill="midnightblue" stroke="midnightblue" points="464.6,-87.7 471.47,-79.64 461.07,-81.66 464.6,-87.7"/>
</g>
<!-- Node7&#45;&gt;Node8 -->
<g id="edge7" class="edge">
<title>Node7&#45;&gt;Node8</title>
<path fill="none" stroke="midnightblue" d="M343.71,-58.25C327.22,-49.45 302.76,-36.41 284.02,-26.41"/>
<polygon fill="midnightblue" stroke="midnightblue" points="285.55,-23.26 275.08,-21.64 282.26,-29.44 285.55,-23.26"/>
</g>
<!-- Node9&#45;&gt;Node3 -->
<g id="edge10" class="edge">
<title>Node9&#45;&gt;Node3</title>
<path fill="none" stroke="midnightblue" d="M437.98,-59.43C369.93,-47.78 250.15,-27.27 193.03,-17.49"/>
<polygon fill="midnightblue" stroke="midnightblue" points="193.57,-14.03 183.12,-15.79 192.39,-20.93 193.57,-14.03"/>
</g>
<!-- Node10 -->
<g id="node10" class="node">
<title>Node10</title>
<g id="a_node10"><a xlink:title=" ">
<polygon fill="none" stroke="#bfbfbf" points="461.5,-0.5 461.5,-21.5 514.5,-21.5 514.5,-0.5 461.5,-0.5"/>
<text text-anchor="middle" x="488" y="-7.9" font-family="Ubuntu" font-size="12.00">atomic</text>
</a>
</g>
</g>
<!-- Node9&#45;&gt;Node10 -->
<g id="edge11" class="edge">
<title>Node9&#45;&gt;Node10</title>
<path fill="none" stroke="midnightblue" d="M488,-58.25C488,-50.94 488,-40.69 488,-31.7"/>
<polygon fill="midnightblue" stroke="midnightblue" points="491.5,-31.64 488,-21.64 484.5,-31.64 491.5,-31.64"/>
</g>
<!-- Node13 -->
<g id="node13" class="node">
<title>Node13</title>
<g id="a_node13"><a xlink:href="_point2_d_8hpp.html" target="_top" xlink:title="Class ASGE::Point2D.">
<polygon fill="none" stroke="black" points="119.5,-58.5 119.5,-79.5 202.5,-79.5 202.5,-58.5 119.5,-58.5"/>
<text text-anchor="middle" x="161" y="-65.9" font-family="Ubuntu" font-size="12.00">Point2D.hpp</text>
</a>
</g>
</g>
<!-- Node12&#45;&gt;Node13 -->
<g id="edge15" class="edge">
<title>Node12&#45;&gt;Node13</title>
<path fill="none" stroke="midnightblue" d="M154.6,-174.28C155.74,-155.6 158.28,-114.37 159.79,-89.72"/>
<polygon fill="midnightblue" stroke="midnightblue" points="163.29,-89.89 160.4,-79.69 156.3,-89.46 163.29,-89.89"/>
</g>
<!-- Node13&#45;&gt;Node3 -->
<g id="edge16" class="edge">
<title>Node13&#45;&gt;Node3</title>
<path fill="none" stroke="midnightblue" d="M161,-58.25C161,-50.94 161,-40.69 161,-31.7"/>
<polygon fill="midnightblue" stroke="midnightblue" points="164.5,-31.64 161,-21.64 157.5,-31.64 164.5,-31.64"/>
</g>
<!-- Node13&#45;&gt;Node8 -->
<g id="edge17" class="edge">
<title>Node13&#45;&gt;Node8</title>
<path fill="none" stroke="midnightblue" d="M177.72,-58.25C192.59,-49.57 214.55,-36.76 231.59,-26.82"/>
<polygon fill="midnightblue" stroke="midnightblue" points="233.6,-29.7 240.47,-21.64 230.07,-23.66 233.6,-29.7"/>
</g>
</g>
</svg>
        <g id="navigator" transform="translate(0 0)" fill="#404254">
                <rect fill="#f2f5e9" fill-opacity="0.5" stroke="#606060" stroke-width=".5" x="0" y="0" width="60" height="60"/>
                <use id="zoomplus" xlink:href="#zoomPlus" x="17" y="9" onmousedown="handleZoom(evt,'in')"/>
                <use id="zoomminus" xlink:href="#zoomMin" x="42" y="9" onmousedown="handleZoom(evt,'out')"/>
                <use id="reset" xlink:href="#resetDef" x="30" y="36" onmousedown="handleReset()"/>
                <g id="arrowUp" xlink:href="#dirArrow" transform="translate(30 24)" onmousedown="handlePan(0,-1)">
                  <use xlink:href="#rim" fill="#404040">
                        <set attributeName="fill" to="#808080" begin="arrowUp.mouseover" end="arrowUp.mouseout"/>
                  </use>
                  <path fill="none" stroke="white" stroke-width="1.5" d="M0,-3.0v7 M-2.5,-0.5L0,-3.0L2.5,-0.5"/>
                </g>
                <g id="arrowRight" xlink:href="#dirArrow" transform="rotate(90) translate(36 -43)" onmousedown="handlePan(1,0)">
                  <use xlink:href="#rim" fill="#404040">
                        <set attributeName="fill" to="#808080" begin="arrowRight.mouseover" end="arrowRight.mouseout"/>
                  </use>
                  <path fill="none" stroke="white" stroke-width="1.5" d="M0,-3.0v7 M-2.5,-0.5L0,-3.0L2.5,-0.5"/>
                </g>
                <g id="arrowDown" xlink:href="#dirArrow" transform="rotate(180) translate(-30 -48)" onmousedown="handlePan(0,1)">
                  <use xlink:href="#rim" fill="#404040">
                        <set attributeName="fill" to="#808080" begin="arrowDown.mouseover" end="arrowDown.mouseout"/>
                  </use>
                  <path fill="none" stroke="white" stroke-width="1.5" d="M0,-3.0v7 M-2.5,-0.5L0,-3.0L2.5,-0.5"/>
                </g>
                <g id="arrowLeft" xlink:href="#dirArrow" transform="rotate(270) translate(-36 17)" onmousedown="handlePan(-1,0)">
                  <use xlink:href="#rim" fill="#404040">
                        <set attributeName="fill" to="#808080" begin="arrowLeft.mouseover" end="arrowLeft.mouseout"/>
                  </use>
                  <path fill="none" stroke="white" stroke-width="1.5" d="M0,-3.0v7 M-2.5,-0.5L0,-3.0L2.5,-0.5"/>
                </g>
        </g>
        <svg viewBox="0 0 15 15" width="100%" height="30px" preserveAspectRatio="xMaxYMin meet">
         <g id="arrow_out" transform="scale(0.3 0.3)">
          <a xlink:href="_text_8hpp__incl_org.svg" target="_base">
           <rect id="button" ry="5" rx="5" y="6" x="6" height="38" width="38"
                fill="#f2f5e9" fill-opacity="0.5" stroke="#606060" stroke-width="1.0"/>
           <path id="arrow"
             d="M 11.500037,31.436501 C 11.940474,20.09759 22.043105,11.32322 32.158766,21.979434 L 37.068811,17.246167 C 37.068811,17.246167 37.088388,32 37.088388,32 L 22.160133,31.978069 C 22.160133,31.978069 26.997745,27.140456 26.997745,27.140456 C 18.528582,18.264221 13.291696,25.230495 11.500037,31.436501 z"
             style="fill:#404040;"/>
          </a>
         </g>
        </svg>
</svg>
