<?xml version="1.0" encoding="UTF-8" standalone="no"?>
<!DOCTYPE svg PUBLIC "-//W3C//DTD SVG 1.1//EN"
 "http://www.w3.org/Graphics/SVG/1.1/DTD/svg11.dtd">
<!-- Generated by graphviz version 2.48.0 (0)
 -->
<!-- Title: Texture.hpp Pages: 1 -->
<svg width="382pt" height="146pt"
 viewBox="0.00 0.00 381.50 146.00" xmlns="http://www.w3.org/2000/svg" xmlns:xlink="http://www.w3.org/1999/xlink">
<g id="graph0" class="graph" transform="scale(1 1) rotate(0) translate(4 142)">
<title>Texture.hpp</title>
<!-- Node1 -->
<g id="node1" class="node">
<title>Node1</title>
<g id="a_node1"><a xlink:title="Class ASGE::Texture2D, Enum Class ASGE::SpriteSortMode.">
<polygon fill="#bfbfbf" stroke="black" points="149.5,-116.5 149.5,-137.5 230.5,-137.5 230.5,-116.5 149.5,-116.5"/>
<text text-anchor="middle" x="190" y="-123.9" font-family="Ubuntu" font-size="12.00">Texture.hpp</text>
</a>
</g>
</g>
<!-- Node2 -->
<g id="node2" class="node">
<title>Node2</title>
<g id="a_node2"><a xlink:href="_game_settings_8hpp.html" target="_top" xlink:title="Struct ASGE::GameSettings, Enum ASGE::GameSettings::WindowMode, Enum ASGE::GameSettings::MagFilter,...">
<polygon fill="none" stroke="black" points="0,-58.5 0,-79.5 116,-79.5 116,-58.5 0,-58.5"/>
<text text-anchor="middle" x="58" y="-65.9" font-family="Ubuntu" font-size="12.00">GameSettings.hpp</text>
</a>
</g>
</g>
<!-- Node1&#45;&gt;Node2 -->
<g id="edge1" class="edge">
<title>Node1&#45;&gt;Node2</title>
<path fill="none" stroke="midnightblue" d="M167.31,-116.37C145.93,-107.3 113.69,-93.63 89.76,-83.48"/>
<polygon fill="midnightblue" stroke="midnightblue" points="90.97,-80.18 80.4,-79.5 88.23,-86.63 90.97,-80.18"/>
</g>
<!-- Node4 -->
<g id="node4" class="node">
<title>Node4</title>
<g id="a_node4"><a xlink:href="_non_copyable_8hpp.html" target="_top" xlink:title="Class ASGE::NonCopyable.">
<polygon fill="none" stroke="black" points="134,-58.5 134,-79.5 246,-79.5 246,-58.5 134,-58.5"/>
<text text-anchor="middle" x="190" y="-65.9" font-family="Ubuntu" font-size="12.00">NonCopyable.hpp</text>
</a>
</g>
</g>
<!-- Node1&#45;&gt;Node4 -->
<g id="edge3" class="edge">
<title>Node1&#45;&gt;Node4</title>
<path fill="none" stroke="midnightblue" d="M190,-116.25C190,-108.94 190,-98.69 190,-89.7"/>
<polygon fill="midnightblue" stroke="midnightblue" points="193.5,-89.64 190,-79.64 186.5,-89.64 193.5,-89.64"/>
</g>
<!-- Node5 -->
<g id="node5" class="node">
<title>Node5</title>
<g id="a_node5"><a xlink:href="_pixel_buffer_8hpp.html" target="_top" xlink:title="Class ASGE::PixelBuffer.">
<polygon fill="none" stroke="black" points="264,-58.5 264,-79.5 364,-79.5 364,-58.5 264,-58.5"/>
<text text-anchor="middle" x="314" y="-65.9" font-family="Ubuntu" font-size="12.00">PixelBuffer.hpp</text>
</a>
</g>
</g>
<!-- Node1&#45;&gt;Node5 -->
<g id="edge4" class="edge">
<title>Node1&#45;&gt;Node5</title>
<path fill="none" stroke="midnightblue" d="M211.32,-116.37C231.22,-107.38 261.14,-93.87 283.56,-83.75"/>
<polygon fill="midnightblue" stroke="midnightblue" points="285.29,-86.81 292.96,-79.5 282.41,-80.43 285.29,-86.81"/>
</g>
<!-- Node3 -->
<g id="node3" class="node">
<title>Node3</title>
<g id="a_node3"><a xlink:title=" ">
<polygon fill="none" stroke="#bfbfbf" points="34.5,-0.5 34.5,-21.5 81.5,-21.5 81.5,-0.5 34.5,-0.5"/>
<text text-anchor="middle" x="58" y="-7.9" font-family="Ubuntu" font-size="12.00">string</text>
</a>
</g>
</g>
<!-- Node2&#45;&gt;Node3 -->
<g id="edge2" class="edge">
<title>Node2&#45;&gt;Node3</title>
<path fill="none" stroke="midnightblue" d="M58,-58.25C58,-50.94 58,-40.69 58,-31.7"/>
<polygon fill="midnightblue" stroke="midnightblue" points="61.5,-31.64 58,-21.64 54.5,-31.64 61.5,-31.64"/>
</g>
<!-- Node6 -->
<g id="node6" class="node">
<title>Node6</title>
<g id="a_node6"><a xlink:title=" ">
<polygon fill="none" stroke="#bfbfbf" points="258,-0.5 258,-21.5 302,-21.5 302,-0.5 258,-0.5"/>
<text text-anchor="middle" x="280" y="-7.9" font-family="Ubuntu" font-size="12.00">array</text>
</a>
</g>
</g>
<!-- Node5&#45;&gt;Node6 -->
<g id="edge5" class="edge">
<title>Node5&#45;&gt;Node6</title>
<path fill="none" stroke="midnightblue" d="M308.08,-58.25C303.4,-50.54 296.73,-39.56 291.07,-30.23"/>
<polygon fill="midnightblue" stroke="midnightblue" points="294.04,-28.37 285.85,-21.64 288.05,-32.01 294.04,-28.37"/>
</g>
<!-- Node7 -->
<g id="node7" class="node">
<title>Node7</title>
<g id="a_node7"><a xlink:title=" ">
<polygon fill="none" stroke="#bfbfbf" points="320.5,-0.5 320.5,-21.5 373.5,-21.5 373.5,-0.5 320.5,-0.5"/>
<text text-anchor="middle" x="347" y="-7.9" font-family="Ubuntu" font-size="12.00">atomic</text>
</a>
</g>
</g>
<!-- Node5&#45;&gt;Node7 -->
<g id="edge6" class="edge">
<title>Node5&#45;&gt;Node7</title>
<path fill="none" stroke="midnightblue" d="M319.75,-58.25C324.24,-50.62 330.62,-39.79 336.08,-30.53"/>
<polygon fill="midnightblue" stroke="midnightblue" points="339.26,-32.04 341.32,-21.64 333.23,-28.48 339.26,-32.04"/>
</g>
</g>
</svg>
