<?xml version="1.0" encoding="UTF-8" standalone="no"?>
<!DOCTYPE svg PUBLIC "-//W3C//DTD SVG 1.1//EN"
 "http://www.w3.org/Graphics/SVG/1.1/DTD/svg11.dtd">
<!-- Generated by graphviz version 2.48.0 (0)
 -->
<!-- Title: Texture.hpp Pages: 1 -->
<svg width="334pt" height="320pt"
 viewBox="0.00 0.00 333.50 320.00" xmlns="http://www.w3.org/2000/svg" xmlns:xlink="http://www.w3.org/1999/xlink">
<g id="graph0" class="graph" transform="scale(1 1) rotate(0) translate(4 316)">
<title>Texture.hpp</title>
<!-- Node1 -->
<g id="node1" class="node">
<title>Node1</title>
<g id="a_node1"><a xlink:title="Class ASGE::Texture2D, Enum Class ASGE::SpriteSortMode.">
<polygon fill="#bfbfbf" stroke="black" points="95,-290.5 95,-311.5 176,-311.5 176,-290.5 95,-290.5"/>
<text text-anchor="middle" x="135.5" y="-297.9" font-family="Ubuntu" font-size="12.00">Texture.hpp</text>
</a>
</g>
</g>
<!-- Node2 -->
<g id="node2" class="node">
<title>Node2</title>
<g id="a_node2"><a xlink:href="_font_8hpp.html" target="_top" xlink:title="Struct ASGE::Font.">
<polygon fill="none" stroke="black" points="0,-232.5 0,-253.5 65,-253.5 65,-232.5 0,-232.5"/>
<text text-anchor="middle" x="32.5" y="-239.9" font-family="Ubuntu" font-size="12.00">Font.hpp</text>
</a>
</g>
</g>
<!-- Node1&#45;&gt;Node2 -->
<g id="edge1" class="edge">
<title>Node1&#45;&gt;Node2</title>
<path fill="none" stroke="midnightblue" d="M108.76,-285.46C90.32,-275.44 66.34,-262.4 50.24,-253.64"/>
<polygon fill="midnightblue" stroke="midnightblue" points="107.1,-288.54 117.56,-290.25 110.45,-282.39 107.1,-288.54"/>
</g>
<!-- Node4 -->
<g id="node4" class="node">
<title>Node4</title>
<g id="a_node4"><a xlink:href="_renderer_8hpp.html" target="_top" xlink:title="Class ASGE::Renderer.">
<polygon fill="none" stroke="black" points="19,-116.5 19,-137.5 108,-137.5 108,-116.5 19,-116.5"/>
<text text-anchor="middle" x="63.5" y="-123.9" font-family="Ubuntu" font-size="12.00">Renderer.hpp</text>
</a>
</g>
</g>
<!-- Node1&#45;&gt;Node4 -->
<g id="edge6" class="edge">
<title>Node1&#45;&gt;Node4</title>
<path fill="none" stroke="midnightblue" d="M125.58,-281.14C121.37,-272.9 116.51,-263.05 112.5,-254 93.57,-211.3 74.46,-158.85 66.89,-137.61"/>
<polygon fill="midnightblue" stroke="midnightblue" points="122.59,-282.99 130.3,-290.26 128.81,-279.77 122.59,-282.99"/>
</g>
<!-- Node7 -->
<g id="node7" class="node">
<title>Node7</title>
<g id="a_node7"><a xlink:href="_render_target_8hpp.html" target="_top" xlink:title="Class ASGE::RenderTarget.">
<polygon fill="none" stroke="black" points="121.5,-232.5 121.5,-253.5 235.5,-253.5 235.5,-232.5 121.5,-232.5"/>
<text text-anchor="middle" x="178.5" y="-239.9" font-family="Ubuntu" font-size="12.00">RenderTarget.hpp</text>
</a>
</g>
</g>
<!-- Node1&#45;&gt;Node7 -->
<g id="edge7" class="edge">
<title>Node1&#45;&gt;Node7</title>
<path fill="none" stroke="midnightblue" d="M149.16,-282.21C156.43,-272.75 165.08,-261.48 171.1,-253.64"/>
<polygon fill="midnightblue" stroke="midnightblue" points="146.3,-280.18 142.99,-290.25 151.86,-284.45 146.3,-280.18"/>
</g>
<!-- Node8 -->
<g id="node8" class="node">
<title>Node8</title>
<g id="a_node8"><a xlink:href="_sprite_8hpp.html" target="_top" xlink:title="Class ASGE::Sprite, Enum ASGE::Sprite::FlipFlags, Enum ASGE::Sprite::SourceRectIndex.">
<polygon fill="none" stroke="black" points="253.5,-232.5 253.5,-253.5 325.5,-253.5 325.5,-232.5 253.5,-232.5"/>
<text text-anchor="middle" x="289.5" y="-239.9" font-family="Ubuntu" font-size="12.00">Sprite.hpp</text>
</a>
</g>
</g>
<!-- Node1&#45;&gt;Node8 -->
<g id="edge8" class="edge">
<title>Node1&#45;&gt;Node8</title>
<path fill="none" stroke="midnightblue" d="M171.46,-286.92C199.61,-276.69 238.11,-262.69 263.37,-253.5"/>
<polygon fill="midnightblue" stroke="midnightblue" points="170.18,-283.67 161.97,-290.37 172.57,-290.25 170.18,-283.67"/>
</g>
<!-- Node3 -->
<g id="node3" class="node">
<title>Node3</title>
<g id="a_node3"><a xlink:href="_text_8hpp.html" target="_top" xlink:title="Struct ASGE::Text.">
<polygon fill="none" stroke="black" points="1.5,-174.5 1.5,-195.5 65.5,-195.5 65.5,-174.5 1.5,-174.5"/>
<text text-anchor="middle" x="33.5" y="-181.9" font-family="Ubuntu" font-size="12.00">Text.hpp</text>
</a>
</g>
</g>
<!-- Node2&#45;&gt;Node3 -->
<g id="edge2" class="edge">
<title>Node2&#45;&gt;Node3</title>
<path fill="none" stroke="midnightblue" d="M32.85,-222.16C33.02,-213.16 33.2,-202.92 33.33,-195.64"/>
<polygon fill="midnightblue" stroke="midnightblue" points="29.35,-222.18 32.67,-232.25 36.35,-222.31 29.35,-222.18"/>
</g>
<!-- Node3&#45;&gt;Node4 -->
<g id="edge3" class="edge">
<title>Node3&#45;&gt;Node4</title>
<path fill="none" stroke="midnightblue" d="M43.5,-165.34C48.47,-156.06 54.26,-145.24 58.33,-137.64"/>
<polygon fill="midnightblue" stroke="midnightblue" points="40.36,-163.78 38.73,-174.25 46.53,-167.08 40.36,-163.78"/>
</g>
<!-- Node5 -->
<g id="node5" class="node">
<title>Node5</title>
<g id="a_node5"><a xlink:href="_game_8hpp.html" target="_top" xlink:title="Class ASGE::Game.">
<polygon fill="none" stroke="black" points="28,-58.5 28,-79.5 99,-79.5 99,-58.5 28,-58.5"/>
<text text-anchor="middle" x="63.5" y="-65.9" font-family="Ubuntu" font-size="12.00">Game.hpp</text>
</a>
</g>
</g>
<!-- Node4&#45;&gt;Node5 -->
<g id="edge4" class="edge">
<title>Node4&#45;&gt;Node5</title>
<path fill="none" stroke="midnightblue" d="M63.5,-106.16C63.5,-97.16 63.5,-86.92 63.5,-79.64"/>
<polygon fill="midnightblue" stroke="midnightblue" points="60,-106.25 63.5,-116.25 67,-106.25 60,-106.25"/>
</g>
<!-- Node6 -->
<g id="node6" class="node">
<title>Node6</title>
<g id="a_node6"><a xlink:href="_o_g_l_game_8hpp.html" target="_top" xlink:title="Class ASGE::OGLGame.">
<polygon fill="none" stroke="black" points="16,-0.5 16,-21.5 111,-21.5 111,-0.5 16,-0.5"/>
<text text-anchor="middle" x="63.5" y="-7.9" font-family="Ubuntu" font-size="12.00">OGLGame.hpp</text>
</a>
</g>
</g>
<!-- Node5&#45;&gt;Node6 -->
<g id="edge5" class="edge">
<title>Node5&#45;&gt;Node6</title>
<path fill="none" stroke="midnightblue" d="M63.5,-48.16C63.5,-39.16 63.5,-28.92 63.5,-21.64"/>
<polygon fill="midnightblue" stroke="midnightblue" points="60,-48.25 63.5,-58.25 67,-48.25 60,-48.25"/>
</g>
</g>
</svg>
