<?xml version="1.0" encoding="UTF-8" standalone="no"?>
<!DOCTYPE svg PUBLIC "-//W3C//DTD SVG 1.1//EN"
 "http://www.w3.org/Graphics/SVG/1.1/DTD/svg11.dtd">
<!-- Generated by graphviz version 2.48.0 (0)
 -->
<!-- Title: Tile.hpp Pages: 1 -->
<svg width="88pt" height="146pt"
 viewBox="0.00 0.00 88.00 146.00" xmlns="http://www.w3.org/2000/svg" xmlns:xlink="http://www.w3.org/1999/xlink">
<g id="graph0" class="graph" transform="scale(1 1) rotate(0) translate(4 142)">
<title>Tile.hpp</title>
<!-- Node1 -->
<g id="node1" class="node">
<title>Node1</title>
<g id="a_node1"><a xlink:title="Class ASGE::Tile, Enum ASGE::Sprite::FlipFlags, Enum ASGE::Sprite::SourceRectIndex.">
<polygon fill="#bfbfbf" stroke="black" points="10.5,-116.5 10.5,-137.5 69.5,-137.5 69.5,-116.5 10.5,-116.5"/>
<text text-anchor="middle" x="40" y="-123.9" font-family="Ubuntu" font-size="12.00">Tile.hpp</text>
</a>
</g>
</g>
<!-- Node2 -->
<g id="node2" class="node">
<title>Node2</title>
<g id="a_node2"><a xlink:href="_colours_8hpp.html" target="_top" xlink:title="Struct ASGE::Colour, Namespace ASGE::COLOURS.">
<polygon fill="none" stroke="black" points="0,-58.5 0,-79.5 80,-79.5 80,-58.5 0,-58.5"/>
<text text-anchor="middle" x="40" y="-65.9" font-family="Ubuntu" font-size="12.00">Colours.hpp</text>
</a>
</g>
</g>
<!-- Node1&#45;&gt;Node2 -->
<g id="edge1" class="edge">
<title>Node1&#45;&gt;Node2</title>
<path fill="none" stroke="midnightblue" d="M40,-116.25C40,-108.94 40,-98.69 40,-89.7"/>
<polygon fill="midnightblue" stroke="midnightblue" points="43.5,-89.64 40,-79.64 36.5,-89.64 43.5,-89.64"/>
</g>
<!-- Node3 -->
<g id="node3" class="node">
<title>Node3</title>
<g id="a_node3"><a xlink:title=" ">
<polygon fill="none" stroke="#bfbfbf" points="18,-0.5 18,-21.5 62,-21.5 62,-0.5 18,-0.5"/>
<text text-anchor="middle" x="40" y="-7.9" font-family="Ubuntu" font-size="12.00">array</text>
</a>
</g>
</g>
<!-- Node2&#45;&gt;Node3 -->
<g id="edge2" class="edge">
<title>Node2&#45;&gt;Node3</title>
<path fill="none" stroke="midnightblue" d="M40,-58.25C40,-50.94 40,-40.69 40,-31.7"/>
<polygon fill="midnightblue" stroke="midnightblue" points="43.5,-31.64 40,-21.64 36.5,-31.64 43.5,-31.64"/>
</g>
</g>
</svg>
