<?xml version="1.0" encoding="UTF-8" standalone="no"?>
<!DOCTYPE svg PUBLIC "-//W3C//DTD SVG 1.1//EN"
 "http://www.w3.org/Graphics/SVG/1.1/DTD/svg11.dtd">
<!-- Generated by graphviz version 2.48.0 (0)
 -->
<!-- Title: Viewport.hpp Pages: 1 -->
<svg width="298pt" height="320pt"
 viewBox="0.00 0.00 297.50 320.00" xmlns="http://www.w3.org/2000/svg" xmlns:xlink="http://www.w3.org/1999/xlink">
<g id="graph0" class="graph" transform="scale(1 1) rotate(0) translate(4 316)">
<title>Viewport.hpp</title>
<!-- Node1 -->
<g id="node1" class="node">
<title>Node1</title>
<g id="a_node1"><a xlink:title="Struct ASGE::Viewport.">
<polygon fill="#bfbfbf" stroke="black" points="84,-290.5 84,-311.5 173,-311.5 173,-290.5 84,-290.5"/>
<text text-anchor="middle" x="128.5" y="-297.9" font-family="Ubuntu" font-size="12.00">Viewport.hpp</text>
</a>
</g>
</g>
<!-- Node2 -->
<g id="node2" class="node">
<title>Node2</title>
<g id="a_node2"><a xlink:href="_camera_8hpp.html" target="_top" xlink:title="Class ASGE::Camera, Struct ASGE::Camera::CameraView.">
<polygon fill="none" stroke="black" points="0,-232.5 0,-253.5 81,-253.5 81,-232.5 0,-232.5"/>
<text text-anchor="middle" x="40.5" y="-239.9" font-family="Ubuntu" font-size="12.00">Camera.hpp</text>
</a>
</g>
</g>
<!-- Node1&#45;&gt;Node2 -->
<g id="edge1" class="edge">
<title>Node1&#45;&gt;Node2</title>
<path fill="none" stroke="midnightblue" d="M104.57,-284.77C88.97,-274.85 69.1,-262.2 55.65,-253.64"/>
<polygon fill="midnightblue" stroke="midnightblue" points="102.86,-287.83 113.17,-290.25 106.61,-281.92 102.86,-287.83"/>
</g>
<!-- Node3 -->
<g id="node3" class="node">
<title>Node3</title>
<g id="a_node3"><a xlink:href="_renderer_8hpp.html" target="_top" xlink:title="Class ASGE::Renderer.">
<polygon fill="none" stroke="black" points="26,-116.5 26,-137.5 115,-137.5 115,-116.5 26,-116.5"/>
<text text-anchor="middle" x="70.5" y="-123.9" font-family="Ubuntu" font-size="12.00">Renderer.hpp</text>
</a>
</g>
</g>
<!-- Node1&#45;&gt;Node3 -->
<g id="edge7" class="edge">
<title>Node1&#45;&gt;Node3</title>
<path fill="none" stroke="midnightblue" d="M133.58,-280.15C139.09,-254.28 145.08,-208.31 128.5,-174 120.62,-157.68 103.82,-145.39 90.32,-137.63"/>
<polygon fill="midnightblue" stroke="midnightblue" points="130.09,-279.67 131.23,-290.2 136.91,-281.26 130.09,-279.67"/>
</g>
<!-- Node6 -->
<g id="node6" class="node">
<title>Node6</title>
<g id="a_node6"><a xlink:href="_resolution_8hpp_source.html" target="_top" xlink:title=" ">
<polygon fill="none" stroke="black" points="22,-174.5 22,-195.5 119,-195.5 119,-174.5 22,-174.5"/>
<text text-anchor="middle" x="70.5" y="-181.9" font-family="Ubuntu" font-size="12.00">Resolution.hpp</text>
</a>
</g>
</g>
<!-- Node1&#45;&gt;Node6 -->
<g id="edge9" class="edge">
<title>Node1&#45;&gt;Node6</title>
<path fill="none" stroke="midnightblue" d="M118.96,-281.24C106.47,-256.7 85.05,-214.6 75.43,-195.69"/>
<polygon fill="midnightblue" stroke="midnightblue" points="115.9,-282.95 123.55,-290.28 122.14,-279.78 115.9,-282.95"/>
</g>
<!-- Node7 -->
<g id="node7" class="node">
<title>Node7</title>
<g id="a_node7"><a xlink:href="_render_target_8hpp.html" target="_top" xlink:title="Class ASGE::RenderTarget.">
<polygon fill="none" stroke="black" points="175.5,-232.5 175.5,-253.5 289.5,-253.5 289.5,-232.5 175.5,-232.5"/>
<text text-anchor="middle" x="232.5" y="-239.9" font-family="Ubuntu" font-size="12.00">RenderTarget.hpp</text>
</a>
</g>
</g>
<!-- Node1&#45;&gt;Node7 -->
<g id="edge8" class="edge">
<title>Node1&#45;&gt;Node7</title>
<path fill="none" stroke="midnightblue" d="M155.5,-285.46C174.11,-275.44 198.33,-262.4 214.59,-253.64"/>
<polygon fill="midnightblue" stroke="midnightblue" points="153.76,-282.42 146.62,-290.25 157.08,-288.59 153.76,-282.42"/>
</g>
<!-- Node2&#45;&gt;Node3 -->
<g id="edge2" class="edge">
<title>Node2&#45;&gt;Node3</title>
<path fill="none" stroke="midnightblue" d="M25.07,-223.93C15.19,-210.06 5.59,-190.55 13.5,-174 21.29,-157.71 37.97,-145.34 51.29,-137.55"/>
<polygon fill="midnightblue" stroke="midnightblue" points="22.53,-226.37 31.41,-232.14 28.07,-222.09 22.53,-226.37"/>
</g>
<!-- Node2&#45;&gt;Node6 -->
<g id="edge5" class="edge">
<title>Node2&#45;&gt;Node6</title>
<path fill="none" stroke="midnightblue" d="M50.5,-223.34C55.47,-214.06 61.26,-203.24 65.33,-195.64"/>
<polygon fill="midnightblue" stroke="midnightblue" points="47.36,-221.78 45.73,-232.25 53.53,-225.08 47.36,-221.78"/>
</g>
<!-- Node4 -->
<g id="node4" class="node">
<title>Node4</title>
<g id="a_node4"><a xlink:href="_game_8hpp.html" target="_top" xlink:title="Class ASGE::Game.">
<polygon fill="none" stroke="black" points="35,-58.5 35,-79.5 106,-79.5 106,-58.5 35,-58.5"/>
<text text-anchor="middle" x="70.5" y="-65.9" font-family="Ubuntu" font-size="12.00">Game.hpp</text>
</a>
</g>
</g>
<!-- Node3&#45;&gt;Node4 -->
<g id="edge3" class="edge">
<title>Node3&#45;&gt;Node4</title>
<path fill="none" stroke="midnightblue" d="M70.5,-106.16C70.5,-97.16 70.5,-86.92 70.5,-79.64"/>
<polygon fill="midnightblue" stroke="midnightblue" points="67,-106.25 70.5,-116.25 74,-106.25 67,-106.25"/>
</g>
<!-- Node5 -->
<g id="node5" class="node">
<title>Node5</title>
<g id="a_node5"><a xlink:href="_o_g_l_game_8hpp.html" target="_top" xlink:title="Class ASGE::OGLGame.">
<polygon fill="none" stroke="black" points="23,-0.5 23,-21.5 118,-21.5 118,-0.5 23,-0.5"/>
<text text-anchor="middle" x="70.5" y="-7.9" font-family="Ubuntu" font-size="12.00">OGLGame.hpp</text>
</a>
</g>
</g>
<!-- Node4&#45;&gt;Node5 -->
<g id="edge4" class="edge">
<title>Node4&#45;&gt;Node5</title>
<path fill="none" stroke="midnightblue" d="M70.5,-48.16C70.5,-39.16 70.5,-28.92 70.5,-21.64"/>
<polygon fill="midnightblue" stroke="midnightblue" points="67,-48.25 70.5,-58.25 74,-48.25 67,-48.25"/>
</g>
<!-- Node6&#45;&gt;Node3 -->
<g id="edge6" class="edge">
<title>Node6&#45;&gt;Node3</title>
<path fill="none" stroke="midnightblue" d="M70.5,-164.16C70.5,-155.16 70.5,-144.92 70.5,-137.64"/>
<polygon fill="midnightblue" stroke="midnightblue" points="67,-164.25 70.5,-174.25 74,-164.25 67,-164.25"/>
</g>
</g>
</svg>
