<?xml version="1.0" encoding="UTF-8" standalone="no"?>
<!DOCTYPE svg PUBLIC "-//W3C//DTD SVG 1.1//EN"
 "http://www.w3.org/Graphics/SVG/1.1/DTD/svg11.dtd">
<!-- Generated by graphviz version 2.48.0 (0)
 -->
<!-- Title: Logging::LoggerBase Pages: 1 -->
<svg width="290pt" height="88pt"
 viewBox="0.00 0.00 289.50 88.00" xmlns="http://www.w3.org/2000/svg" xmlns:xlink="http://www.w3.org/1999/xlink">
<g id="graph0" class="graph" transform="scale(1 1) rotate(0) translate(4 84)">
<title>Logging::LoggerBase</title>
<!-- Node1 -->
<g id="node1" class="node">
<title>Node1</title>
<g id="a_node1"><a xlink:title="logger base class">
<polygon fill="#bfbfbf" stroke="black" points="72,-58.5 72,-79.5 200,-79.5 200,-58.5 72,-58.5"/>
<text text-anchor="middle" x="136" y="-65.9" font-family="Ubuntu" font-size="12.00">Logging::LoggerBase</text>
</a>
</g>
</g>
<!-- Node2 -->
<g id="node2" class="node">
<title>Node2</title>
<g id="a_node2"><a xlink:href="class_logging_1_1_file_logger.html" target="_top" xlink:title="logger that writes to file">
<polygon fill="none" stroke="black" points="0,-0.5 0,-21.5 122,-21.5 122,-0.5 0,-0.5"/>
<text text-anchor="middle" x="61" y="-7.9" font-family="Ubuntu" font-size="12.00">Logging::FileLogger</text>
</a>
</g>
</g>
<!-- Node1&#45;&gt;Node2 -->
<g id="edge1" class="edge">
<title>Node1&#45;&gt;Node2</title>
<path fill="none" stroke="midnightblue" d="M114.85,-52.21C101.68,-42.37 85.16,-30.04 73.91,-21.64"/>
<polygon fill="midnightblue" stroke="midnightblue" points="112.83,-55.07 122.94,-58.25 117.02,-49.46 112.83,-55.07"/>
</g>
<!-- Node3 -->
<g id="node3" class="node">
<title>Node3</title>
<g id="a_node3"><a xlink:href="class_logging_1_1_std_out_logger.html" target="_top" xlink:title="logger that writes to standard out">
<polygon fill="none" stroke="black" points="140.5,-0.5 140.5,-21.5 281.5,-21.5 281.5,-0.5 140.5,-0.5"/>
<text text-anchor="middle" x="211" y="-7.9" font-family="Ubuntu" font-size="12.00">Logging::StdOutLogger</text>
</a>
</g>
</g>
<!-- Node1&#45;&gt;Node3 -->
<g id="edge2" class="edge">
<title>Node1&#45;&gt;Node3</title>
<path fill="none" stroke="midnightblue" d="M157.15,-52.21C170.32,-42.37 186.84,-30.04 198.09,-21.64"/>
<polygon fill="midnightblue" stroke="midnightblue" points="154.98,-49.46 149.06,-58.25 159.17,-55.07 154.98,-49.46"/>
</g>
</g>
</svg>
