<?xml version="1.0" encoding="UTF-8" standalone="no"?>
<!DOCTYPE svg PUBLIC "-//W3C//DTD SVG 1.1//EN"
 "http://www.w3.org/Graphics/SVG/1.1/DTD/svg11.dtd">
<!-- Generated by graphviz version 2.48.0 (0)
 -->
<!-- Title: ASGE::NonCopyable Pages: 1 -->
<svg width="268pt" height="88pt"
 viewBox="0.00 0.00 267.50 88.00" xmlns="http://www.w3.org/2000/svg" xmlns:xlink="http://www.w3.org/1999/xlink">
<g id="graph0" class="graph" transform="scale(1 1) rotate(0) translate(4 84)">
<title>ASGE::NonCopyable</title>
<!-- Node1 -->
<g id="node1" class="node">
<title>Node1</title>
<g id="a_node1"><a xlink:title="A class that can not be copied.">
<polygon fill="#bfbfbf" stroke="black" points="45,-58.5 45,-79.5 170,-79.5 170,-58.5 45,-58.5"/>
<text text-anchor="middle" x="107.5" y="-65.9" font-family="Ubuntu" font-size="12.00">ASGE::NonCopyable</text>
</a>
</g>
</g>
<!-- Node2 -->
<g id="node2" class="node">
<title>Node2</title>
<g id="a_node2"><a xlink:href="struct_a_s_g_e_1_1_font.html" target="_top" xlink:title="A font used to render text.">
<polygon fill="none" stroke="black" points="0,-0.5 0,-21.5 77,-21.5 77,-0.5 0,-0.5"/>
<text text-anchor="middle" x="38.5" y="-7.9" font-family="Ubuntu" font-size="12.00">ASGE::Font</text>
</a>
</g>
</g>
<!-- Node1&#45;&gt;Node2 -->
<g id="edge1" class="edge">
<title>Node1&#45;&gt;Node2</title>
<path fill="none" stroke="midnightblue" d="M87.7,-51.93C75.64,-42.14 60.63,-29.96 50.38,-21.64"/>
<polygon fill="midnightblue" stroke="midnightblue" points="85.51,-54.66 95.48,-58.25 89.92,-49.23 85.51,-54.66"/>
</g>
<!-- Node3 -->
<g id="node3" class="node">
<title>Node3</title>
<g id="a_node3"><a xlink:href="class_a_s_g_e_1_1_s_h_a_d_e_r___l_i_b_1_1_shader.html" target="_top" xlink:title="a shader instance. The shader is used in the rendering pipeline.">
<polygon fill="none" stroke="black" points="95.5,-0.5 95.5,-21.5 259.5,-21.5 259.5,-0.5 95.5,-0.5"/>
<text text-anchor="middle" x="177.5" y="-7.9" font-family="Ubuntu" font-size="12.00">ASGE::SHADER_LIB::Shader</text>
</a>
</g>
</g>
<!-- Node1&#45;&gt;Node3 -->
<g id="edge2" class="edge">
<title>Node1&#45;&gt;Node3</title>
<path fill="none" stroke="midnightblue" d="M127.59,-51.93C139.83,-42.14 155.05,-29.96 165.45,-21.64"/>
<polygon fill="midnightblue" stroke="midnightblue" points="125.32,-49.27 119.69,-58.25 129.69,-54.73 125.32,-49.27"/>
</g>
</g>
</svg>
