<?xml version="1.0" encoding="UTF-8" standalone="no"?>
<!DOCTYPE svg PUBLIC "-//W3C//DTD SVG 1.1//EN"
 "http://www.w3.org/Graphics/SVG/1.1/DTD/svg11.dtd">
<!-- Generated by graphviz version 2.48.0 (0)
 -->
<!-- Title: ASGE::Resolution Pages: 1 -->
<svg width="294pt" height="101pt"
 viewBox="0.00 0.00 294.00 101.00" xmlns="http://www.w3.org/2000/svg" xmlns:xlink="http://www.w3.org/1999/xlink">
<g id="graph0" class="graph" transform="scale(1 1) rotate(0) translate(4 97)">
<title>ASGE::Resolution</title>
<!-- Node1 -->
<g id="node1" class="node">
<title>Node1</title>
<g id="a_node1"><a xlink:title=" ">
<polygon fill="#bfbfbf" stroke="black" points="71.5,-0.5 71.5,-21.5 181.5,-21.5 181.5,-0.5 71.5,-0.5"/>
<text text-anchor="middle" x="126.5" y="-7.9" font-family="Ubuntu" font-size="12.00">ASGE::Resolution</text>
</a>
</g>
</g>
<!-- Node2 -->
<g id="node2" class="node">
<title>Node2</title>
<g id="a_node2"><a xlink:href="struct_a_s_g_e_1_1_viewport.html" target="_top" xlink:title=" ">
<polygon fill="none" stroke="black" points="0,-71.5 0,-92.5 101,-92.5 101,-71.5 0,-71.5"/>
<text text-anchor="middle" x="50.5" y="-78.9" font-family="Ubuntu" font-size="12.00">ASGE::Viewport</text>
</a>
</g>
</g>
<!-- Node2&#45;&gt;Node1 -->
<g id="edge1" class="edge">
<title>Node2&#45;&gt;Node1</title>
<path fill="none" stroke="#9a32cd" stroke-dasharray="5,2" d="M68.62,-64.55C83.42,-51.11 103.81,-32.6 116.02,-21.51"/>
<polygon fill="#9a32cd" stroke="#9a32cd" points="66.12,-62.09 61.07,-71.41 70.82,-67.28 66.12,-62.09"/>
<text text-anchor="middle" x="121" y="-43.4" font-family="Ubuntu" font-size="12.00"> viewport</text>
</g>
<!-- Node3 -->
<g id="node3" class="node">
<title>Node3</title>
<g id="a_node3"><a xlink:href="struct_a_s_g_e_1_1_camera_1_1_camera_view.html" target="_top" xlink:title="A an orthogonal camera view struct.">
<polygon fill="none" stroke="black" points="119,-71.5 119,-92.5 286,-92.5 286,-71.5 119,-71.5"/>
<text text-anchor="middle" x="202.5" y="-78.9" font-family="Ubuntu" font-size="12.00">ASGE::Camera::CameraView</text>
</a>
</g>
</g>
<!-- Node3&#45;&gt;Node1 -->
<g id="edge2" class="edge">
<title>Node3&#45;&gt;Node1</title>
<path fill="none" stroke="#9a32cd" stroke-dasharray="5,2" d="M184.38,-64.55C169.58,-51.11 149.19,-32.6 136.98,-21.51"/>
<polygon fill="#9a32cd" stroke="#9a32cd" points="182.18,-67.28 191.93,-71.41 186.88,-62.09 182.18,-67.28"/>
<text text-anchor="middle" x="184.5" y="-43.4" font-family="Ubuntu" font-size="12.00"> view</text>
</g>
</g>
</svg>
