<?xml version="1.0" encoding="UTF-8" standalone="no"?>
<!DOCTYPE svg PUBLIC "-//W3C//DTD SVG 1.1//EN"
 "http://www.w3.org/Graphics/SVG/1.1/DTD/svg11.dtd">
<!-- Generated by graphviz version 2.48.0 (0)
 -->
<!-- Title: Graph Legend Pages: 1 -->
<svg width="575pt" height="169pt"
 viewBox="0.00 0.00 575.00 169.00" xmlns="http://www.w3.org/2000/svg" xmlns:xlink="http://www.w3.org/1999/xlink">
<g id="graph0" class="graph" transform="scale(1 1) rotate(0) translate(4 165)">
<title>Graph Legend</title>
<!-- Node9 -->
<g id="node1" class="node">
<title>Node9</title>
<polygon fill="#bfbfbf" stroke="black" points="332.5,-21 267.5,-21 267.5,0 332.5,0 332.5,-21"/>
<text text-anchor="middle" x="300" y="-7.4" font-family="Ubuntu" font-size="12.00">Inherited</text>
</g>
<!-- Node10 -->
<g id="node2" class="node">
<title>Node10</title>
<polygon fill="none" stroke="black" points="74,-91 0,-91 0,-70 74,-70 74,-91"/>
<text text-anchor="middle" x="37" y="-77.4" font-family="Ubuntu" font-size="12.00">PublicBase</text>
</g>
<!-- Node10&#45;&gt;Node9 -->
<g id="edge1" class="edge">
<title>Node10&#45;&gt;Node9</title>
<path fill="none" stroke="midnightblue" d="M83.63,-67.44C136.36,-53.81 220.88,-31.96 267.13,-20"/>
<polygon fill="midnightblue" stroke="midnightblue" points="82.65,-64.08 73.85,-69.97 84.4,-70.86 82.65,-64.08"/>
</g>
<!-- Node11 -->
<g id="node3" class="node">
<title>Node11</title>
<polygon fill="none" stroke="red" points="72,-161 2,-161 2,-140 72,-140 72,-161"/>
<text text-anchor="middle" x="37" y="-147.4" font-family="Ubuntu" font-size="12.00">Truncated</text>
</g>
<!-- Node11&#45;&gt;Node10 -->
<g id="edge2" class="edge">
<title>Node11&#45;&gt;Node10</title>
<path fill="none" stroke="midnightblue" d="M37,-129.7C37,-117.05 37,-101.22 37,-91.22"/>
<polygon fill="midnightblue" stroke="midnightblue" points="33.5,-129.76 37,-139.76 40.5,-129.76 33.5,-129.76"/>
</g>
<!-- Node13 -->
<g id="node4" class="node">
<title>Node13</title>
<polygon fill="none" stroke="black" points="187.5,-91 92.5,-91 92.5,-70 187.5,-70 187.5,-91"/>
<text text-anchor="middle" x="140" y="-77.4" font-family="Ubuntu" font-size="12.00">ProtectedBase</text>
</g>
<!-- Node13&#45;&gt;Node9 -->
<g id="edge3" class="edge">
<title>Node13&#45;&gt;Node9</title>
<path fill="none" stroke="darkgreen" d="M172.15,-65.84C203.4,-52.55 250.07,-32.72 277.53,-21.05"/>
<polygon fill="darkgreen" stroke="darkgreen" points="170.42,-62.77 162.58,-69.9 173.16,-69.21 170.42,-62.77"/>
</g>
<!-- Node14 -->
<g id="node5" class="node">
<title>Node14</title>
<polygon fill="none" stroke="black" points="286,-91 206,-91 206,-70 286,-70 286,-91"/>
<text text-anchor="middle" x="246" y="-77.4" font-family="Ubuntu" font-size="12.00">PrivateBase</text>
</g>
<!-- Node14&#45;&gt;Node9 -->
<g id="edge4" class="edge">
<title>Node14&#45;&gt;Node9</title>
<path fill="none" stroke="#8b1a1a" d="M260.23,-61.59C270.49,-48.67 283.94,-31.72 292.28,-21.22"/>
<polygon fill="#8b1a1a" stroke="#8b1a1a" points="257.21,-59.75 253.74,-69.76 262.7,-64.1 257.21,-59.75"/>
</g>
<!-- Node15 -->
<g id="node6" class="node">
<title>Node15</title>
<polygon fill="none" stroke="#bfbfbf" points="403.5,-91 304.5,-91 304.5,-70 403.5,-70 403.5,-91"/>
<text text-anchor="middle" x="354" y="-77.4" font-family="Ubuntu" font-size="12.00">Undocumented</text>
</g>
<!-- Node15&#45;&gt;Node9 -->
<g id="edge5" class="edge">
<title>Node15&#45;&gt;Node9</title>
<path fill="none" stroke="midnightblue" d="M339.77,-61.59C329.51,-48.67 316.06,-31.72 307.72,-21.22"/>
<polygon fill="midnightblue" stroke="midnightblue" points="337.3,-64.1 346.26,-69.76 342.79,-59.75 337.3,-64.1"/>
</g>
<!-- Node16 -->
<g id="node7" class="node">
<title>Node16</title>
<polygon fill="none" stroke="black" points="504.5,-91 421.5,-91 421.5,-70 504.5,-70 504.5,-91"/>
<text text-anchor="middle" x="463" y="-77.4" font-family="Ubuntu" font-size="12.00">Templ&lt; int &gt;</text>
</g>
<!-- Node16&#45;&gt;Node9 -->
<g id="edge6" class="edge">
<title>Node16&#45;&gt;Node9</title>
<path fill="none" stroke="midnightblue" d="M430.66,-66.01C398.82,-52.73 350.99,-32.77 322.89,-21.05"/>
<polygon fill="midnightblue" stroke="midnightblue" points="429.42,-69.28 439.99,-69.9 432.11,-62.82 429.42,-69.28"/>
</g>
<!-- Node17 -->
<g id="node8" class="node">
<title>Node17</title>
<polygon fill="none" stroke="black" points="501,-161 425,-161 425,-140 501,-140 501,-161"/>
<text text-anchor="middle" x="463" y="-147.4" font-family="Ubuntu" font-size="12.00">Templ&lt; T &gt;</text>
</g>
<!-- Node17&#45;&gt;Node16 -->
<g id="edge7" class="edge">
<title>Node17&#45;&gt;Node16</title>
<path fill="none" stroke="orange" stroke-dasharray="5,2" d="M463,-129.7C463,-117.05 463,-101.22 463,-91.22"/>
<polygon fill="orange" stroke="orange" points="459.5,-129.76 463,-139.76 466.5,-129.76 459.5,-129.76"/>
<text text-anchor="middle" x="480" y="-112.4" font-family="Ubuntu" font-size="12.00">&lt; int &gt;</text>
</g>
<!-- Node18 -->
<g id="node9" class="node">
<title>Node18</title>
<polygon fill="none" stroke="black" points="567,-91 523,-91 523,-70 567,-70 567,-91"/>
<text text-anchor="middle" x="545" y="-77.4" font-family="Ubuntu" font-size="12.00">Used</text>
</g>
<!-- Node18&#45;&gt;Node9 -->
<g id="edge8" class="edge">
<title>Node18&#45;&gt;Node9</title>
<path fill="none" stroke="#9a32cd" stroke-dasharray="5,2" d="M512.87,-69.73C443.31,-49.65 372.88,-30.76 332.72,-20.11"/>
<polygon fill="#9a32cd" stroke="#9a32cd" points="512.09,-73.15 522.67,-72.57 514.04,-66.43 512.09,-73.15"/>
<text text-anchor="middle" x="484" y="-42.4" font-family="Ubuntu" font-size="12.00">m_usedClass</text>
</g>
</g>
</svg>
