<?xml version="1.0" encoding="UTF-8" standalone="no"?>
<!DOCTYPE svg PUBLIC "-//W3C//DTD SVG 1.1//EN"
 "http://www.w3.org/Graphics/SVG/1.1/DTD/svg11.dtd">
<!-- Generated by graphviz version 2.48.0 (0)
 -->
<!-- Title: Graphical Class Hierarchy Pages: 1 -->
<svg width="313pt" height="70pt"
 viewBox="0.00 0.00 313.00 70.00" xmlns="http://www.w3.org/2000/svg" xmlns:xlink="http://www.w3.org/1999/xlink">
<g id="graph0" class="graph" transform="scale(1 1) rotate(0) translate(4 66)">
<title>Graphical Class Hierarchy</title>
<!-- Node0 -->
<g id="node1" class="node">
<title>Node0</title>
<g id="a_node1"><a xlink:href="class_logging_1_1_logger_base.html" target="_top" xlink:title="logger base class">
<polygon fill="none" stroke="black" points="0,-20.5 0,-41.5 128,-41.5 128,-20.5 0,-20.5"/>
<text text-anchor="middle" x="64" y="-27.9" font-family="Ubuntu" font-size="12.00">Logging::LoggerBase</text>
</a>
</g>
</g>
<!-- Node1 -->
<g id="node2" class="node">
<title>Node1</title>
<g id="a_node2"><a xlink:href="class_logging_1_1_file_logger.html" target="_top" xlink:title="logger that writes to file">
<polygon fill="none" stroke="black" points="173.5,-40.5 173.5,-61.5 295.5,-61.5 295.5,-40.5 173.5,-40.5"/>
<text text-anchor="middle" x="234.5" y="-47.9" font-family="Ubuntu" font-size="12.00">Logging::FileLogger</text>
</a>
</g>
</g>
<!-- Node0&#45;&gt;Node1 -->
<g id="edge1" class="edge">
<title>Node0&#45;&gt;Node1</title>
<path fill="none" stroke="midnightblue" d="M138.37,-39.71C150.03,-41.09 161.96,-42.51 173.27,-43.85"/>
<polygon fill="midnightblue" stroke="midnightblue" points="138.57,-36.21 128.22,-38.5 137.74,-43.16 138.57,-36.21"/>
</g>
<!-- Node2 -->
<g id="node3" class="node">
<title>Node2</title>
<g id="a_node3"><a xlink:href="class_logging_1_1_std_out_logger.html" target="_top" xlink:title="logger that writes to standard out">
<polygon fill="none" stroke="black" points="164,-0.5 164,-21.5 305,-21.5 305,-0.5 164,-0.5"/>
<text text-anchor="middle" x="234.5" y="-7.9" font-family="Ubuntu" font-size="12.00">Logging::StdOutLogger</text>
</a>
</g>
</g>
<!-- Node0&#45;&gt;Node2 -->
<g id="edge2" class="edge">
<title>Node0&#45;&gt;Node2</title>
<path fill="none" stroke="midnightblue" d="M138.19,-22.31C146.75,-21.3 155.48,-20.26 163.99,-19.25"/>
<polygon fill="midnightblue" stroke="midnightblue" points="137.74,-18.84 128.22,-23.5 138.57,-25.79 137.74,-18.84"/>
</g>
</g>
</svg>
