<?xml version="1.0" encoding="UTF-8" standalone="no"?>
<!DOCTYPE svg PUBLIC "-//W3C//DTD SVG 1.1//EN"
 "http://www.w3.org/Graphics/SVG/1.1/DTD/svg11.dtd">
<!-- Generated by graphviz version 2.48.0 (0)
 -->
<!-- Title: Graphical Class Hierarchy Pages: 1 -->
<svg width="265pt" height="150pt"
 viewBox="0.00 0.00 265.00 150.00" xmlns="http://www.w3.org/2000/svg" xmlns:xlink="http://www.w3.org/1999/xlink">
<g id="graph0" class="graph" transform="scale(1 1) rotate(0) translate(4 146)">
<title>Graphical Class Hierarchy</title>
<!-- Node0 -->
<g id="node1" class="node">
<title>Node0</title>
<g id="a_node1"><a xlink:href="struct_a_s_g_e_1_1_event_data.html" target="_top" xlink:title="event data used to signal input events">
<polygon fill="none" stroke="black" points="0,-60.5 0,-81.5 108,-81.5 108,-60.5 0,-60.5"/>
<text text-anchor="middle" x="54" y="-67.9" font-family="Ubuntu" font-size="12.00">ASGE::EventData</text>
</a>
</g>
</g>
<!-- Node1 -->
<g id="node2" class="node">
<title>Node1</title>
<g id="a_node2"><a xlink:href="struct_a_s_g_e_1_1_click_event.html" target="_top" xlink:title="a mouse click event">
<polygon fill="none" stroke="black" points="146.5,-120.5 146.5,-141.5 254.5,-141.5 254.5,-120.5 146.5,-120.5"/>
<text text-anchor="middle" x="200.5" y="-127.9" font-family="Ubuntu" font-size="12.00">ASGE::ClickEvent</text>
</a>
</g>
</g>
<!-- Node0&#45;&gt;Node1 -->
<g id="edge1" class="edge">
<title>Node0&#45;&gt;Node1</title>
<path fill="none" stroke="midnightblue" d="M86.51,-85.87C103.42,-93.67 124.7,-103.2 144,-111 151.98,-114.22 160.69,-117.49 168.81,-120.41"/>
<polygon fill="midnightblue" stroke="midnightblue" points="87.65,-82.54 77.11,-81.5 84.7,-88.89 87.65,-82.54"/>
</g>
<!-- Node2 -->
<g id="node3" class="node">
<title>Node2</title>
<g id="a_node3"><a xlink:href="struct_a_s_g_e_1_1_key_event.html" target="_top" xlink:title="a key event">
<polygon fill="none" stroke="black" points="148.5,-80.5 148.5,-101.5 252.5,-101.5 252.5,-80.5 148.5,-80.5"/>
<text text-anchor="middle" x="200.5" y="-87.9" font-family="Ubuntu" font-size="12.00">ASGE::KeyEvent</text>
</a>
</g>
</g>
<!-- Node0&#45;&gt;Node2 -->
<g id="edge2" class="edge">
<title>Node0&#45;&gt;Node2</title>
<path fill="none" stroke="midnightblue" d="M118.61,-79.8C128.52,-81.18 138.65,-82.58 148.24,-83.91"/>
<polygon fill="midnightblue" stroke="midnightblue" points="118.78,-76.29 108.4,-78.39 117.82,-83.23 118.78,-76.29"/>
</g>
<!-- Node3 -->
<g id="node4" class="node">
<title>Node3</title>
<g id="a_node4"><a xlink:href="struct_a_s_g_e_1_1_move_event.html" target="_top" xlink:title="a mouse movement event">
<polygon fill="none" stroke="black" points="144,-40.5 144,-61.5 257,-61.5 257,-40.5 144,-40.5"/>
<text text-anchor="middle" x="200.5" y="-47.9" font-family="Ubuntu" font-size="12.00">ASGE::MoveEvent</text>
</a>
</g>
</g>
<!-- Node0&#45;&gt;Node3 -->
<g id="edge3" class="edge">
<title>Node0&#45;&gt;Node3</title>
<path fill="none" stroke="midnightblue" d="M118.58,-62.2C127.02,-61.03 135.61,-59.84 143.9,-58.69"/>
<polygon fill="midnightblue" stroke="midnightblue" points="117.82,-58.77 108.4,-63.61 118.78,-65.71 117.82,-58.77"/>
</g>
<!-- Node4 -->
<g id="node5" class="node">
<title>Node4</title>
<g id="a_node5"><a xlink:href="struct_a_s_g_e_1_1_scroll_event.html" target="_top" xlink:title="a mouse scrolling event">
<polygon fill="none" stroke="black" points="144,-0.5 144,-21.5 257,-21.5 257,-0.5 144,-0.5"/>
<text text-anchor="middle" x="200.5" y="-7.9" font-family="Ubuntu" font-size="12.00">ASGE::ScrollEvent</text>
</a>
</g>
</g>
<!-- Node0&#45;&gt;Node4 -->
<g id="edge4" class="edge">
<title>Node0&#45;&gt;Node4</title>
<path fill="none" stroke="midnightblue" d="M86.51,-56.13C103.42,-48.33 124.7,-38.8 144,-31 151.98,-27.78 160.69,-24.51 168.81,-21.59"/>
<polygon fill="midnightblue" stroke="midnightblue" points="84.7,-53.11 77.11,-60.5 87.65,-59.46 84.7,-53.11"/>
</g>
</g>
</svg>
