<?xml version="1.0" encoding="UTF-8" standalone="no"?>
<!DOCTYPE svg PUBLIC "-//W3C//DTD SVG 1.1//EN"
 "http://www.w3.org/Graphics/SVG/1.1/DTD/svg11.dtd">
<!-- Generated by graphviz version 2.48.0 (0)
 -->
<!-- Title: Graphical Class Hierarchy Pages: 1 -->
<svg width="333pt" height="70pt"
 viewBox="0.00 0.00 333.00 70.00" xmlns="http://www.w3.org/2000/svg" xmlns:xlink="http://www.w3.org/1999/xlink">
<g id="graph0" class="graph" transform="scale(1 1) rotate(0) translate(4 66)">
<title>Graphical Class Hierarchy</title>
<!-- Node0 -->
<g id="node1" class="node">
<title>Node0</title>
<g id="a_node1"><a xlink:href="class_a_s_g_e_1_1_non_copyable.html" target="_top" xlink:title="A class that can not be copied.">
<polygon fill="none" stroke="black" points="0,-20.5 0,-41.5 125,-41.5 125,-20.5 0,-20.5"/>
<text text-anchor="middle" x="62.5" y="-27.9" font-family="Ubuntu" font-size="12.00">ASGE::NonCopyable</text>
</a>
</g>
</g>
<!-- Node1 -->
<g id="node2" class="node">
<title>Node1</title>
<g id="a_node2"><a xlink:href="struct_a_s_g_e_1_1_font.html" target="_top" xlink:title="A font used to render text.">
<polygon fill="none" stroke="black" points="204.5,-40.5 204.5,-61.5 281.5,-61.5 281.5,-40.5 204.5,-40.5"/>
<text text-anchor="middle" x="243" y="-47.9" font-family="Ubuntu" font-size="12.00">ASGE::Font</text>
</a>
</g>
</g>
<!-- Node0&#45;&gt;Node1 -->
<g id="edge1" class="edge">
<title>Node0&#45;&gt;Node1</title>
<path fill="none" stroke="midnightblue" d="M135.19,-39.03C158.83,-41.68 184.19,-44.52 204.26,-46.77"/>
<polygon fill="midnightblue" stroke="midnightblue" points="135.51,-35.55 125.18,-37.91 134.73,-42.5 135.51,-35.55"/>
</g>
<!-- Node2 -->
<g id="node3" class="node">
<title>Node2</title>
<g id="a_node3"><a xlink:href="class_a_s_g_e_1_1_s_h_a_d_e_r___l_i_b_1_1_shader.html" target="_top" xlink:title="a shader instance. The shader is used in the rendering pipeline.">
<polygon fill="none" stroke="black" points="161,-0.5 161,-21.5 325,-21.5 325,-0.5 161,-0.5"/>
<text text-anchor="middle" x="243" y="-7.9" font-family="Ubuntu" font-size="12.00">ASGE::SHADER_LIB::Shader</text>
</a>
</g>
</g>
<!-- Node0&#45;&gt;Node2 -->
<g id="edge2" class="edge">
<title>Node0&#45;&gt;Node2</title>
<path fill="none" stroke="midnightblue" d="M135.29,-22.96C143.68,-22.02 152.29,-21.05 160.8,-20.1"/>
<polygon fill="midnightblue" stroke="midnightblue" points="134.73,-19.5 125.18,-24.09 135.51,-26.45 134.73,-19.5"/>
</g>
</g>
</svg>
