<?xml version="1.0" encoding="UTF-8" standalone="no"?>
<!DOCTYPE svg PUBLIC "-//W3C//DTD SVG 1.1//EN"
 "http://www.w3.org/Graphics/SVG/1.1/DTD/svg11.dtd">
<!-- Generated by graphviz version 2.48.0 (0)
 -->
<!-- Title: ASGE::Tile Pages: 1 -->
<svg width="222pt" height="101pt"
 viewBox="0.00 0.00 222.00 101.00" xmlns="http://www.w3.org/2000/svg" xmlns:xlink="http://www.w3.org/1999/xlink">
<g id="graph0" class="graph" transform="scale(1 1) rotate(0) translate(4 97)">
<title>ASGE::Tile</title>
<!-- Node1 -->
<g id="node1" class="node">
<title>Node1</title>
<g id="a_node1"><a xlink:title="An ASGE supported tile.">
<polygon fill="#bfbfbf" stroke="black" points="66.5,-0.5 66.5,-21.5 137.5,-21.5 137.5,-0.5 66.5,-0.5"/>
<text text-anchor="middle" x="102" y="-7.9" font-family="Ubuntu" font-size="12.00">ASGE::Tile</text>
</a>
</g>
</g>
<!-- Node2 -->
<g id="node2" class="node">
<title>Node2</title>
<g id="a_node2"><a xlink:href="struct_a_s_g_e_1_1_colour.html" target="_top" xlink:title="RGB Helper.">
<polygon fill="none" stroke="black" points="0,-71.5 0,-92.5 88,-92.5 88,-71.5 0,-71.5"/>
<text text-anchor="middle" x="44" y="-78.9" font-family="Ubuntu" font-size="12.00">ASGE::Colour</text>
</a>
</g>
</g>
<!-- Node2&#45;&gt;Node1 -->
<g id="edge1" class="edge">
<title>Node2&#45;&gt;Node1</title>
<path fill="none" stroke="#9a32cd" stroke-dasharray="5,2" d="M58.78,-63.41C69.98,-50.09 84.94,-32.29 94,-21.51"/>
<polygon fill="#9a32cd" stroke="#9a32cd" points="55.82,-61.5 52.06,-71.41 61.18,-66 55.82,-61.5"/>
<text text-anchor="middle" x="90" y="-43.4" font-family="Ubuntu" font-size="12.00"> tint</text>
</g>
<!-- Node3 -->
<g id="node3" class="node">
<title>Node3</title>
<g id="a_node3"><a xlink:href="class_a_s_g_e_1_1_texture2_d.html" target="_top" xlink:title="a simple 2D non&#45;renderable texture.">
<polygon fill="none" stroke="black" points="106,-71.5 106,-92.5 214,-92.5 214,-71.5 106,-71.5"/>
<text text-anchor="middle" x="160" y="-78.9" font-family="Ubuntu" font-size="12.00">ASGE::Texture2D</text>
</a>
</g>
</g>
<!-- Node3&#45;&gt;Node1 -->
<g id="edge2" class="edge">
<title>Node3&#45;&gt;Node1</title>
<path fill="none" stroke="#9a32cd" stroke-dasharray="5,2" d="M145.22,-63.41C134.02,-50.09 119.06,-32.29 110,-21.51"/>
<polygon fill="#9a32cd" stroke="#9a32cd" points="142.82,-66 151.94,-71.41 148.18,-61.5 142.82,-66"/>
<text text-anchor="middle" x="157.5" y="-43.4" font-family="Ubuntu" font-size="12.00"> texture</text>
</g>
</g>
</svg>
