<?xml version="1.0" encoding="UTF-8" standalone="no"?>
<!DOCTYPE svg PUBLIC "-//W3C//DTD SVG 1.1//EN"
 "http://www.w3.org/Graphics/SVG/1.1/DTD/svg11.dtd">
<!-- Generated by graphviz version 2.48.0 (0)
 -->
<!-- Title: ASGE::EventData Pages: 1 -->
<svg width="501pt" height="88pt"
 viewBox="0.00 0.00 500.50 88.00" xmlns="http://www.w3.org/2000/svg" xmlns:xlink="http://www.w3.org/1999/xlink">
<g id="graph0" class="graph" transform="scale(1 1) rotate(0) translate(4 84)">
<title>ASGE::EventData</title>
<!-- Node1 -->
<g id="node1" class="node">
<title>Node1</title>
<g id="a_node1"><a xlink:title="event data used to signal input events">
<polygon fill="#bfbfbf" stroke="black" points="187,-58.5 187,-79.5 295,-79.5 295,-58.5 187,-58.5"/>
<text text-anchor="middle" x="241" y="-65.9" font-family="Ubuntu" font-size="12.00">ASGE::EventData</text>
</a>
</g>
</g>
<!-- Node2 -->
<g id="node2" class="node">
<title>Node2</title>
<g id="a_node2"><a xlink:href="struct_a_s_g_e_1_1_click_event.html" target="_top" xlink:title="a mouse click event">
<polygon fill="none" stroke="black" points="0,-0.5 0,-21.5 108,-21.5 108,-0.5 0,-0.5"/>
<text text-anchor="middle" x="54" y="-7.9" font-family="Ubuntu" font-size="12.00">ASGE::ClickEvent</text>
</a>
</g>
</g>
<!-- Node1&#45;&gt;Node2 -->
<g id="edge1" class="edge">
<title>Node1&#45;&gt;Node2</title>
<path fill="none" stroke="midnightblue" d="M199.11,-55.46C164.79,-45.18 116.94,-30.85 85.73,-21.5"/>
<polygon fill="midnightblue" stroke="midnightblue" points="198.27,-58.86 208.85,-58.37 200.28,-52.15 198.27,-58.86"/>
</g>
<!-- Node3 -->
<g id="node3" class="node">
<title>Node3</title>
<g id="a_node3"><a xlink:href="struct_a_s_g_e_1_1_key_event.html" target="_top" xlink:title="a key event">
<polygon fill="none" stroke="black" points="126,-0.5 126,-21.5 230,-21.5 230,-0.5 126,-0.5"/>
<text text-anchor="middle" x="178" y="-7.9" font-family="Ubuntu" font-size="12.00">ASGE::KeyEvent</text>
</a>
</g>
</g>
<!-- Node1&#45;&gt;Node3 -->
<g id="edge2" class="edge">
<title>Node1&#45;&gt;Node3</title>
<path fill="none" stroke="midnightblue" d="M222.28,-51.36C211.38,-41.67 198.02,-29.8 188.85,-21.64"/>
<polygon fill="midnightblue" stroke="midnightblue" points="220.23,-54.22 230.03,-58.25 224.88,-48.99 220.23,-54.22"/>
</g>
<!-- Node4 -->
<g id="node4" class="node">
<title>Node4</title>
<g id="a_node4"><a xlink:href="struct_a_s_g_e_1_1_move_event.html" target="_top" xlink:title="a mouse movement event">
<polygon fill="none" stroke="black" points="248.5,-0.5 248.5,-21.5 361.5,-21.5 361.5,-0.5 248.5,-0.5"/>
<text text-anchor="middle" x="305" y="-7.9" font-family="Ubuntu" font-size="12.00">ASGE::MoveEvent</text>
</a>
</g>
</g>
<!-- Node1&#45;&gt;Node4 -->
<g id="edge3" class="edge">
<title>Node1&#45;&gt;Node4</title>
<path fill="none" stroke="midnightblue" d="M259.69,-51.65C270.82,-41.91 284.57,-29.88 293.98,-21.64"/>
<polygon fill="midnightblue" stroke="midnightblue" points="257.37,-49.03 252.15,-58.25 261.98,-54.29 257.37,-49.03"/>
</g>
<!-- Node5 -->
<g id="node5" class="node">
<title>Node5</title>
<g id="a_node5"><a xlink:href="struct_a_s_g_e_1_1_scroll_event.html" target="_top" xlink:title="a mouse scrolling event">
<polygon fill="none" stroke="black" points="379.5,-0.5 379.5,-21.5 492.5,-21.5 492.5,-0.5 379.5,-0.5"/>
<text text-anchor="middle" x="436" y="-7.9" font-family="Ubuntu" font-size="12.00">ASGE::ScrollEvent</text>
</a>
</g>
</g>
<!-- Node1&#45;&gt;Node5 -->
<g id="edge4" class="edge">
<title>Node1&#45;&gt;Node5</title>
<path fill="none" stroke="midnightblue" d="M284.22,-55.59C320.05,-45.3 370.22,-30.89 402.92,-21.5"/>
<polygon fill="midnightblue" stroke="midnightblue" points="283.17,-52.25 274.52,-58.37 285.1,-58.98 283.17,-52.25"/>
</g>
</g>
</svg>
